SplineFontDB: 3.0
FontName: Cantarell-BoldOblique
FullName: Cantarell Bold Oblique
FamilyName: Cantarell
Weight: Bold
Copyright: Copyright (c) 2009 Dave Crossland <dave@lab6.com>
UComments: "Cantarell is designed by Dave Crossland+AA0ACgAA-dave@lab6.com+AA0ACgAA-http://abattis.org/cantarell/" 
Version: 001.001
ItalicAngle: -16
UnderlinePosition: -233
UnderlineWidth: 116
Ascent: 1514
Descent: 534
LayerCount: 2
Layer: 0 0 "Back"  1
Layer: 1 0 "Fore"  0
XUID: [1021 472 1916768597 5236576]
FSType: 0
OS2Version: 0
OS2_WeightWidthSlopeOnly: 0
OS2_UseTypoMetrics: 1
CreationTime: 1236980653
ModificationTime: 1247126932
PfmFamily: 33
TTFWeight: 700
TTFWidth: 5
LineGap: 211
VLineGap: 0
OS2TypoAscent: 0
OS2TypoAOffset: 1
OS2TypoDescent: 0
OS2TypoDOffset: 1
OS2TypoLinegap: 211
OS2WinAscent: 0
OS2WinAOffset: 1
OS2WinDescent: 0
OS2WinDOffset: 1
HheadAscent: 0
HheadAOffset: 1
HheadDescent: 0
HheadDOffset: 1
OS2FamilyClass: 2050
OS2Vendor: 'ABAT'
DEI: 91125

StartChar: a
Encoding: 97 97 0
Width: 1222
VWidth: 2097
Flags: HW
LayerCount: 2
Back
SplineSet
507.414 1006.52 m 4
 580.836 1006.52 847.439 997.028 883.997 757.268 c 4
 888.384 728.491 889.043 699.316 889.043 670.182 c 4
 889.043 665.453 889.026 660.725 889.004 656 c 6
 886.004 0 l 5
 773.004 0 l 5x7c
 734.668 89.973 l 5
 668.899 29.9457 570.698 -19.9671 456.689 -19.9671 c 4
 266.486 -19.9671 122.836 114.776 122.836 261.593 c 4
 122.836 354.645 181.039 485.831 385.965 532.948 c 4
 451.386 547.99 537.745 557.586 724.004 560.599 c 5
 724.004 613 l 6
 724.004 622.859 724.109 632.762 724.109 642.666 c 4
 724.109 696.887 727.85 871.27 481.17 871.27 c 4xbc
 386.956 871.27 270.723 841.293 217.004 826 c 5
 186.004 946 l 5
 306.619 991.348 418.949 1006.35 507.414 1006.52 c 4
724.004 437.479 m 5
 527.693 434.531 398.584 439.171 325.004 362 c 4
 301.542 337.393 286.442 304.041 286.442 270.218 c 4
 286.442 186.91 382.104 108.915 501.376 108.915 c 4
 523.378 108.915 632.19 110.577 724.004 209.74 c 5
 724.004 437.479 l 5
EndSplineSet
Fore
SplineSet
871 982 m 0x2e
 1155 982 1241 883 1241 753 c 0
 1241 715 1233 674 1221 632 c 2
 1039 0 l 1
 855 0 l 1x6e
 846 65 l 1
 755 15 640 -20 523 -20 c 0
 305 -20 188 84 188 208 c 0
 188 227 190 246 196 266 c 0
 267 513 601 564 955 568 c 1
 964 600 l 2
 970 621 975 642 975 662 c 0
 975 717 937 764 776 764 c 0xae
 717 764 622 754 472 720 c 1
 429 709 l 1
 435 906 l 1
 473 918 l 2x36
 611 962 752 982 871 982 c 0x2e
864 251 m 1
 902 382 l 1
 878 382 l 2
 624 382 482 357 461 284 c 0
 460 281 460 277 460 274 c 0
 460 234 527 191 637 191 c 0xa6
 658 191 757 192 864 251 c 1
EndSplineSet
Validated: 1
EndChar

StartChar: d
Encoding: 100 100 1
Width: 1338
VWidth: 2097
Flags: HW
LayerCount: 2
Fore
SplineSet
260 466 m 4xbc
 357 804 631 983 952 983 c 4
 1039 983 1110 969 1171 949 c 5
 1332 1511 l 5
 1578 1511 l 5
 1145 0 l 5
 963 0 l 5x7c
 956 46 l 5
 841 -1 727 -20 632 -20 c 4
 428 -20 234 63 234 300 c 0
 234 349 242 404 260 466 c 4xbc
758 197 m 4xbc
 834 197 907 213 965 231 c 5
 1112 744 l 5
 1064 758 997 772 921 772 c 4
 791 772 577 728 509 489 c 4
 499 453 494 421 494 393 c 0
 494 233 644 197 758 197 c 4xbc
EndSplineSet
Validated: 1
EndChar

StartChar: e
Encoding: 101 101 2
Width: 1240
VWidth: 2097
Flags: HW
LayerCount: 2
Back
SplineSet
605.469 1007.06 m 4
 687.75 1007.06 910.955 986.74 960.409 701.903 c 4
 971.158 639.992 972 576.838 972 514 c 6
 972 417 l 5
 293 417 l 5
 303.311 275.531 420.448 110.991 664.233 110.991 c 4
 748.749 110.991 832.451 129.96 889 147 c 5
 918 35 l 5
 832.573 5.59987 722.617 -19.9723 601.601 -20.0001 c 4
 224.279 -20.0001 129.949 238.84 129.949 462.373 c 4
 129.949 845.182 373.346 1007.06 605.469 1007.06 c 4
570.328 864.734 m 4
 385.844 864.734 299.385 700.288 297 541 c 5
 813 541 l 5
 813.179 547.489 813.271 553.984 813.271 560.479 c 4
 813.271 825.046 667.506 864.734 570.328 864.734 c 4
EndSplineSet
Fore
SplineSet
966 982 m 0xb0
 1221 982 1288 861 1288 721 c 0
 1288 639 1265 550 1244 475 c 1
 1212 365 l 1
 488 365 l 1
 489 282 583 193 806 193 c 0xb0
 895 193 982 211 1040 227 c 1
 1083 238 l 1
 1077 49 l 1
 1038 37 l 1x70
 944 7 818 -20 675 -20 c 0
 334 -20 232 127 232 296 c 0
 232 347 241 400 256 452 c 0
 362 822 682 982 966 982 c 0xb0
862 758 m 0
 704 758 593 670 549 571 c 1
 1036 571 l 1
 1040 592 1043 610 1043 627 c 0
 1043 724 971 758 862 758 c 0
EndSplineSet
Validated: 1
EndChar

StartChar: h
Encoding: 104 104 3
Width: 1328
VWidth: 2097
Flags: HW
LayerCount: 2
Back
SplineSet
618.128 860.24 m 4
 565.303 860.24 474.111 845.672 354 782.879 c 5
 354 0 l 5
 190 0 l 5
 190 1511 l 5
 354 1511 l 5
 354 913.032 l 5
 420.147 948.051 550.596 1006.4 681.659 1006.4 c 4
 796.461 1006.4 990.379 957.141 1009.05 678.574 c 4
 1010.96 649.997 1011.45 621.363 1011.45 592.717 c 4
 1011.45 570.812 1011.16 548.9 1011 527 c 6
 1007 0 l 5
 843 0 l 5
 842 595 l 6
 841.889 660.702 843.394 801.374 698.413 848.323 c 4
 672.518 856.709 645.387 860.24 618.128 860.24 c 4
EndSplineSet
Fore
SplineSet
901 753 m 4
 852 753 763 745 632 700 c 5
 431 0 l 5
 185 0 l 5
 619 1511 l 5
 865 1511 l 5
 693 912 l 5
 787 945 918 981 1042 981 c 4
 1278 981 1336 865 1336 743 c 0
 1336 673 1317 602 1301 548 c 6
 1144 0 l 5
 900 0 l 5
 1060 559 l 6
 1065 575 1072 601 1072 629 c 0
 1072 687 1042 753 901 753 c 4
EndSplineSet
Validated: 1
EndChar

StartChar: i
Encoding: 105 105 4
Width: 606
VWidth: 2097
Flags: HW
LayerCount: 2
Fore
SplineSet
572 1421 m 5xf0
 848 1421 l 5
 771 1150 l 5
 495 1150 l 5
 572 1421 l 5xf0
463 988 m 5xe8
 709 988 l 5
 426 0 l 5
 180 0 l 5
 463 988 l 5xe8
EndSplineSet
Validated: 1
EndChar

StartChar: n
Encoding: 110 110 5
Width: 1314
VWidth: 2097
Flags: HW
LayerCount: 2
Back
SplineSet
180 988 m 1
 295 988 l 1
 331 904 l 1
 485 988 604 1008 679 1008 c 0
 961 1008 997 788 997 589 c 2
 997 0 l 25
 832 0 l 1
 832 595 l 2
 832 657 835 860 608 860 c 0
 515 860 417 821 344 783 c 1
 344 0 l 1
 180 0 l 1
 180 988 l 1
EndSplineSet
Fore
SplineSet
452 963 m 5xb8
 624 963 l 5xb8
 638 895 l 5
 820 965 953 983 1040 983 c 4
 1262 983 1325 882 1325 756 c 0
 1325 697 1311 632 1293 569 c 6
 1130 0 l 5
 884 0 l 5
 1045 562 l 6
 1051 584 1058 611 1058 638 c 0
 1058 696 1027 753 891 753 c 4xd8
 795 753 687 722 622 700 c 5
 422 0 l 5
 176 0 l 5
 452 963 l 5xb8
EndSplineSet
Validated: 1
EndChar

StartChar: o
Encoding: 111 111 6
Width: 1359
VWidth: 2097
Flags: HW
LayerCount: 2
Fore
SplineSet
964 982 m 4
 1226 982 1392 865 1392 649 c 0
 1392 603 1385 553 1369 499 c 4
 1277 178 999 -20 658 -20 c 4
 394 -20 238 103 238 316 c 0
 238 364 246 416 262 472 c 4
 352 785 621 982 964 982 c 4
885 760 m 4
 741 760 562 674 511 496 c 4
 503 467 499 439 499 413 c 0
 499 291 587 202 743 202 c 4
 909 202 1071 305 1119 471 c 4
 1128 501 1132 529 1132 554 c 0
 1132 692 1012 760 885 760 c 4
EndSplineSet
Validated: 1
EndChar

StartChar: s
Encoding: 115 115 7
Width: 1169
VWidth: 2097
Flags: HW
LayerCount: 2
Fore
SplineSet
877 290 m 1xb8
 877 292 878 295 878 297 c 0
 878 401 348 378 348 625 c 0
 348 643 351 662 357 683 c 0
 391 801 552 982 974 982 c 0xb8
 1126 982 1181 961 1243 940 c 1
 1281 928 l 1
 1155 727 l 1
 1120 736 l 1xd8
 1061 754 996 772 882 772 c 0
 667 772 622 697 615 674 c 0
 614 671 614 668 614 666 c 0
 614 571 1147 573 1147 336 c 0
 1147 320 1144 302 1139 284 c 0
 1103 158 960 -20 536 -20 c 0
 439 -20 310 -3 180 58 c 2
 148 73 l 1
 277 269 l 1
 310 255 l 1
 425 208 510 191 604 191 c 0
 773 191 858 223 877 290 c 1xb8
EndSplineSet
Validated: 1
EndChar

StartChar: bar
Encoding: 124 124 8
Width: 884
VWidth: 2097
Flags: HW
LayerCount: 2
Fore
SplineSet
790 1642 m 1
 1036 1642 l 1
 465 -349 l 1
 219 -349 l 1
 790 1642 l 1
EndSplineSet
Validated: 1
EndChar

StartChar: b
Encoding: 98 98 9
Width: 1333
VWidth: 2097
Flags: HW
LayerCount: 2
Fore
SplineSet
619 1511 m 1x7c
 865 1511 l 1
 701 939 l 1
 783 965 876 983 972 983 c 0
 1168 983 1368 905 1368 662 c 0
 1368 612 1359 556 1341 492 c 0
 1249 170 982 -20 650 -20 c 0xbc
 542 -20 450 4 390 32 c 1
 367 0 l 1
 185 0 l 1
 619 1511 l 1x7c
843 765 m 0
 785 765 718 757 642 734 c 1
 494 219 l 1
 541 205 607 191 682 191 c 0
 817 191 1027 240 1092 467 c 0
 1103 506 1108 539 1108 569 c 0
 1108 732 956 765 843 765 c 0
EndSplineSet
Validated: 1
EndChar

StartChar: l
Encoding: 108 108 10
Width: 646
VWidth: 2097
Flags: HW
LayerCount: 2
Fore
SplineSet
633 1511 m 1
 879 1511 l 1
 446 0 l 1
 200 0 l 1
 633 1511 l 1
EndSplineSet
Validated: 1
EndChar

StartChar: w
Encoding: 119 119 11
Width: 1891
VWidth: 2097
Flags: HW
LayerCount: 2
Back
SplineSet
1450 988 m 1
 1625 988 l 1
 1893 159 l 1
 2147 988 l 1
 2308 988 l 1
 2572 160 l 1
 2840 988 l 1
 3015 988 l 1
 2654 0 l 1
 2489 0 l 1
 2226 801 l 1
 1966 0 l 1
 1801 0 l 1
 1450 988 l 1
EndSplineSet
Fore
SplineSet
335 963 m 1
 591 963 l 1
 617 249 l 1
 1122 963 l 1
 1337 963 l 1
 1360 247 l 1
 1877 963 l 1
 2141 963 l 1
 1397 0 l 1
 1179 0 l 1
 1150 692 l 1
 647 0 l 1
 429 0 l 1
 335 963 l 1
EndSplineSet
Validated: 1
EndChar

StartChar: exclam
Encoding: 33 33 12
Width: 650
VWidth: 2097
Flags: HW
LayerCount: 2
Fore
SplineSet
253 241 m 1xc0
 535 241 l 1
 454 -41 l 1
 172 -41 l 1
 253 241 l 1xc0
618 1462 m 1xa0
 870 1462 l 1
 571 417 l 1
 319 417 l 1
 618 1462 l 1xa0
EndSplineSet
Validated: 1
EndChar

StartChar: u
Encoding: 117 117 14
Width: 1328
VWidth: 2097
Flags: HW
LayerCount: 2
Fore
SplineSet
1174 963 m 1xb8
 1420 963 l 1
 1144 0 l 1
 961 0 l 1x78
 951 67 l 1
 772 -3 635 -20 546 -20 c 0
 320 -20 257 82 257 209 c 0
 257 268 270 332 288 394 c 2
 452 963 l 1
 698 963 l 1
 536 400 l 2
 530 380 524 354 524 327 c 0
 524 269 555 209 697 209 c 0
 795 209 906 240 973 262 c 1
 1174 963 l 1xb8
EndSplineSet
Validated: 1
EndChar

StartChar: p
Encoding: 112 112 15
Width: 1327
VWidth: 2097
Flags: HW
LayerCount: 2
Fore
SplineSet
971 982 m 0xd8
 1165 982 1362 904 1362 662 c 0
 1362 612 1353 555 1335 491 c 0
 1243 170 976 -20 651 -20 c 0
 565 -20 495 -6 436 14 c 1
 279 -531 l 1
 23 -531 l 1
 452 963 l 1
 634 963 l 1xb8
 643 916 l 1
 764 963 878 982 971 982 c 0xd8
844 764 m 0xd8
 786 764 717 755 641 731 c 1
 495 220 l 1
 542 206 607 191 682 191 c 0
 814 191 1021 241 1086 467 c 0
 1097 506 1102 540 1102 570 c 0
 1102 731 955 764 844 764 c 0xd8
EndSplineSet
Validated: 1
EndChar

StartChar: q
Encoding: 113 113 16
Width: 1316
VWidth: 2097
Flags: HW
LayerCount: 2
Fore
SplineSet
938 983 m 0xd8
 983 983 1070 981 1204 920 c 1
 1235 963 l 1
 1410 963 l 5xb8
 981 -531 l 5
 735 -531 l 1
 895 26 l 1
 815 0 721 -20 624 -20 c 0
 425 -20 234 61 234 301 c 0
 234 352 242 410 261 476 c 0
 359 819 661 983 938 983 c 0xd8
889 768 m 0xd8
 708 768 557 664 507 490 c 0
 497 453 492 421 492 393 c 0
 492 234 639 198 751 198 c 0
 809 198 878 208 954 232 c 1
 1097 732 l 1
 1004 761 935 768 889 768 c 0xd8
EndSplineSet
Validated: 1
EndChar

StartChar: m
Encoding: 109 109 17
Width: 1958
VWidth: 2097
Flags: HW
LayerCount: 2
Fore
SplineSet
865 749 m 0xdc
 817 749 757 742 621 697 c 1
 422 0 l 1
 176 0 l 1
 452 963 l 1
 635 963 l 1xbc
 644 898 l 1
 731 935 874 982 1011 982 c 0
 1159 982 1219 925 1247 883 c 1
 1350 931 1504 981 1666 981 c 0
 1890 981 1963 887 1963 751 c 0
 1963 697 1951 636 1933 572 c 2
 1770 0 l 1
 1524 0 l 1
 1685 564 l 2
 1692 590 1696 614 1696 635 c 0
 1696 708 1650 749 1535 749 c 0
 1459 749 1367 724 1285 697 c 1
 1280 652 1268 607 1255 561 c 2
 1095 0 l 1
 849 0 l 1
 1011 568 l 2
 1018 594 1022 616 1022 635 c 0
 1022 731 939 749 865 749 c 0xdc
EndSplineSet
Validated: 1
EndChar

StartChar: c
Encoding: 99 99 18
Width: 1147
VWidth: 2097
Flags: HW
LayerCount: 2
Fore
SplineSet
259 461 m 0
 371 853 686 981 980 981 c 0
 1098 981 1190 959 1269 919 c 2
 1299 904 l 1
 1180 711 l 1
 1146 724 l 2
 1088 746 1024 758 943 758 c 0
 763 758 570 705 509 491 c 0
 499 455 494 424 494 395 c 0
 494 253 614 197 804 197 c 0
 871 197 931 208 991 227 c 1
 1033 239 l 1
 1045 52 l 1
 1004 38 l 1
 883 -5 771 -20 671 -20 c 0
 441 -20 233 53 233 296 c 0
 233 344 241 399 259 461 c 0
EndSplineSet
Validated: 1
EndChar

StartChar: t
Encoding: 116 116 19
Width: 924
VWidth: 2097
Flags: HW
LayerCount: 2
Back
SplineSet
838 18 m 6
 722 -12 649 -20 592 -20 c 4
 266 -20 203 142 203 317 c 6
 203 777 l 5
 70 777 l 5
 70 988 l 5
 203 988 l 5
 203 1271 l 5
 496 1271 l 5
 496 988 l 5
 832 988 l 5
 832 777 l 5
 496 777 l 5
 496 334 l 6
 496 274 505 190 652 190 c 4
 678 190 691 192 798 210 c 6
 837 217 l 5
 876 28 l 5
 838 18 l 6
EndSplineSet
Fore
SplineSet
828 18 m 6
 705 -12 631 -20 575 -20 c 4
 345 -20 281 61 281 169 c 0
 281 212 291 259 305 307 c 6
 433 752 l 5
 284 752 l 5
 344 963 l 5
 494 963 l 5
 582 1271 l 5
 828 1271 l 5
 740 963 l 5
 1094 963 l 5
 1033 752 l 5
 679 752 l 5
 557 328 l 6
 554 316 552 303 552 290 c 0
 552 240 583 190 696 190 c 4
 721 190 735 192 844 209 c 5
 884 216 l 5
 868 28 l 5
 828 18 l 6
EndSplineSet
Validated: 1
EndChar

StartChar: r
Encoding: 114 114 20
Width: 933
VWidth: 2097
Flags: HW
LayerCount: 2
Fore
SplineSet
630 910 m 5xb0
 731 952 852 982 976 982 c 4
 1044 982 1110 969 1165 939 c 6
 1194 923 l 5
 1060 720 l 5
 1026 734 l 6
 985 751 941 760 885 760 c 4xd0
 800 760 709 744 626 715 c 5
 422 0 l 5
 176 0 l 5
 452 963 l 5
 616 963 l 5
 630 910 l 5xb0
EndSplineSet
Validated: 1
EndChar

StartChar: v
Encoding: 118 118 21
Width: 1144
VWidth: 2097
Flags: HW
LayerCount: 2
Back
SplineSet
918 988 m 5
 571 0 l 5
 411 0 l 5
 65 988 l 5
 235 988 l 5
 491 163 l 5
 748 988 l 5
 918 988 l 5
EndSplineSet
Fore
SplineSet
1388 963 m 1
 726 0 l 1
 467 0 l 1
 340 963 l 1
 624 963 l 1
 676 254 l 1
 1130 963 l 1
 1388 963 l 1
EndSplineSet
Validated: 1
EndChar

StartChar: k
Encoding: 107 107 22
Width: 1225
VWidth: 2097
Flags: HW
LayerCount: 2
Fore
SplineSet
591 591 m 1xf4
 1173 1008 l 1
 1470 1008 l 1xf8
 835 556 l 1
 1196 0 l 1
 894 0 l 1
 563 492 l 1
 422 0 l 1
 176 0 l 1
 609 1511 l 1
 855 1511 l 1
 591 591 l 1xf4
EndSplineSet
Validated: 1
EndChar

StartChar: j
Encoding: 106 106 23
Width: 601
VWidth: 2097
Flags: HW
LayerCount: 2
Fore
SplineSet
582 1421 m 1xe0
 858 1421 l 1
 780 1150 l 1
 504 1150 l 1
 582 1421 l 1xe0
473 988 m 1xd0
 719 988 l 1
 408 -96 l 2
 372 -223 303 -430 -7 -532 c 1
 -44 -544 l 1
 -83 -350 l 1
 -41 -332 l 2
 107 -269 142 -166 157 -113 c 2
 473 988 l 1xd0
EndSplineSet
Validated: 1
EndChar

StartChar: x
Encoding: 120 120 24
Width: 1205
VWidth: 2097
Flags: HW
LayerCount: 2
Fore
SplineSet
340 963 m 1xf0
 630 963 l 1
 821 611 l 1
 1203 963 l 1
 1480 963 l 1xe8
 934 473 l 1
 1184 0 l 1
 893 0 l 1
 710 332 l 1
 351 0 l 1
 75 0 l 1
 600 474 l 1
 340 963 l 1xf0
EndSplineSet
Validated: 1
EndChar

StartChar: z
Encoding: 122 122 25
Width: 1218
VWidth: 2097
Flags: HW
LayerCount: 2
Fore
SplineSet
422 963 m 1
 1317 963 l 1
 1280 836 l 1
 550 211 l 1
 1125 211 l 1
 1065 0 l 1
 146 0 l 1
 183 127 l 1
 905 752 l 1
 362 752 l 1
 422 963 l 1
EndSplineSet
Validated: 1
EndChar

StartChar: y
Encoding: 121 121 26
Width: 1214
VWidth: 2097
Flags: HW
LayerCount: 2
Back
SplineSet
50 988 m 5
 220 988 l 5
 536 150 l 5
 830 988 l 5
 1000 988 l 5
 430 -531 l 5
 255 -531 l 5
 458 -38 l 5
 50 988 l 5
EndSplineSet
Fore
SplineSet
325 963 m 1xd0
 607 963 l 1xd0
 716 217 l 1
 1218 963 l 1
 1477 963 l 1
 416 -531 l 1
 116 -531 l 1xb0
 508 -17 l 1
 325 963 l 1xd0
EndSplineSet
Validated: 1
EndChar

StartChar: f
Encoding: 102 102 27
Width: 960
VWidth: 2097
Flags: HW
LayerCount: 2
Back
SplineSet
662.157 1291.8 m 4
 431.356 1291.8 443.949 1109.72 444 1082 c 6
 444.174 988 l 5
 775 988 l 5
 775 859 l 5
 444.412 859 l 5
 446 0 l 5
 280 0 l 5
 278.421 859 l 5
 135 859 l 5
 135 988 l 5
 278.184 988 l 5
 278 1088 l 6
 277.996 1090.19 277.993 1092.38 277.993 1094.57 c 4
 277.993 1152.47 279.945 1221.25 316.561 1285.61 c 4
 369.047 1377.87 474.406 1428.95 607.663 1428.95 c 4
 695.469 1428.95 784.548 1408.42 845 1390 c 5
 820 1268 l 5
 789.45 1276.44 725.294 1291.8 662.157 1291.8 c 4
EndSplineSet
Fore
SplineSet
585 1026 m 6
 630 1183 704 1429 1113 1429 c 4
 1169 1429 1251 1424 1359 1388 c 6
 1392 1377 l 5
 1293 1173 l 5
 1255 1184 l 6
 1229 1192 1176 1210 1118 1210 c 4
 952 1210 864 1141 834 1037 c 6
 813 963 l 5
 1198 963 l 5
 1137 752 l 5
 752 752 l 5
 492 -156 l 6
 450 -302 380 -531 -29 -531 c 4
 -85 -531 -167 -526 -275 -491 c 5
 -307 -480 l 5
 -211 -284 l 5
 -173 -294 l 6
 -147 -301 -93 -316 -35 -316 c 4
 131 -316 218 -255 244 -163 c 6
 506 752 l 5
 347 752 l 5
 408 963 l 5
 567 963 l 5
 585 1026 l 6
EndSplineSet
Validated: 1
EndChar

StartChar: G
Encoding: 71 71 28
Width: 1755
VWidth: 2097
Flags: HW
LayerCount: 2
Fore
SplineSet
1664 206 m 1
 1594 148 1384 -20 1007 -20 c 0
 556 -20 387 220 387 495 c 0
 387 565 398 638 418 709 c 0
 525 1081 890 1432 1421 1432 c 0
 1631 1432 1792 1373 1893 1306 c 2
 1923 1286 l 1
 1761 1088 l 1
 1730 1107 l 1
 1662 1147 1523 1200 1364 1200 c 0
 1083 1200 761 1023 674 719 c 0
 660 672 654 627 654 584 c 0
 654 362 833 213 1118 213 c 0
 1252 213 1360 247 1443 296 c 1
 1521 569 l 1
 1076 569 l 1
 1140 791 l 1
 1832 791 l 1
 1664 206 l 1
EndSplineSet
Validated: 1
EndChar

StartChar: H
Encoding: 72 72 29
Width: 1764
VWidth: 2097
Flags: HW
LayerCount: 2
Fore
SplineSet
1709 1421 m 1
 1961 1421 l 1
 1554 0 l 1
 1302 0 l 1
 1479 617 l 1
 719 617 l 1
 542 0 l 1
 290 0 l 1
 697 1421 l 1
 949 1421 l 1
 785 849 l 1
 1545 849 l 1
 1709 1421 l 1
EndSplineSet
Validated: 1
EndChar

StartChar: g
Encoding: 103 103 30
Width: 1326
VWidth: 2097
Flags: HW
LayerCount: 2
Back
SplineSet
587.127 1007.7 m 4xec
 641.624 1007.7 722.789 998.642 859.614 929.078 c 5
 881 988 l 5
 996 988 l 5xdc
 996 -48 l 6
 996 -128.017 1007.4 -430.092 668 -521 c 4
 616.294 -534.849 563.01 -541.189 509.54 -541.189 c 4
 402.576 -541.189 295.375 -515.422 204 -477 c 5
 250 -358 l 5
 334.061 -389.288 416.378 -404.158 487.891 -404.343 c 6
 489.226 -404.345 l 6
 587.574 -404.345 799.75 -373.583 827.486 -118.497 c 4
 831.707 -79.6752 832.008 -40.5671 832.008 -1.49561 c 6
 832 47.6156 l 5
 762.253 10.4786 670.297 -19.5908 570.654 -19.5908 c 4
 365.337 -19.5908 128.208 113.006 128.208 491.3 c 4
 128.208 892.231 419.898 1007.7 587.127 1007.7 c 4xec
597.112 874.842 m 4xec
 411.619 874.842 287.956 729.858 287.956 509.664 c 4
 287.956 294.207 396.676 115.331 617.254 115.331 c 4
 703.153 115.331 779.649 143.936 832 171.839 c 5
 832 819.298 l 5
 699.685 873.617 620.251 874.842 597.112 874.842 c 4xec
EndSplineSet
Fore
SplineSet
949 983 m 0xec
 993 983 1081 981 1207 920 c 1
 1235 963 l 1
 1420 963 l 1xdc
 1135 -29 l 2
 1069 -259 885 -541 427 -541 c 0
 326 -541 201 -524 89 -474 c 1
 57 -458 l 1
 188 -264 l 1
 224 -279 l 1
 278 -299 363 -322 464 -322 c 0
 817 -322 875 -66 905 25 c 1
 826 -1 735 -20 643 -20 c 0
 433 -20 236 71 236 313 c 0
 236 362 244 417 262 479 c 0
 372 862 734 983 949 983 c 0xec
900 768 m 0xec
 720 768 569 663 521 495 c 0
 512 462 507 430 507 401 c 0
 507 282 585 197 759 197 c 0
 834 197 907 214 964 232 c 1
 1107 732 l 1
 1015 761 945 768 900 768 c 0xec
EndSplineSet
Validated: 1
EndChar

StartChar: O
Encoding: 79 79 31
Width: 1850
VWidth: 2097
Flags: HW
LayerCount: 2
Fore
SplineSet
1378 1436 m 4
 1733 1436 1957 1254 1957 947 c 0
 1957 879 1946 805 1923 726 c 4
 1797 285 1404 -15 954 -15 c 4
 635 -15 383 148 383 477 c 0
 383 546 394 623 418 707 c 4
 546 1152 938 1436 1378 1436 c 4
1302 1205 m 4
 1069 1205 777 1061 681 727 c 4
 664 668 656 614 656 564 c 0
 656 346 809 216 1035 216 c 4
 1264 216 1560 361 1660 709 c 4
 1677 768 1685 821 1685 869 c 0
 1685 1105 1495 1205 1302 1205 c 4
EndSplineSet
Validated: 1
EndChar

StartChar: A
Encoding: 65 65 32
Width: 1547
VWidth: 2097
Flags: HW
LayerCount: 2
Fore
SplineSet
1100 1421 m 1
 1376 1421 l 1
 1531 0 l 1
 1272 0 l 1
 1220 372 l 1
 640 372 l 1
 374 0 l 1
 130 0 l 1
 1100 1421 l 1
1198 603 m 1
 1147 1130 l 1
 793 603 l 1
 1198 603 l 1
EndSplineSet
Validated: 1
EndChar

StartChar: L
Encoding: 76 76 33
Width: 1297
VWidth: 2097
Flags: HW
LayerCount: 2
Fore
SplineSet
697 1421 m 1
 949 1421 l 1
 608 231 l 1
 1328 231 l 1
 1262 0 l 1
 290 0 l 1
 697 1421 l 1
EndSplineSet
Validated: 1
EndChar

StartChar: E
Encoding: 69 69 34
Width: 1447
VWidth: 2097
Flags: HW
LayerCount: 2
Fore
SplineSet
290 0 m 1
 697 1421 l 1
 1694 1421 l 1
 1628 1189 l 1
 884 1189 l 1
 786 848 l 1
 1475 848 l 1
 1409 616 l 1
 720 616 l 1
 610 232 l 1
 1354 232 l 1
 1287 0 l 1
 290 0 l 1
EndSplineSet
Validated: 1
EndChar

StartChar: F
Encoding: 70 70 35
Width: 1412
VWidth: 2097
Flags: HW
LayerCount: 2
Fore
SplineSet
884 1189 m 1
 786 848 l 1
 1460 848 l 1
 1394 616 l 1
 720 616 l 1
 543 0 l 1
 290 0 l 1
 697 1421 l 1
 1684 1421 l 1
 1618 1189 l 1
 884 1189 l 1
EndSplineSet
Validated: 1
EndChar

StartChar: N
Encoding: 78 78 36
Width: 1823
VWidth: 2097
Flags: HW
LayerCount: 2
Fore
SplineSet
697 1421 m 1
 975 1421 l 1
 1455 329 l 1
 1768 1421 l 1
 2020 1421 l 1
 1613 0 l 1
 1332 0 l 1
 856 1094 l 1
 542 0 l 1
 290 0 l 1
 697 1421 l 1
EndSplineSet
Validated: 1
EndChar

StartChar: V
Encoding: 86 86 37
Width: 1565
VWidth: 2097
Flags: HW
LayerCount: 2
Fore
SplineSet
547 1421 m 1
 836 1421 l 1
 925 271 l 1
 1671 1421 l 1
 1945 1421 l 1
 988 0 l 1
 689 0 l 1
 547 1421 l 1
EndSplineSet
Validated: 1
EndChar

StartChar: Z
Encoding: 90 90 38
Width: 1522
VWidth: 2097
Flags: HW
LayerCount: 2
Fore
SplineSet
592 1421 m 1
 1842 1421 l 1
 1799 1268 l 1
 584 232 l 1
 1529 232 l 1
 1462 0 l 1
 155 0 l 1
 199 155 l 1
 1393 1189 l 1
 526 1189 l 1
 592 1421 l 1
EndSplineSet
Validated: 1
EndChar

StartChar: T
Encoding: 84 84 39
Width: 1374
VWidth: 2097
Flags: HW
LayerCount: 2
Fore
SplineSet
492 1421 m 5
 1776 1421 l 5
 1710 1189 l 5
 1194 1189 l 5
 853 0 l 5
 601 0 l 5
 942 1189 l 5
 426 1189 l 5
 492 1421 l 5
EndSplineSet
Validated: 1
EndChar

StartChar: I
Encoding: 73 73 40
Width: 812
VWidth: 2097
Flags: HW
LayerCount: 2
Fore
SplineSet
727 1421 m 1
 979 1421 l 1
 572 0 l 1
 320 0 l 1
 727 1421 l 1
EndSplineSet
Validated: 1
EndChar

StartChar: X
Encoding: 88 88 41
Width: 1532
VWidth: 2097
Flags: HW
LayerCount: 2
Fore
SplineSet
1632 1421 m 1xd8
 1927 1421 l 1xd8
 1233 744 l 1
 1575 0 l 1
 1256 0 l 1
 1000 566 l 1
 420 0 l 1
 110 0 l 1xe4
 885 741 l 1
 579 1421 l 1
 883 1421 l 1
 1121 919 l 1
 1632 1421 l 1xd8
EndSplineSet
Validated: 1
EndChar

StartChar: Y
Encoding: 89 89 42
Width: 1427
VWidth: 2097
Flags: HW
LayerCount: 2
Fore
SplineSet
507 1421 m 1
 805 1421 l 1
 1027 870 l 1
 1573 1421 l 1
 1861 1421 l 1
 1099 664 l 1
 909 0 l 1
 626 0 l 1
 816 664 l 1
 507 1421 l 1
EndSplineSet
Validated: 1
EndChar

StartChar: K
Encoding: 75 75 43
Width: 1581
VWidth: 2097
Flags: HW
LayerCount: 2
Fore
SplineSet
763 770 m 1xe8
 1597 1421 l 1
 1920 1421 l 1xf0
 1042 741 l 1
 1549 0 l 1
 1222 0 l 1
 739 688 l 1
 542 0 l 1
 290 0 l 1
 697 1421 l 1
 949 1421 l 1
 763 770 l 1xe8
EndSplineSet
Validated: 1
EndChar

StartChar: M
Encoding: 77 77 44
Width: 2048
VWidth: 2097
Flags: HW
LayerCount: 2
Fore
SplineSet
697 1421 m 1
 1003 1421 l 1
 1241 605 l 1
 1954 1421 l 1
 2245 1421 l 1
 1838 0 l 1
 1586 0 l 1
 1891 1063 l 1
 1299 407 l 1
 1061 407 l 1
 847 1063 l 1
 542 0 l 1
 290 0 l 1
 697 1421 l 1
EndSplineSet
Validated: 1
EndChar

StartChar: hyphen
Encoding: 45 45 45
Width: 1210
VWidth: 2097
Flags: HW
LayerCount: 2
Fore
SplineSet
355 769 m 1
 1297 769 l 1
 1233 548 l 1
 291 548 l 1
 355 769 l 1
EndSplineSet
Validated: 1
EndChar

StartChar: J
Encoding: 74 74 46
Width: 1117
VWidth: 2097
Flags: HW
LayerCount: 2
Fore
SplineSet
1069 1421 m 1xb0
 1321 1421 l 1
 1061 511 l 2
 997 288 851 -17 349 -17 c 0xb0
 280 -17 212 -9 150 8 c 2
 115 18 l 1
 221 240 l 1x70
 260 230 l 2
 299 220 344 215 388 215 c 0
 710 215 783 424 809 513 c 2
 1069 1421 l 1xb0
EndSplineSet
Validated: 1
EndChar

StartChar: R
Encoding: 82 82 47
Width: 1601
VWidth: 2097
Flags: HW
LayerCount: 2
Fore
SplineSet
1682 1014 m 0xf8
 1632 840 1501 664 1250 594 c 1
 1509 0 l 1
 1181 0 l 5xf4
 941 551 l 1
 700 551 l 1
 542 0 l 1
 290 0 l 1
 697 1421 l 1
 1302 1421 l 2
 1450 1421 1704 1401 1704 1155 c 0
 1704 1114 1697 1068 1682 1014 c 0xf8
883 1190 m 1
 767 783 l 1
 999 783 l 2
 1177 783 1359 807 1412 991 c 0xf8
 1418 1012 1421 1031 1421 1049 c 0
 1421 1144 1334 1190 1162 1190 c 2
 883 1190 l 1
EndSplineSet
Validated: 1
EndChar

StartChar: D
Encoding: 68 68 48
Width: 1770
VWidth: 0
Flags: HW
LayerCount: 2
Back
SplineSet
290 1421 m 5
 687 1421 l 6
 796.369 1421 1446.05 1452.36 1446.05 753.511 c 4
 1446.05 -41.9381 783.275 0 598 0 c 6
 290 0 l 5
 290 1421 l 5
460 1271 m 5
 460 150 l 5
 667 150 l 6
 898.567 150 1275.42 187.855 1275.42 719.535 c 4
 1275.42 955.503 1167.54 1271 736 1271 c 6
 460 1271 l 5
EndSplineSet
Fore
SplineSet
1150 1189 m 2
 891 1189 l 1
 617 232 l 1
 800 232 l 2
 975 232 1227 237 1419 452 c 0
 1460 499 1525 586 1563 719 c 0
 1578 773 1585 821 1585 864 c 0
 1585 1066 1435 1160 1286 1182 c 0
 1245 1188 1198 1189 1150 1189 c 2
1209 1421 m 2
 1709 1421 1859 1206 1859 964 c 0
 1859 894 1846 822 1826 752 c 0
 1743 463 1531 125 1080 31 c 0
 936 0 799 0 666 0 c 2
 298 0 l 5
 705 1421 l 5
 1209 1421 l 2
EndSplineSet
Validated: 1
EndChar

StartChar: P
Encoding: 80 80 49
Width: 1503
VWidth: 2097
Flags: HW
LayerCount: 2
Fore
SplineSet
697 1421 m 1
 1207 1421 l 2
 1387 1421 1709 1415 1709 1148 c 0
 1709 1111 1703 1069 1689 1021 c 0
 1565 588 1165 548 822 548 c 0
 780 548 740 550 700 552 c 1
 542 0 l 1
 290 0 l 1
 697 1421 l 1
883 1189 m 1
 767 784 l 1
 813 781 859 779 906 779 c 0
 1145 779 1368 798 1424 994 c 0
 1430 1014 1432 1032 1432 1048 c 0
 1432 1173 1270 1189 1090 1189 c 2
 883 1189 l 1
EndSplineSet
Validated: 1
EndChar

StartChar: B
Encoding: 66 66 50
Width: 1588
VWidth: 2097
Flags: HW
LayerCount: 2
Fore
SplineSet
1122 1209 m 2xf8
 889 1209 l 1
 776 815 l 1
 1008 820 1303 820 1363 1030 c 0
 1367 1045 1370 1061 1370 1077 c 0
 1370 1141 1324 1209 1122 1209 c 2xf8
979 655 m 0
 954 655 927 653 727 644 c 1
 609 232 l 1
 833 232 l 2
 969 232 1278 235 1335 434 c 0xf4
 1340 450 1342 465 1342 479 c 0
 1342 590 1206 655 979 655 c 0
697 1421 m 1
 1239 1421 l 2
 1586 1421 1663 1271 1663 1148 c 0
 1663 1115 1657 1084 1650 1059 c 0xf8
 1623 964 1534 864 1446 803 c 1
 1548 756 1606 660 1606 547 c 0
 1606 514 1601 481 1591 446 c 0
 1552 311 1371 0 793 0 c 2
 290 0 l 1
 697 1421 l 1
EndSplineSet
Validated: 1
EndChar

StartChar: U
Encoding: 85 85 51
Width: 1737
VWidth: 2097
Flags: HW
LayerCount: 2
Back
SplineSet
290 1421 m 5
 460 1421 l 5
 460 500 l 6
 460 406.32 466.12 318.109 535 240 c 4
 567.144 203.55 653 127 830 127 c 4
 1016.35 127 1150.68 211.395 1188.01 362.124 c 4
 1199.13 407.024 1200 453.742 1200 500 c 6
 1200 1421 l 5
 1370 1421 l 5
 1370 620 l 6
 1370 575.023 1371.6 529.728 1371.6 484.603 c 4
 1371.6 320.874 1355.71 -21 830 -21 c 4
 417.595 -21 330.029 200.326 306 300 c 4
 291.452 360.349 288.395 422.305 288.395 484.585 c 4
 288.395 529.716 290 575.017 290 620 c 6
 290 1421 l 5
EndSplineSet
Fore
SplineSet
903 -20 m 4
 483 -20 396 142 396 292 c 0
 396 373 421 451 433 498 c 5
 697 1421 l 5
 949 1421 l 5
 691 520 l 6
 679 476 670 437 670 401 c 0
 670 365 678 332 702 302 c 4
 722 276 786 209 969 209 c 4
 1367 209 1416 491 1424 520 c 6
 1682 1421 l 5
 1932 1421 l 5
 1674 511 l 6
 1624 338 1497 -20 903 -20 c 4
EndSplineSet
Validated: 1
EndChar

StartChar: Q
Encoding: 81 81 52
Width: 1870
VWidth: 2097
Flags: HW
LayerCount: 2
Fore
SplineSet
1378 1436 m 0
 1794 1436 1953 1207 1953 936 c 0
 1953 697 1830 426 1649 248 c 1
 1784 75 l 1
 1594 -73 l 1
 1446 109 l 1
 1278 17 1107 -15 964 -15 c 0
 614 -15 382 162 382 477 c 0
 382 546 393 623 417 705 c 0
 546 1154 937 1436 1378 1436 c 0
1297 1205 m 0
 1073 1205 778 1066 680 723 c 0
 663 664 655 610 655 561 c 0
 655 334 826 216 1052 216 c 0
 1157 216 1244 243 1303 269 c 1
 1046 538 l 1
 1268 693 l 1
 1512 422 l 1
 1573 492 1619 579 1650 687 c 0
 1670 757 1679 818 1679 871 c 0
 1679 1133 1464 1205 1297 1205 c 0
EndSplineSet
Validated: 1
EndChar

StartChar: W
Encoding: 87 87 53
Width: 2411
VWidth: 2097
Flags: HW
LayerCount: 2
Fore
SplineSet
547 1421 m 1
 813 1421 l 1
 827 329 l 1
 1551 1421 l 1
 1783 1421 l 1
 1808 329 l 1
 2521 1421 l 1
 2787 1421 l 1
 1835 0 l 1
 1594 0 l 1
 1564 1087 l 1
 850 0 l 1
 609 0 l 1
 547 1421 l 1
EndSplineSet
Validated: 1
EndChar

StartChar: C
Encoding: 67 67 54
Width: 1615
VWidth: 2097
Flags: HW
LayerCount: 2
Fore
SplineSet
1495 1431 m 0
 1618 1431 1765 1411 1898 1352 c 1
 1930 1337 l 1
 1789 1121 l 1
 1755 1134 l 1
 1607 1189 1494 1199 1423 1199 c 0
 1081 1199 805 965 732 710 c 0
 720 667 713 624 713 584 c 0
 713 377 875 218 1183 218 c 0
 1284 218 1406 237 1527 276 c 2
 1568 289 l 1
 1593 89 l 1
 1551 73 l 2
 1384 9 1211 -20 1066 -20 c 0
 651 -20 445 195 445 492 c 0
 445 560 456 634 478 709 c 0
 596 1119 983 1431 1495 1431 c 0
EndSplineSet
Validated: 1
EndChar

StartChar: S
Encoding: 83 83 55
Width: 1525
VWidth: 2097
Flags: HW
LayerCount: 2
Fore
SplineSet
1338 1434 m 0xb8
 1504 1434 1642 1399 1714 1375 c 1
 1752 1363 l 1
 1603 1131 l 1
 1568 1142 l 1xd8
 1434 1182 1322 1192 1253 1192 c 0
 1063 1192 878 1124 848 1021 c 0
 845 1011 844 1003 844 994 c 0
 844 799 1527 840 1527 498 c 0
 1527 471 1522 441 1513 409 c 0
 1458 217 1224 -20 751 -20 c 0
 550 -20 423 25 300 79 c 1
 267 93 l 1
 421 335 l 1
 456 320 l 1
 628 252 760 230 847 230 c 0
 1052 230 1211 298 1241 401 c 0
 1244 413 1246 424 1246 434 c 0
 1246 647 557 588 557 924 c 0
 557 950 561 979 570 1010 c 0
 637 1242 934 1434 1338 1434 c 0xb8
EndSplineSet
Validated: 1
EndChar

StartChar: at
Encoding: 64 64 56
Width: 2100
VWidth: 2097
Flags: HW
LayerCount: 2
Fore
SplineSet
1551 959 m 1xbf80
 1583 1009 l 1
 1766 1009 l 1
 1549 252 l 2
 1533 197 1523 154 1523 122 c 0
 1523 82 1539 61 1582 61 c 0
 1635 61 1795 143 1900 510 c 0
 1930 613 1948 711 1948 800 c 0
 1948 1033 1822 1197 1443 1197 c 0
 870 1197 601 736 516 438 c 0
 492 353 480 275 480 206 c 0
 480 -92 687 -244 947 -244 c 0
 1055 -244 1156 -217 1239 -181 c 1
 1280 -164 l 1
 1326 -354 l 1
 1284 -373 l 2
 1162 -428 1018 -468 858 -468 c 0
 626 -468 207 -376 207 95 c 0
 207 184 222 286 256 404 c 0
 392 880 763 1440 1555 1440 c 0
 2071 1440 2218 1197 2218 907 c 0
 2218 785 2192 654 2156 530 c 0
 1991 -44 1656 -156 1500 -156 c 0xdf80
 1382 -156 1302 -95 1279 -1 c 1
 1180 -44 1088 -61 1012 -61 c 0
 768 -61 664 92 664 283 c 0
 664 594 941 1003 1342 1003 c 0
 1428 1003 1498 983 1551 959 c 1xbf80
1306 799 m 0
 1142 799 991 686 930 475 c 0
 917 430 911 390 911 354 c 0
 911 219 998 150 1125 150 c 0xbf80
 1173 150 1230 160 1293 186 c 1
 1460 767 l 1
 1422 783 1368 799 1306 799 c 0
EndSplineSet
Validated: 1
EndChar

StartChar: question
Encoding: 63 63 57
Width: 1046
VWidth: 2097
Flags: HW
LayerCount: 2
Fore
SplineSet
339 241 m 1xe8
 621 241 l 1
 540 -41 l 1
 258 -41 l 1
 339 241 l 1xe8
1232 1097 m 0
 1110 672 745 728 649 392 c 1
 638 351 l 1
 386 351 l 1
 397 392 l 1xd8
 524 834 906 821 977 1069 c 0
 981 1083 984 1099 984 1116 c 0
 984 1180 941 1253 755 1253 c 0
 680 1253 576 1232 515 1209 c 2
 472 1193 l 1
 445 1389 l 1
 485 1406 l 1
 607 1459 732 1478 847 1478 c 0
 1097 1478 1250 1390 1250 1211 c 0
 1250 1176 1244 1138 1232 1097 c 0
EndSplineSet
Validated: 1
EndChar

StartChar: eight
Encoding: 56 56 58
Width: 1464
VWidth: 2097
Flags: HW
LayerCount: 2
Fore
SplineSet
1072 1215 m 0xd8
 933 1215 816 1134 794 1056 c 0
 791 1045 789 1034 789 1024 c 0
 789 929 926 885 1025 856 c 1
 1183 932 1258 979 1277 1047 c 0
 1281 1061 1283 1074 1283 1086 c 0
 1283 1172 1189 1215 1072 1215 c 0xd8
1181 438 m 0xe4
 1187 459 1190 479 1190 497 c 0
 1190 619 1062 681 906 724 c 1
 706 672 567 556 535 446 c 0
 530 430 528 415 528 399 c 0
 528 299 622 212 808 212 c 0
 1002 212 1146 317 1181 438 c 0xe4
1137 1440 m 0
 1427 1440 1559 1342 1559 1181 c 0
 1559 1148 1553 1111 1542 1073 c 0xd8
 1510 960 1425 875 1297 794 c 1
 1405 725 1452 635 1452 533 c 0
 1452 498 1446 462 1436 425 c 0
 1372 203 1115 -20 732 -20 c 0
 442 -20 252 109 252 307 c 0
 252 339 257 372 267 407 c 0xe4
 310 557 448 700 619 788 c 1
 547 848 526 923 526 987 c 0
 526 1021 532 1052 539 1077 c 0xd0
 596 1275 819 1440 1137 1440 c 0
EndSplineSet
Validated: 1
EndChar

StartChar: nine
Encoding: 57 57 59
Width: 1464
VWidth: 2097
Flags: HW
LayerCount: 2
Fore
SplineSet
1163 1441 m 0
 1350 1441 1571 1376 1571 1080 c 0
 1571 1010 1558 926 1530 828 c 0
 1342 172 891 -15 431 -15 c 0
 384 -15 343 -13 302 -9 c 2
 264 -5 l 1
 349 225 l 1
 389 221 l 2
 422 217 456 216 493 216 c 0
 918 216 1070 382 1160 557 c 1
 1051 506 935 483 832 483 c 0
 573 483 421 617 421 814 c 0
 421 853 427 895 440 939 c 0
 518 1211 813 1441 1163 1441 c 0
1075 1219 m 0
 911 1219 729 1087 691 955 c 0
 686 937 683 919 683 902 c 0
 683 788 794 705 939 705 c 0
 1109 705 1278 814 1315 944 c 0
 1320 961 1322 979 1322 997 c 0
 1322 1109 1228 1219 1075 1219 c 0
EndSplineSet
Validated: 1
EndChar

StartChar: six
Encoding: 54 54 60
Width: 1464
VWidth: 2097
Flags: HW
LayerCount: 2
Fore
SplineSet
1438 1432 m 0
 1485 1432 1525 1429 1566 1425 c 2
 1604 1421 l 1
 1520 1191 l 1
 1479 1195 l 2
 1445 1199 1412 1201 1376 1201 c 0
 984 1201 812 1052 719 898 c 1
 816 945 931 973 1049 973 c 0
 1333 973 1456 821 1456 635 c 0
 1456 345 1157 -25 708 -25 c 0
 519 -25 296 41 296 337 c 0
 296 406 308 488 336 584 c 0
 526 1245 977 1432 1438 1432 c 0
940 751 m 0
 770 751 604 647 560 495 c 0
 553 471 550 447 550 424 c 0
 550 303 638 197 793 197 c 0
 960 197 1139 328 1184 484 c 0
 1191 508 1194 531 1194 552 c 0
 1194 677 1081 751 940 751 c 0
EndSplineSet
Validated: 1
EndChar

StartChar: seven
Encoding: 55 55 61
Width: 1464
VWidth: 0
Flags: HW
LayerCount: 2
Fore
SplineSet
538 1421 m 1
 1740 1421 l 1
 1698 1272 l 1
 572 0 l 1
 282 0 l 1
 1344 1179 l 1
 469 1179 l 1
 538 1421 l 1
EndSplineSet
Validated: 1
EndChar

StartChar: five
Encoding: 53 53 62
Width: 1464
VWidth: 2097
Flags: HW
LayerCount: 2
Fore
SplineSet
650 1421 m 1
 1670 1421 l 1
 1604 1189 l 1
 839 1189 l 1
 764 929 l 1
 816 933 885 937 952 937 c 0
 1359 937 1464 763 1464 598 c 0
 1464 555 1457 512 1446 474 c 0
 1390 278 1178 -20 606 -20 c 0
 454 -20 329 -6 219 16 c 2
 180 24 l 1
 295 256 l 1
 333 247 l 1
 419 228 534 216 659 216 c 0
 1029 216 1151 361 1179 458 c 0
 1183 473 1186 488 1186 505 c 0
 1186 595 1112 703 821 703 c 0
 753 703 645 697 484 679 c 1
 436 674 l 1
 650 1421 l 1
EndSplineSet
Validated: 1
EndChar

StartChar: two
Encoding: 50 50 63
Width: 1464
VWidth: 0
Flags: HW
LayerCount: 2
Back
SplineSet
198 1319 m 5
 319.275 1379.23 478.892 1431.04 642.162 1431.04 c 4
 928.274 1431.04 1106.15 1263.63 1106.15 1065.06 c 4
 1106.15 707.484 594.973 631.805 431.873 150 c 5
 1132 150 l 5
 1132 0 l 5
 225 0 l 5
 225 93 l 5
 379.879 577.282 779.574 774.777 881.258 906.367 c 4
 904.567 936.531 928.699 978.695 928.699 1035.06 c 4
 928.699 1169.71 786.056 1284.22 609.645 1284.22 c 4
 525.318 1284.22 439.587 1256.78 398.827 1244.22 c 6
 237 1192 l 5
 198 1319 l 5
EndSplineSet
Fore
SplineSet
274 131 m 1
 636 706 1255 813 1311 1007 c 0
 1314 1018 1316 1029 1316 1039 c 0
 1316 1127 1209 1202 1045 1202 c 0
 941 1202 817 1182 625 1122 c 2
 583 1109 l 1
 565 1315 l 1
 606 1331 l 1
 756 1388 949 1431 1147 1431 c 0
 1441 1431 1595 1306 1595 1138 c 0
 1595 1110 1591 1080 1582 1050 c 0
 1483 704 950 627 627 232 c 1
 1374 232 l 1
 1307 0 l 1
 236 0 l 1
 274 131 l 1
EndSplineSet
Validated: 1
EndChar

StartChar: three
Encoding: 51 51 64
Width: 1464
VWidth: 2097
Flags: HW
LayerCount: 2
Fore
SplineSet
620 1332 m 2xf0
 728 1379 914 1438 1108 1438 c 0
 1373 1438 1532 1327 1532 1162 c 0
 1532 1136 1528 1109 1520 1080 c 0xf0
 1484 956 1393 847 1276 781 c 1
 1376 731 1417 651 1417 559 c 0
 1417 524 1412 487 1401 450 c 0
 1316 153 1005 -45 613 -45 c 0
 475 -45 341 -21 222 35 c 2
 190 50 l 1
 324 261 l 1
 358 251 l 1
 519 205 611 195 684 195 c 0
 893 195 1097 284 1136 419 c 0xe8
 1140 432 1142 446 1142 461 c 0
 1142 545 1062 643 723 643 c 2
 676 643 l 1
 742 871 l 1
 789 871 l 2
 1114 871 1226 980 1247 1052 c 0
 1250 1061 1251 1070 1251 1079 c 0
 1251 1151 1163 1202 1016 1202 c 0
 945 1202 820 1189 651 1123 c 1
 607 1105 l 1
 581 1315 l 1
 620 1332 l 2xf0
EndSplineSet
Validated: 1
EndChar

StartChar: one
Encoding: 49 49 65
Width: 1464
VWidth: 0
Flags: HW
LayerCount: 2
Fore
SplineSet
1072 1421 m 1
 1360 1421 l 1
 1019 231 l 1
 1363 231 l 1
 1297 0 l 1
 305 0 l 1
 371 231 l 1
 730 231 l 1
 1000 1173 l 1
 652 1065 l 1
 615 1272 l 1
 1072 1421 l 1
EndSplineSet
Validated: 1
EndChar

StartChar: zero
Encoding: 48 48 66
Width: 1464
VWidth: 2097
Flags: HW
LayerCount: 2
Fore
SplineSet
1077 1205 m 0
 929 1205 677 1096 571 728 c 0
 546 642 536 569 536 508 c 0
 536 283 678 212 795 212 c 0
 942 212 1195 325 1309 721 c 0
 1331 798 1341 863 1341 919 c 0
 1341 1136 1196 1205 1077 1205 c 0
1144 1440 m 0
 1358 1440 1604 1332 1604 996 c 0
 1604 918 1591 829 1561 725 c 0
 1396 148 993 -20 728 -20 c 0
 514 -20 273 92 273 435 c 0
 273 518 287 615 319 727 c 0
 477 1277 881 1440 1144 1440 c 0
EndSplineSet
Validated: 1
EndChar

StartChar: four
Encoding: 52 52 67
Width: 1546
VWidth: 0
Flags: HW
LayerCount: 2
Fore
SplineSet
1162 1421 m 1xe8
 1503 1421 l 1xe8
 1249 535 l 1xf0
 1497 535 l 1
 1431 303 l 1
 1183 303 l 1
 1096 0 l 1
 850 0 l 1
 937 303 l 1
 207 303 l 1
 252 461 l 1
 1162 1421 l 1xe8
972 535 m 1xf0
 1137 1109 l 1
 590 535 l 1
 972 535 l 1xf0
EndSplineSet
Validated: 1
EndChar

StartChar: period
Encoding: 46 46 68
Width: 570
VWidth: 2097
Flags: HW
LayerCount: 2
Fore
SplineSet
211 251 m 1
 503 251 l 1
 419 -41 l 1
 127 -41 l 1
 211 251 l 1
EndSplineSet
Validated: 1
EndChar

StartChar: comma
Encoding: 44 44 69
Width: 570
VWidth: 2097
Flags: HW
LayerCount: 2
Fore
SplineSet
233 211 m 1xa0
 502 211 l 1xa0
 175 -261 l 1
 -94 -261 l 1xc0
 233 211 l 1xa0
EndSplineSet
Validated: 1
EndChar

StartChar: bracketleft
Encoding: 91 91 70
Width: 788
VWidth: 2097
Flags: HW
LayerCount: 2
Fore
SplineSet
654 1552 m 1xe0
 1194 1552 l 1
 1128 1321 l 1xe0
 834 1321 l 1
 392 -220 l 1xd0
 686 -220 l 1
 620 -451 l 1
 80 -451 l 1
 654 1552 l 1xe0
EndSplineSet
Validated: 1
EndChar

StartChar: bracketright
Encoding: 93 93 71
Width: 778
VWidth: 2097
Flags: HW
LayerCount: 2
Fore
SplineSet
484 1552 m 5xe0
 1024 1552 l 5
 450 -451 l 5
 -90 -451 l 5
 -24 -220 l 5xe0
 270 -220 l 5
 712 1321 l 5xd0
 418 1321 l 5
 484 1552 l 5xe0
EndSplineSet
Validated: 1
EndChar

StartChar: parenleft
Encoding: 40 40 72
Width: 742
VWidth: 2097
Flags: HW
LayerCount: 2
Fore
SplineSet
974 1602 m 1
 1148 1495 l 1
 1115 1458 l 1
 741 1037 540 585 540 142 c 0
 540 -8 563 -157 610 -303 c 1
 621 -337 l 1
 387 -465 l 1
 375 -429 l 1
 330 -290 284 -89 284 140 c 0
 284 278 301 425 344 576 c 0
 458 973 745 1346 945 1569 c 1
 974 1602 l 1
EndSplineSet
Validated: 1
EndChar

StartChar: parenright
Encoding: 41 41 73
Width: 742
VWidth: 2097
Flags: HW
LayerCount: 2
Fore
SplineSet
728 576 m 0
 612 171 315 -213 121 -429 c 1
 89 -465 l 1
 -73 -337 l 1
 -42 -303 l 1
 187 -48 532 422 532 1008 c 0
 532 1152 511 1302 463 1458 c 1
 452 1495 l 1
 686 1602 l 1
 697 1569 l 1
 742 1430 787 1232 787 1007 c 0
 787 871 771 725 728 576 c 0
EndSplineSet
Validated: 1
EndChar

StartChar: slash
Encoding: 47 47 74
Width: 726
VWidth: 2097
Flags: HW
LayerCount: 2
Fore
SplineSet
925 1462 m 1
 1182 1462 l 1
 202 -131 l 1
 -55 -131 l 1
 925 1462 l 1
EndSplineSet
Validated: 1
EndChar

StartChar: backslash
Encoding: 92 92 75
Width: 726
VWidth: 2097
Flags: HW
LayerCount: 2
Fore
SplineSet
382 1462 m 1
 639 1462 l 1
 705 -131 l 1
 448 -131 l 1
 382 1462 l 1
EndSplineSet
Validated: 1
EndChar

StartChar: plus
Encoding: 43 43 76
Width: 1400
VWidth: 2097
Flags: HW
LayerCount: 2
Fore
SplineSet
950 1274 m 1
 1180 1274 l 1
 1035 768 l 1
 1536 768 l 1
 1473 548 l 1
 972 548 l 1
 827 42 l 1
 597 42 l 1
 742 548 l 1
 241 548 l 1
 304 768 l 1
 805 768 l 1
 950 1274 l 1
EndSplineSet
Validated: 1
EndChar

StartChar: asterisk
Encoding: 42 42 77
Width: 1196
VWidth: 2097
Flags: HW
LayerCount: 2
Fore
SplineSet
889 1462 m 1
 1145 1462 l 1
 1050 1181 l 1
 1328 1335 l 1
 1392 1112 l 1
 1106 987 l 1
 1320 860 l 1
 1128 637 l 1
 938 791 l 1
 873 511 l 1
 617 511 l 1
 712 791 l 1
 434 637 l 1
 370 860 l 1
 657 987 l 1
 442 1112 l 1
 634 1335 l 1
 824 1181 l 1
 889 1462 l 1
EndSplineSet
Validated: 1
EndChar

StartChar: numbersign
Encoding: 35 35 78
Width: 1402
VWidth: 2097
Flags: HW
LayerCount: 2
Fore
SplineSet
741 1462 m 1
 983 1462 l 1
 871 1071 l 1
 1147 1071 l 1
 1259 1462 l 1
 1501 1462 l 1
 1389 1071 l 1
 1705 1071 l 1
 1639 839 l 1
 1323 839 l 1
 1245 569 l 1
 1561 569 l 1
 1495 337 l 1
 1179 337 l 1
 1062 -71 l 1
 820 -71 l 1
 937 337 l 1
 661 337 l 1
 544 -71 l 1
 302 -71 l 1
 419 337 l 1
 103 337 l 1
 169 569 l 1
 485 569 l 1
 563 839 l 1
 245 839 l 1
 311 1071 l 1
 629 1071 l 1
 741 1462 l 1
805 839 m 1
 727 569 l 1
 1003 569 l 1
 1081 839 l 1
 805 839 l 1
EndSplineSet
Validated: 1
EndChar

StartChar: dollar
Encoding: 36 36 79
Width: 1364
VWidth: 2097
Flags: HW
LayerCount: 2
Fore
SplineSet
801 968 m 0
 800 965 800 961 800 958 c 0
 800 852 1333 854 1333 602 c 0
 1333 584 1330 564 1324 543 c 0
 1291 429 1180 269 896 223 c 1
 813 -65 l 1
 564 -65 l 1
 644 212 l 1
 550 217 452 239 346 285 c 2
 313 299 l 1
 443 490 l 1
 477 475 l 2
 588 425 654 411 752 411 c 0
 955 411 1034 451 1055 525 c 1
 1056 528 1056 530 1056 533 c 0
 1056 645 524 620 524 882 c 0
 524 902 527 924 534 948 c 0
 564 1051 676 1197 940 1246 c 1
 1016 1511 l 1
 1265 1511 l 1
 1194 1263 l 1
 1306 1260 1354 1248 1435 1224 c 2
 1473 1213 l 1
 1350 1021 l 1
 1314 1030 l 1
 1254 1047 1187 1064 1071 1064 c 0
 897 1064 813 1009 801 968 c 0
EndSplineSet
Validated: 1
EndChar

StartChar: semicolon
Encoding: 59 59 80
Width: 570
VWidth: 2097
Flags: HW
LayerCount: 2
Fore
SplineSet
233 211 m 1x90
 502 211 l 1x90
 175 -261 l 1
 -94 -261 l 1xc0
 233 211 l 1x90
435 1034 m 1xa0
 727 1034 l 1
 644 742 l 1
 352 742 l 1
 435 1034 l 1xa0
EndSplineSet
Validated: 1
EndChar

StartChar: colon
Encoding: 58 58 81
Width: 570
VWidth: 2097
Flags: HW
LayerCount: 2
Fore
SplineSet
211 251 m 1
 503 251 l 1
 419 -41 l 1
 127 -41 l 1
 211 251 l 1
435 1034 m 1
 727 1034 l 1
 644 742 l 1
 352 742 l 1
 435 1034 l 1
EndSplineSet
Validated: 1
EndChar

StartChar: equal
Encoding: 61 61 82
Width: 1400
VWidth: 2097
Flags: HW
LayerCount: 2
Fore
SplineSet
334 542 m 1
 1376 542 l 1
 1310 310 l 1
 268 310 l 1
 334 542 l 1
464 995 m 1
 1506 995 l 1
 1440 763 l 1
 398 763 l 1
 464 995 l 1
EndSplineSet
Validated: 1
EndChar

StartChar: quotedbl
Encoding: 34 34 83
Width: 795
VWidth: 2097
Flags: HW
LayerCount: 2
Fore
SplineSet
904 1552 m 1
 1171 1552 l 1
 1025 1042 l 1
 758 1042 l 1
 904 1552 l 1
514 1552 m 1
 781 1552 l 1
 635 1042 l 1
 368 1042 l 1
 514 1552 l 1
EndSplineSet
Validated: 1
EndChar

StartChar: quotesingle
Encoding: 39 39 84
Width: 405
VWidth: 2097
Flags: HW
LayerCount: 2
Fore
SplineSet
514 1552 m 1
 781 1552 l 1
 635 1042 l 1
 368 1042 l 1
 514 1552 l 1
EndSplineSet
Validated: 1
EndChar

StartChar: underscore
Encoding: 95 95 85
Width: 1160
VWidth: 2097
Flags: HW
LayerCount: 2
Fore
SplineSet
164 191 m 1
 1106 191 l 1
 1039 -41 l 1
 97 -41 l 1
 164 191 l 1
EndSplineSet
Validated: 1
EndChar

StartChar: percent
Encoding: 37 37 86
Width: 1493
VWidth: 2097
Flags: HW
LayerCount: 2
Fore
SplineSet
763 1227 m 0xf9c0
 685 1227 648 1161 629 1094 c 0
 621 1066 615 1038 615 1014 c 0
 615 972 632 941 682 941 c 0
 760 941 800 1014 822 1089 c 0
 830 1117 834 1140 834 1158 c 0
 834 1219 794 1227 763 1227 c 0xf9c0
815 1404 m 0
 915 1404 1040 1365 1040 1209 c 0
 1040 1176 1034 1137 1021 1092 c 0
 963 890 797 765 630 765 c 0
 520 765 426 815 426 957 c 0
 426 995 433 1040 448 1093 c 0
 508 1301 672 1404 815 1404 c 0
1275 486 m 0
 1197 486 1158 420 1139 353 c 0
 1131 326 1126 299 1126 275 c 0
 1126 232 1143 200 1194 200 c 0
 1272 200 1312 273 1334 348 c 0xf0d0
 1342 376 1346 399 1346 417 c 0
 1346 478 1306 486 1275 486 c 0
1327 664 m 0
 1426 664 1535 623 1535 475 c 0
 1535 440 1529 399 1515 351 c 0
 1457 148 1302 25 1143 25 c 0
 1026 25 922 76 922 224 c 0
 922 261 928 303 942 352 c 0
 1002 560 1178 664 1327 664 c 0
1597 1421 m 1xf6e0
 1868 1421 l 1
 357 0 l 1
 85 0 l 1
 1597 1421 l 1xf6e0
EndSplineSet
Validated: 1
EndChar

StartChar: braceright
Encoding: 125 125 87
Width: 828
VWidth: 2097
Flags: HW
LayerCount: 2
Fore
SplineSet
833 1084 m 4
 820 1018 795 927 795 845 c 0
 795 755 825 677 934 658 c 5
 966 653 l 5
 907 445 l 5
 871 440 l 5
 632 401 573 131 523 2 c 4
 374 -380 86 -446 -11 -453 c 5
 -47 -456 l 5
 -35 -248 l 5
 12 -242 l 6
 82 -233 151 -191 198 -141 c 4
 358 29 332 356 614 549 c 5
 563 607 546 675 546 749 c 0
 546 888 606 1043 606 1161 c 0
 606 1190 603 1216 594 1240 c 4
 575 1290 530 1332 466 1341 c 6
 422 1347 l 5
 530 1555 l 5
 564 1552 l 6
 658 1544 847 1490 847 1223 c 0
 847 1182 843 1136 833 1084 c 4
EndSplineSet
Validated: 1
EndChar

StartChar: asciitilde
Encoding: 126 126 88
Width: 1400
VWidth: 2097
Flags: HW
LayerCount: 2
Fore
SplineSet
1278 1401 m 0xb0
 1314 1401 1348 1482 1381 1553 c 2
 1399 1592 l 1
 1581 1562 l 1
 1560 1520 l 1
 1505 1407 1425 1198 1226 1198 c 1xb0
 1044 1206 1013 1381 960 1381 c 0
 924 1381 889 1301 858 1234 c 2
 840 1195 l 1
 657 1221 l 1
 678 1264 l 2
 733 1377 813 1584 1012 1584 c 1x70
 1194 1576 1226 1401 1278 1401 c 0xb0
EndSplineSet
Validated: 1
EndChar

StartChar: grave
Encoding: 96 96 89
Width: 1122
VWidth: 2097
Flags: HW
LayerCount: 2
Fore
SplineSet
802 1643 m 1
 1275 1290 l 1
 1120 1112 l 1
 633 1448 l 1
 802 1643 l 1
EndSplineSet
Validated: 1
EndChar

StartChar: asciicircum
Encoding: 94 94 90
Width: 1479
VWidth: 2097
Flags: HW
LayerCount: 2
Fore
SplineSet
1185 1601 m 1
 1397 1253 l 1
 1204 1108 l 1
 1085 1302 l 1
 852 1109 l 1
 741 1244 l 1
 1185 1601 l 1
EndSplineSet
Validated: 1
EndChar

StartChar: ampersand
Encoding: 38 38 91
Width: 1589
VWidth: 2097
Flags: HW
LayerCount: 2
Fore
SplineSet
1418 1175 m 0xd8
 1366 995 1170 872 1008 768 c 1
 1208 461 l 1
 1631 813 l 1
 1738 661 l 1
 1313 302 l 1
 1536 -41 l 1
 1221 -41 l 1
 1096 143 l 1
 961 42 765 -88 511 -88 c 0
 306 -88 203 20 203 171 c 0
 203 206 209 243 220 282 c 0xe8
 292 534 536 695 664 775 c 1
 616 846 569 925 569 1025 c 0
 569 1056 573 1088 583 1123 c 0
 645 1338 888 1481 1132 1481 c 0
 1321 1481 1430 1387 1430 1254 c 0
 1430 1229 1426 1203 1418 1175 c 0xd8
1050 1256 m 0
 948 1256 850 1186 829 1114 c 0xd8
 826 1103 824 1093 824 1083 c 0
 824 1032 862 989 905 926 c 1
 1055 1020 1140 1069 1161 1143 c 0
 1163 1151 1164 1160 1164 1168 c 0
 1164 1214 1129 1256 1050 1256 c 0
774 616 m 1
 636 527 516 446 482 327 c 0xe8
 477 310 475 294 475 278 c 0
 475 201 532 141 633 141 c 0
 758 141 886 225 988 300 c 1
 774 616 l 1
EndSplineSet
Validated: 1
EndChar

StartChar: less
Encoding: 60 60 92
Width: 1073
VWidth: 2097
Flags: HW
LayerCount: 2
Fore
SplineSet
1356 1194 m 1
 1286 948 l 1
 545 622 l 1
 1103 311 l 1
 1030 55 l 1
 204 507 l 1
 267 724 l 1
 1356 1194 l 1
EndSplineSet
Validated: 1
EndChar

StartChar: greater
Encoding: 62 62 93
Width: 1073
VWidth: 2097
Flags: HW
LayerCount: 2
Fore
SplineSet
401 1194 m 1
 1222 724 l 1
 1159 507 l 1
 75 55 l 1
 148 311 l 1
 884 622 l 1
 331 948 l 1
 401 1194 l 1
EndSplineSet
Validated: 1
EndChar

StartChar: braceleft
Encoding: 123 123 94
Width: 828
VWidth: 2097
Flags: HW
LayerCount: 2
Back
SplineSet
90 619 m 5
 204.179 638.202 308.002 725.451 333.354 917.293 c 4
 340.528 971.587 341.964 1026.47 347 1081 c 4
 381.05 1449.63 623.185 1505.27 712 1512 c 5
 742 1383 l 5
 666.611 1372.59 597.735 1326.64 556 1263 c 4
 426.47 1065.48 570.432 724.538 301.727 550.09 c 5
 570.345 376.373 429.108 33.1994 556 -162 c 4
 597.506 -225.849 666.514 -271.942 742 -282 c 5
 712 -411 l 5
 634.734 -404.6 383.387 -353.22 347 7 c 4
 333.433 141.308 348.454 328.573 204.364 433.387 c 4
 170.661 457.903 131.154 474.416 90 481 c 5
 90 619 l 5
  Spiro
    90 619 v
    198.105 662.169 o
    284.438 759.088 o
    333.354 917.293 o
    338.957 971.694 o
    342.822 1026.44 o
    347 1081 o
    436.894 1354.89 o
    585.615 1479.25 o
    712 1512 v
    742 1383 v
    669.615 1361.44 o
    605.96 1320.03 o
    556 1263 o
    492.244 1029.41 o
    458.22 768.307 o
    301.727 550.09 v
    458.766 331.896 o
    493.397 70.5089 o
    556 -162 o
    605.837 -219.203 o
    669.521 -260.639 o
    742 -282 v
    712 -411 v
    591.266 -379.9 o
    440.495 -259.862 o
    347 7 o
    336.026 153.791 o
    302.31 306.249 o
    204.364 433.387 o
    168.917 455.145 o
    130.411 471.191 o
    90 481 v
    0 0 z
  EndSpiro
EndSplineSet
Fore
SplineSet
272 658 m 1
 504 694 574 970 617 1084 c 0
 765 1474 1042 1543 1154 1552 c 2
 1190 1555 l 1
 1178 1347 l 1
 1132 1341 l 2
 1062 1332 993 1290 946 1240 c 0
 784 1068 809 742 528 549 c 1
 580 491 597 420 597 345 c 0
 597 206 538 53 538 -64 c 0
 538 -92 542 -118 550 -141 c 0
 569 -191 614 -233 678 -242 c 2
 721 -248 l 1
 613 -456 l 1
 579 -453 l 1
 497 -447 294 -395 294 -124 c 0
 294 -86 298 -44 307 2 c 0
 322 84 349 174 349 253 c 0
 349 309 336 361 294 399 c 0
 271 420 242 434 209 440 c 2
 177 445 l 1
 236 653 l 1
 272 658 l 1
EndSplineSet
Validated: 1
EndChar

StartChar: sterling
Encoding: 163 163 95
Width: 1300
VWidth: 2097
Flags: HW
LayerCount: 2
Fore
SplineSet
405 176 m 1
 533 621 l 1
 357 621 l 1
 419 838 l 1
 595 838 l 1
 624 938 l 2
 744 1355 1057 1472 1304 1472 c 0
 1391 1472 1471 1456 1540 1432 c 2
 1578 1419 l 1
 1444 1222 l 1
 1411 1231 l 2
 1366 1244 1315 1254 1264 1254 c 0
 1011 1254 916 1100 862 911 c 2
 841 838 l 1
 1371 838 l 1
 1309 621 l 1
 779 621 l 1
 651 176 l 1
 1239 176 l 1
 1177 -41 l 1
 99 -41 l 1
 161 176 l 1
 405 176 l 1
EndSplineSet
Validated: 1
EndChar

StartChar: exclamdown
Encoding: 161 161 96
Width: 650
VWidth: 2097
Flags: HW
LayerCount: 2
Fore
SplineSet
458 904 m 1xa0
 710 904 l 1
 322 -451 l 1
 70 -451 l 1
 458 904 l 1xa0
575 1362 m 1xc0
 857 1362 l 1
 776 1080 l 1
 494 1080 l 1
 575 1362 l 1xc0
EndSplineSet
Validated: 1
EndChar

StartChar: cent
Encoding: 162 162 97
Width: 1021
VWidth: 2097
Flags: HW
LayerCount: 2
Fore
SplineSet
866 1270 m 1xb8
 947 1552 l 1
 1150 1552 l 1
 1072 1280 l 1
 1157 1272 1226 1243 1272 1221 c 2
 1303 1206 l 1
 1182 1011 l 1
 1147 1024 l 1
 1088 1047 1022 1060 953 1060 c 0
 751 1060 621 946 564 747 c 0
 548 693 541 646 541 607 c 0
 541 439 670 401 784 401 c 0xb8
 842 401 903 412 965 432 c 1
 1008 445 l 1
 1020 256 l 1
 979 242 l 2
 908 217 833 196 759 190 c 1x78
 675 -106 l 1
 472 -106 l 1
 558 194 l 1
 397 224 283 326 283 521 c 0
 283 577 292 641 313 713 c 0
 397 1006 597 1216 866 1270 c 1xb8
EndSplineSet
Validated: 1
EndChar

StartChar: currency
Encoding: 164 164 98
Width: 1300
Flags: HW
LayerCount: 2
Fore
SplineSet
466 575 m 1
 462 596 460 616 460 637 c 0
 460 737 504 834 561 908 c 1
 437 1082 l 1
 673 1265 l 1
 798 1090 l 1
 864 1118 923 1128 973 1128 c 0
 1030 1128 1084 1115 1129 1090 c 1
 1351 1263 l 1
 1482 1080 l 1
 1258 907 l 1
 1262 886 1264 866 1264 845 c 0
 1264 746 1221 650 1164 576 c 1
 1287 404 l 1
 1051 221 l 1
 929 393 l 1
 870 368 809 355 751 355 c 0
 701 355 645 364 596 392 c 1
 374 219 l 1
 243 402 l 1
 466 575 l 1
910 905 m 0
 825 905 730 834 703 741 c 0
 698 725 696 710 696 695 c 0
 696 628 743 578 815 578 c 0
 902 578 994 651 1020 741 c 0
 1025 758 1027 774 1027 789 c 0
 1027 857 980 905 910 905 c 0
EndSplineSet
Validated: 1
EndChar

StartChar: yen
Encoding: 165 165 99
Width: 1300
VWidth: 2097
Flags: HW
LayerCount: 2
Fore
SplineSet
491 1462 m 1
 772 1462 l 1
 910 904 l 1
 1377 1462 l 1
 1648 1462 l 1
 1014 740 l 1
 1265 740 l 1
 1206 533 l 1
 917 533 l 1
 883 415 l 1
 1172 415 l 1
 1113 208 l 1
 824 208 l 1
 752 -41 l 1
 510 -41 l 1
 582 208 l 1
 307 208 l 1
 366 415 l 1
 641 415 l 1
 675 533 l 1
 400 533 l 1
 459 740 l 1
 697 740 l 1
 491 1462 l 1
EndSplineSet
Validated: 1
EndChar

StartChar: brokenbar
Encoding: 166 166 100
Width: 884
VWidth: 2097
Flags: HW
LayerCount: 2
Fore
SplineSet
463 501 m 1
 709 501 l 1
 465 -349 l 1
 219 -349 l 1
 463 501 l 1
790 1642 m 1
 1036 1642 l 1
 793 796 l 1
 547 796 l 1
 790 1642 l 1
EndSplineSet
Validated: 1
EndChar

StartChar: section
Encoding: 167 167 101
Width: 1136
VWidth: 2097
Flags: HW
LayerCount: 2
Fore
SplineSet
1343 1430 m 1xd8
 1382 1419 l 1
 1250 1209 l 1
 1215 1221 l 2xd8
 1151 1243 1067 1258 987 1258 c 0
 863 1258 763 1214 744 1148 c 0
 742 1143 742 1137 742 1132 c 0
 742 1005 1222 1007 1222 751 c 0
 1222 730 1219 707 1212 682 c 0
 1194 620 1155 544 1085 477 c 1
 1107 442 1114 406 1114 376 c 0
 1114 346 1107 321 1103 306 c 0
 1061 158 900 -61 507 -61 c 2
 494 -61 l 2
 419 -61 294 -58 147 7 c 1
 114 22 l 1
 245 221 l 1
 280 208 l 1
 382 168 477 150 553 150 c 0
 729 150 803 204 827 286 c 0
 829 292 829 298 829 303 c 0
 829 432 358 403 358 671 c 0
 358 695 361 722 370 752 c 0
 386 807 425 878 495 942 c 1
 476 972 466 1009 466 1049 c 0
 466 1228 660 1475 1074 1475 c 0xb8
 1214 1475 1276 1450 1343 1430 c 1xd8
670 823 m 1
 646 801 638 779 636 771 c 0
 634 766 634 761 634 756 c 0
 634 687 778 653 903 603 c 1
 915 616 927 635 935 662 c 0
 937 668 938 674 938 679 c 0
 938 750 797 775 670 823 c 1
EndSplineSet
Validated: 1
EndChar

StartChar: copyright
Encoding: 169 169 102
Width: 1760
VWidth: 2097
Flags: HW
LayerCount: 2
Fore
SplineSet
1425 1049 m 2
 1454 1034 l 1
 1352 873 l 1
 1317 886 l 1
 1275 903 1230 912 1181 912 c 0
 1019 912 948 808 915 694 c 0
 905 659 899 625 899 594 c 0
 899 516 939 457 1063 457 c 0
 1104 457 1149 465 1193 479 c 2
 1235 492 l 1
 1247 334 l 1
 1206 320 l 2
 1129 293 1050 278 975 278 c 0
 836 278 689 339 689 529 c 0
 689 571 696 618 712 673 c 0
 803 990 1039 1096 1220 1096 c 0
 1295 1096 1366 1079 1425 1049 c 2
1226 1207 m 0
 925 1207 621 965 540 683 c 0
 526 635 520 588 520 543 c 0
 520 325 676 159 926 159 c 0
 1227 159 1531 401 1612 683 c 0
 1626 731 1632 778 1632 823 c 0
 1632 1041 1476 1207 1226 1207 c 0
1827 683 m 0
 1713 285 1286 -55 864 -55 c 0
 515 -55 296 178 296 485 c 0
 296 548 305 615 325 683 c 0
 437 1075 858 1421 1287 1421 c 0
 1636 1421 1856 1188 1856 881 c 0
 1856 818 1846 751 1827 683 c 0
EndSplineSet
Validated: 1
EndChar

StartChar: guillemotleft
Encoding: 171 171 103
Width: 1078
VWidth: 2097
Flags: HW
LayerCount: 2
Fore
SplineSet
1075 1029 m 5xb0
 1363 1029 l 5
 942 623 l 5
 1130 217 l 5
 842 217 l 5
 675 623 l 5
 1075 1029 l 5xb0
604 1029 m 5xd0
 892 1029 l 5
 471 623 l 5
 659 217 l 5
 371 217 l 5
 204 623 l 5
 604 1029 l 5xd0
EndSplineSet
Validated: 1
EndChar

StartChar: guillemotright
Encoding: 187 187 104
Width: 1078
VWidth: 2097
Flags: HW
LayerCount: 2
Fore
SplineSet
305 1029 m 1xd0
 593 1029 l 1
 761 623 l 1
 360 217 l 1
 72 217 l 1
 494 623 l 1
 305 1029 l 1xd0
776 1029 m 1xb0
 1064 1029 l 1
 1232 623 l 1
 831 217 l 1
 543 217 l 1
 965 623 l 1
 776 1029 l 1xb0
EndSplineSet
Validated: 1
EndChar

StartChar: registered
Encoding: 174 174 105
Width: 1232
VWidth: 2097
Flags: HW
LayerCount: 2
Fore
SplineSet
964 1215 m 2
 893 1215 l 1
 856 1086 l 1
 908 1086 892 1085 922 1085 c 0
 997 1085 1029 1103 1042 1147 c 0
 1045 1157 1046 1165 1046 1172 c 0
 1046 1205 1018 1215 964 1215 c 2
1035 1345 m 2
 1157 1345 1194 1290 1194 1225 c 0
 1194 1203 1189 1180 1183 1158 c 0
 1167 1101 1125 1024 1037 985 c 1
 1088 755 l 1
 1246 864 1319 1013 1319 1143 c 0
 1319 1298 1215 1425 1025 1425 c 0
 807 1425 584 1250 525 1043 c 0
 515 1008 510 974 510 941 c 0
 510 782 624 661 806 661 c 0
 902 661 999 695 1082 751 c 1
 932 751 l 1
 891 959 l 1
 820 959 l 1
 760 751 l 1
 617 751 l 1
 788 1345 l 1
 1035 1345 l 2
1466 1043 m 0
 1380 742 1060 500 759 500 c 0
 503 500 343 670 343 896 c 0
 343 943 350 992 364 1043 c 0
 450 1344 770 1586 1071 1586 c 0
 1321 1586 1488 1419 1488 1190 c 0
 1488 1143 1481 1094 1466 1043 c 0
EndSplineSet
Validated: 1
EndChar

StartChar: paragraph
Encoding: 182 182 106
Width: 1326
VWidth: 2097
Flags: HW
LayerCount: 2
Fore
SplineSet
1046 1552 m 6xd0
 1622 1552 l 5
 1165 -41 l 5
 919 -41 l 5
 1310 1320 l 5
 1152 1320 l 5
 761 -41 l 5
 514 -41 l 5
 711 646 l 5xb0
 561 657 387 733 387 961 c 0
 387 1011 395 1068 414 1133 c 4
 531 1542 889 1552 1046 1552 c 6xd0
EndSplineSet
Validated: 1
EndChar

StartChar: periodcentered
Encoding: 183 183 107
Width: 590
VWidth: 2097
Flags: HW
LayerCount: 2
Fore
SplineSet
401 879 m 1
 693 879 l 1
 609 587 l 1
 317 587 l 1
 401 879 l 1
EndSplineSet
Validated: 1
EndChar

StartChar: questiondown
Encoding: 191 191 108
Width: 1047
VWidth: 2097
Flags: HW
LayerCount: 2
Fore
SplineSet
608 1029 m 1xd8
 860 1029 l 1
 848 988 l 1
 828 919 820 863 820 816 c 0
 820 575 1033 568 1033 361 c 0
 1033 327 1027 288 1014 241 c 0
 943 -6 634 -182 439 -182 c 0
 287 -182 189 -147 84 -90 c 1
 54 -73 l 1
 193 122 l 1
 226 107 l 2
 350 50 423 41 477 41 c 0
 635 41 737 133 763 225 c 0
 768 243 771 259 771 274 c 0
 771 418 554 438 554 730 c 0
 554 799 566 883 596 988 c 1
 608 1029 l 1xd8
717 1462 m 1xe8
 999 1462 l 1
 918 1179 l 1
 636 1179 l 1
 717 1462 l 1xe8
EndSplineSet
Validated: 1
EndChar

StartChar: uni00B5
Encoding: 181 181 109
Width: 1176
VWidth: 2097
Flags: HW
LayerCount: 2
Fore
SplineSet
440 1029 m 1
 686 1029 l 1
 515 430 l 2
 500 377 492 330 492 292 c 0
 492 201 536 153 632 153 c 0
 674 153 727 162 850 215 c 1
 1083 1029 l 1
 1329 1029 l 1
 1022 -41 l 1
 839 -41 l 1
 832 8 l 1
 745 -34 638 -68 543 -68 c 0
 488 -68 431 -55 384 -25 c 1
 262 -451 l 1
 16 -451 l 1
 440 1029 l 1
EndSplineSet
Validated: 1
EndChar

StartChar: uni00AD
Encoding: 173 173 110
Width: 1074
VWidth: 2097
Flags: HW
LayerCount: 2
Fore
SplineSet
400 769 m 1
 1116 769 l 1
 1052 548 l 1
 336 548 l 1
 400 769 l 1
EndSplineSet
Validated: 1
EndChar

StartChar: plusminus
Encoding: 177 177 111
Width: 1400
VWidth: 2097
Flags: HW
LayerCount: 2
Fore
SplineSet
273 328 m 1
 1315 328 l 1
 1252 109 l 1
 210 109 l 1
 273 328 l 1
1005 1462 m 1
 1233 1462 l 1
 1115 1050 l 1
 1522 1050 l 1
 1459 831 l 1
 1052 831 l 1
 934 420 l 1
 706 420 l 1
 824 831 l 1
 417 831 l 1
 480 1050 l 1
 887 1050 l 1
 1005 1462 l 1
EndSplineSet
Validated: 1
EndChar

StartChar: ae
Encoding: 230 230 112
Width: 1804
VWidth: 0
Flags: HW
LayerCount: 2
Fore
SplineSet
453 309 m 0x91
 451 303 450 297 450 291 c 0
 450 239 517 193 608 193 c 0
 681 193 755 221 815 262 c 1
 862 423 l 1
 516 418 468 363 453 309 c 0x91
1463 757 m 0x25
 1328 757 1222 681 1180 588 c 1
 1605 588 l 1
 1608 603 1609 617 1609 632 c 0
 1609 697 1577 757 1463 757 c 0x25
473 921 m 2x09
 614 966 757 981 849 981 c 0x03
 1031 981 1113 911 1148 835 c 1
 1268 922 1416 981 1557 981 c 0
 1775 981 1840 858 1840 704 c 0
 1840 615 1818 515 1792 423 c 1x15
 1780 382 l 1
 1113 382 l 1
 1113 378 1113 375 1113 371 c 0
 1113 269 1223 194 1397 194 c 0
 1472 194 1556 215 1602 228 c 2
 1647 240 l 1
 1636 51 l 1
 1600 39 l 2x61
 1474 -4 1351 -20 1269 -20 c 0
 1130 -20 996 19 919 111 c 1
 800 20 658 -20 510 -20 c 0
 329 -20 189 73 189 212 c 0
 189 233 193 255 199 277 c 0
 243 430 411 549 687 573 c 0
 756 579 846 581 907 582 c 1
 915 607 920 631 920 655 c 0
 920 723 878 779 747 779 c 0x93
 696 779 628 773 488 740 c 1
 448 730 l 1
 432 908 l 1
 473 921 l 2x09
EndSplineSet
Validated: 1
EndChar

StartChar: germandbls
Encoding: 223 223 113
Width: 1412
VWidth: 2097
Flags: HW
LayerCount: 2
Fore
SplineSet
1064 1430 m 0x78
 1307 1430 1405 1288 1405 1147 c 0
 1405 1118 1401 1088 1393 1060 c 0x78
 1326 828 1021 782 997 698 c 0
 996 694 995 690 995 686 c 0
 995 587 1381 614 1381 366 c 0
 1381 340 1376 311 1367 279 c 0
 1332 158 1198 -26 892 -26 c 0
 801 -26 672 -12 545 23 c 1
 503 34 l 1
 617 226 l 1
 657 218 l 1
 749 201 839 188 913 188 c 0
 1049 188 1096 225 1114 289 c 0xb4
 1116 297 1118 306 1118 313 c 0
 1118 451 711 404 711 630 c 0
 711 650 714 673 721 698 c 0
 784 916 1087 943 1118 1050 c 0
 1121 1062 1123 1072 1123 1083 c 0
 1123 1155 1050 1201 978 1201 c 0
 936 1201 780 1182 722 981 c 2
 441 0 l 1
 195 0 l 1
 477 982 l 2
 569 1302 833 1430 1064 1430 c 0x78
EndSplineSet
Validated: 1
EndChar

StartChar: multiply
Encoding: 215 215 114
Width: 1463
VWidth: 2097
Flags: HW
LayerCount: 2
Fore
SplineSet
393 165 m 1
 276 328 l 1
 741 654 l 1
 468 971 l 1
 678 1134 l 1
 986 802 l 1
 1473 1128 l 1
 1589 964 l 1
 1127 639 l 1
 1398 321 l 1
 1188 158 l 1
 881 490 l 1
 393 165 l 1
EndSplineSet
Validated: 1
EndChar

StartChar: divide
Encoding: 247 247 115
Width: 1564
VWidth: 2097
Flags: HW
LayerCount: 2
Fore
SplineSet
982 1233 m 1
 1289 1233 l 1
 1209 956 l 1
 902 956 l 1
 982 1233 l 1
731 360 m 1
 1038 360 l 1
 959 83 l 1
 652 83 l 1
 731 360 l 1
345 768 m 1
 1659 768 l 1
 1596 547 l 1
 282 547 l 1
 345 768 l 1
EndSplineSet
Validated: 1
EndChar

StartChar: oslash
Encoding: 248 248 116
Width: 1357
VWidth: 2097
Flags: HW
LayerCount: 2
Back
SplineSet
1180 1012 m 1
 1297 907 l 1
 1183 798 l 1
 1234 721 1262 625 1262 513 c 0
 1262 184 1037 -20 693 -20 c 0
 557 -20 434 15 339 82 c 1
 227 -32 l 1
 110 73 l 1
 230 187 l 1
 176 267 147 367 147 483 c 0
 147 804 364 1007 711 1007 c 0
 849 1007 977 972 1074 903 c 1
 1180 1012 l 1
695 785 m 0
 549 785 394 682 394 470 c 0
 394 413 404 360 424 313 c 1
 880 726 l 1
 824 766 759 785 695 785 c 0
1016 522 m 0
 1016 580 1005 630 988 672 c 1
 531 259 l 1
 581 223 643 202 713 202 c 0
 880 202 1016 325 1016 522 c 0
EndSplineSet
Fore
SplineSet
1457 1020 m 1
 1522 876 l 1
 1368 765 l 1
 1382 728 1390 685 1390 639 c 0
 1390 595 1383 547 1368 495 c 0
 1276 175 1000 -21 660 -21 c 0
 537 -21 439 6 368 57 c 1
 211 -55 l 1
 137 63 l 1
 276 162 l 1
 252 207 239 260 239 320 c 0
 239 367 247 419 263 474 c 0
 353 786 621 982 963 982 c 0
 1104 982 1217 947 1290 880 c 1
 1457 1020 l 1
885 760 m 0
 741 760 562 674 511 495 c 0
 502 466 498 438 498 411 c 0
 498 381 503 354 514 329 c 1
 1054 710 l 1
 1009 744 947 760 885 760 c 0
1127 597 m 1
 606 229 l 1
 643 211 688 201 742 201 c 0
 976 201 1131 388 1131 551 c 0
 1131 567 1130 582 1127 597 c 1
EndSplineSet
Validated: 1
EndChar

StartChar: OE
Encoding: 338 338 118
Width: 2162
VWidth: 2097
Flags: HW
LayerCount: 2
Fore
SplineSet
1157 232 m 1
 1431 1189 l 1
 1414 1189 l 2
 1347 1189 1281 1188 1217 1180 c 0
 945 1144 744 968 668 702 c 0
 652 646 645 597 645 554 c 0
 645 392 740 311 820 273 c 0
 899 235 976 232 1066 232 c 2
 1157 232 l 1
753 1223 m 1
 1012 1415 1311 1421 1553 1421 c 2
 2409 1421 l 1
 2343 1189 l 1
 1700 1189 l 1
 1602 848 l 1
 2190 848 l 1
 2124 616 l 1
 1536 616 l 1
 1426 232 l 1
 2069 232 l 1
 2002 0 l 1
 1051 0 l 2
 907 0 757 5 631 58 c 1
 474 126 379 258 379 459 c 0
 379 531 391 613 417 703 c 0
 506 1015 676 1164 753 1223 c 1
EndSplineSet
Validated: 1
EndChar

StartChar: oe
Encoding: 339 339 119
Width: 1953
VWidth: 0
Flags: HW
LayerCount: 2
Fore
SplineSet
1023 464 m 0x76
 1034 504 1039 538 1039 569 c 0
 1039 703 942 755 843 755 c 0
 632 755 496 557 496 398 c 0
 496 290 558 200 701 200 c 0
 831 200 972 285 1023 464 c 0x76
1607 789 m 0x2d
 1464 789 1355 680 1307 561 c 1
 1741 561 l 1
 1750 598 1754 628 1754 655 c 0
 1754 755 1696 789 1607 789 c 0x2d
1695 972 m 0
 1934 972 1998 855 1998 715 c 0
 1998 632 1976 541 1953 463 c 2x2e
 1922 355 l 1
 1246 355 l 1
 1246 353 1246 352 1246 350 c 0
 1246 265 1325 173 1530 173 c 0
 1572 173 1639 178 1741 202 c 2
 1786 213 l 1
 1784 46 l 1
 1746 35 l 1
 1653 4 1536 -23 1405 -23 c 0xad
 1194 -23 1091 52 1042 133 c 1
 921 34 773 -20 617 -20 c 0
 375 -20 238 104 238 309 c 0
 238 359 246 414 263 474 c 0
 351 782 609 977 923 977 c 0x75
 1093 977 1208 915 1264 810 c 1
 1435 954 1613 972 1695 972 c 0
EndSplineSet
Validated: 1
EndChar

StartChar: AE
Encoding: 198 198 120
Width: 2079
VWidth: 2097
Flags: HW
LayerCount: 2
Fore
SplineSet
1246 1189 m 1
 820 603 l 1
 1200 603 l 1
 1368 1189 l 1
 1246 1189 l 1
1147 1421 m 1
 2345 1421 l 1
 2279 1189 l 1
 1636 1189 l 1
 1538 848 l 1
 2126 848 l 1
 2060 616 l 1
 1472 616 l 1
 1362 232 l 1
 2005 232 l 1
 1938 0 l 1
 1027 0 l 1
 1134 373 l 1
 658 373 l 1
 380 0 l 1
 130 0 l 1
 1147 1421 l 1
EndSplineSet
Validated: 1
EndChar

StartChar: onequarter
Encoding: 188 188 121
Width: 1800
VWidth: 0
Flags: HW
LayerCount: 2
Fore
SplineSet
1581 1446 m 1xb0
 1813 1446 l 1
 542 -25 l 1
 309 -25 l 1
 1581 1446 l 1xb0
753 1446 m 1
 893 1446 l 1
 648 593 l 1
 465 593 l 1
 656 1258 l 1xc0
 512 1221 l 1
 518 1387 l 1
 753 1446 l 1
1625 861 m 1
 1820 861 l 1
 1668 330 l 1
 1775 330 l 1
 1729 170 l 1
 1622 170 l 1
 1566 -25 l 1
 1383 -25 l 1
 1439 170 l 1x88
 1049 170 l 1
 1084 292 l 1
 1625 861 l 1
1562 601 m 1
 1314 330 l 1
 1485 330 l 1
 1562 601 l 1
EndSplineSet
Validated: 1
EndChar

StartChar: onehalf
Encoding: 189 189 122
Width: 1897
VWidth: 0
Flags: HW
LayerCount: 2
Back
SplineSet
341 1421 m 5
 453 1421 l 5
 453 608 l 5
 320 608 l 5
 320 1291 l 5xf6
 180 1252 l 5
 150 1369 l 5
 341 1421 l 5
209.37 1384.94 m 1
 269.895 1414.56 354.763 1449.55 451.692 1449.55 c 0
 594.526 1449.55 703.593 1365.38 703.593 1248.25 c 0xf960
 703.593 1174.01 666.949 1109.79 609.707 1073.15 c 1
 704.028 1034.22 737.692 959.235 737.692 881.95 c 0
 737.692 713.489 600.513 602.601 418.745 601.45 c 1
 416.492 601.45 l 2
 327.678 601.45 256.558 625.139 194.458 650.363 c 1
 231.084 755.665 l 1
 330.122 728.346 372.918 721.35 419.793 721.35 c 0
 521.652 721.35 610.093 777.67 610.093 862.15 c 0xf8e0
 610.093 918.029 565.872 1001.85 388.992 1001.85 c 2
 361.492 1001.85 l 1
 361.492 1114.73 l 1
 545.224 1119.53 577.093 1185.6 577.093 1232.85 c 0
 577.093 1283.03 528.292 1331.85 439.593 1331.85 c 0xf960
 360.592 1331.85 288.647 1297.65 252.768 1281.1 c 1
 209.37 1384.94 l 1
EndSplineSet
Fore
SplineSet
1581 1446 m 1xdc
 1813 1446 l 1
 542 -25 l 1
 309 -25 l 1
 1581 1446 l 1xdc
753 1446 m 1
 893 1446 l 1
 645 583 l 1
 462 583 l 1
 656 1258 l 1xec
 512 1221 l 1
 518 1387 l 1
 753 1446 l 1
1203 76 m 5
 1401 407 1715 514 1742 608 c 4
 1744 613 1744 618 1744 624 c 0
 1744 662 1708 703 1636 703 c 4
 1598 703 1548 694 1425 650 c 6
 1400 641 l 5
 1381 785 l 5
 1405 796 l 5
 1479 827 1584 867 1701 867 c 4
 1840 867 1936 797 1936 686 c 0
 1936 666 1933 646 1927 624 c 4
 1868 418 1604 349 1438 141 c 5
 1802 141 l 5
 1755 -25 l 5
 1174 -25 l 5
 1203 76 l 5
EndSplineSet
Validated: 1
EndChar

StartChar: threequarters
Encoding: 190 190 123
Width: 1950
VWidth: 0
Flags: HW
LayerCount: 2
Fore
SplineSet
1741 1446 m 1x9c80
 1973 1446 l 1
 702 -25 l 1
 469 -25 l 1
 1741 1446 l 1x9c80
1775 861 m 1
 1970 861 l 1
 1818 330 l 1
 1925 330 l 1
 1879 170 l 1
 1772 170 l 1
 1716 -25 l 1
 1533 -25 l 1
 1589 170 l 1x9840
 1199 170 l 1
 1234 292 l 1
 1775 861 l 1
1712 601 m 1
 1464 330 l 1
 1635 330 l 1
 1712 601 l 1
875 1475 m 0
 1023 1475 1094 1396 1094 1301 c 0
 1094 1226 1050 1141 965 1078 c 1
 1008 1046 1027 1002 1027 952 c 0
 1027 929 1023 906 1016 882 c 0
 963 698 777 576 581 576 c 0xd9
 488 576 423 601 365 627 c 2
 345 636 l 1
 440 786 l 1xb9
 462 780 l 1
 553 753 590 746 634 746 c 0
 721 746 812 792 832 862 c 0xd9
 835 873 837 883 837 892 c 0
 837 948 778 977 641 977 c 2
 616 977 l 1
 663 1140 l 1
 688 1140 l 2
 777 1140 885 1159 906 1233 c 0xda
 907 1238 908 1242 908 1247 c 0
 908 1276 883 1307 815 1307 c 0
 744 1307 671 1277 625 1258 c 2
 598 1247 l 1
 578 1397 l 1
 601 1407 l 2
 673 1438 773 1475 875 1475 c 0
EndSplineSet
Validated: 1
EndChar

StartChar: degree
Encoding: 176 176 124
Width: 589
Flags: HW
LayerCount: 2
Fore
SplineSet
676 1327 m 0
 604 1327 557 1259 557 1205 c 0
 557 1171 576 1142 622 1142 c 0
 670 1142 721 1186 735 1235 c 0
 738 1244 739 1253 739 1262 c 0
 739 1299 716 1327 676 1327 c 0
909 1235 m 0
 867 1088 716 969 573 969 c 0
 456 969 377 1050 377 1161 c 0
 377 1184 381 1209 388 1235 c 0
 430 1381 581 1500 724 1500 c 0
 841 1500 920 1420 920 1309 c 0
 920 1286 916 1261 909 1235 c 0
EndSplineSet
Validated: 1
EndChar

StartChar: ccedilla
Encoding: 231 231 125
Width: 1152
VWidth: 2097
Flags: HW
LayerCount: 2
Back
SplineSet
679 -335 m 0
 679 -262 596 -250 450 -205 c 1
 501 -14 l 1
 319 14 130 134 130 471 c 0
 130 875 380 1006 609 1006 c 0
 704 1006 799 985 886 947 c 1
 846 827 l 1
 776 851 703 865 629 865 c 0
 467 865 289 793 289 506 c 0
 289 193 474 115 647 115 c 0
 711 115 775 127 835 148 c 1
 875 35 l 1
 785 0 699 -15 627 -19 c 1
 595 -145 l 1
 641 -159 779 -188.136 779 -324.136 c 0
 779 -410.136 708 -507.136 575 -507.136 c 0
 501 -507.136 401 -472.136 347 -456.136 c 1
 373 -365.136 l 1
 493 -401.136 538 -412.136 579 -412.136 c 0
 643 -412.136 679 -375 679 -335 c 0
EndSplineSet
Fore
SplineSet
578 -321 m 0xb8
 622 -320 653 -304 658 -285 c 0
 659 -283 659 -281 659 -279 c 0
 659 -248 587 -234 451 -196 c 1
 411 -185 l 1
 512 -17 l 1
 353 14 230 100 230 286 c 0
 230 334 238 389 256 451 c 0
 369 845 701 974 986 974 c 0
 1100 974 1193 952 1272 912 c 2
 1302 897 l 1
 1183 703 l 1
 1148 716 l 2
 1090 738 1026 751 947 751 c 0
 772 751 582 697 520 479 c 0
 509 441 504 408 504 378 c 0
 504 236 621 179 804 179 c 0
 870 179 930 189 991 209 c 1
 1033 222 l 1
 1046 38 l 1
 1005 24 l 2
 913 -7 829 -24 751 -30 c 1
 726 -72 l 1
 782 -90 860 -126 860 -218 c 0
 860 -235 857 -255 851 -276 c 0
 820 -383 700 -498 526 -498 c 0xb8
 438 -498 355 -471 261 -445 c 1
 218 -434 l 1
 325 -264 l 1x78
 367 -276 l 2
 492 -311 538 -321 575 -321 c 0
 576 -321 577 -321 578 -321 c 0xb8
EndSplineSet
Validated: 1
EndChar

StartChar: cedilla
Encoding: 184 184 126
Width: 1101
VWidth: 0
Flags: HW
LayerCount: 2
Fore
SplineSet
514 -361 m 0
 561 -361 580 -339 584 -324 c 0
 585 -321 585 -318 585 -316 c 0
 585 -286 527 -273 410 -234 c 1
 375 -223 l 1
 534 63 l 1
 745 63 l 1
 653 -107 l 1
 702 -125 778 -163 778 -255 c 0
 778 -273 775 -292 769 -314 c 0
 738 -422 616 -538 460 -538 c 0
 385 -538 315 -511 235 -485 c 1
 199 -474 l 1
 297 -304 l 1
 333 -316 l 2
 429 -348 479 -361 514 -361 c 0
EndSplineSet
Validated: 1
EndChar

StartChar: Ccedilla
Encoding: 199 199 127
Width: 1615
VWidth: 0
Flags: HW
LayerCount: 2
Back
SplineSet
1097.58 -315.784 m 0
 1097.58 -412.912 1016.21 -505.817 885.608 -505.817 c 0
 832.05 -505.817 797.986 -496.673 682.5 -462.706 c 2
 648.5 -452.706 l 1
 678.5 -348.706 l 1
 708.5 -357.706 l 2
 817.019 -389.693 856.083 -398.76 892.979 -398.76 c 0
 952.768 -398.76 985.135 -364.591 985.135 -328.141 c 0
 985.135 -265.58 905.118 -246.979 887.5 -241.706 c 2
 750.5 -200.706 l 1
 804.979 -2.12062 l 1
 471.326 71.2018 275 361.47 275 709 c 0
 275 1118 548 1431 986 1431 c 0
 1092 1431 1228 1412 1372 1355 c 1
 1320 1214 l 1
 1158 1270 1049 1281 981 1281 c 0
 650 1281 445 1007 445 710 c 0
 445 399 666 136 1018 136 c 0
 1114 136 1225 155 1339 196 c 1
 1391 70 l 1
 1247 8 1100 -20 975 -20 c 0
 965.479 -20 956.04 -19.8445 946.683 -19.5362 c 1
 917.516 -134.911 l 1
 937.638 -140.947 1097.58 -171.085 1097.58 -315.784 c 0
EndSplineSet
Fore
SplineSet
892 -317 m 0xb8
 941 -317 956 -296 959 -286 c 0
 960 -284 960 -283 960 -281 c 0
 960 -253 888 -236 757 -199 c 2
 717 -188 l 1
 834 9 l 1
 573 76 447 260 447 493 c 0
 447 562 457 635 479 710 c 0
 597 1120 990 1431 1497 1431 c 0
 1619 1431 1765 1411 1898 1352 c 1
 1930 1337 l 1
 1789 1121 l 1
 1755 1134 l 1
 1608 1189 1496 1199 1426 1199 c 0
 1088 1199 812 965 739 710 c 0
 727 667 720 625 720 584 c 0
 720 377 881 218 1185 218 c 0
 1285 218 1406 237 1527 276 c 2
 1568 289 l 1
 1593 89 l 1
 1551 73 l 2
 1385 9 1215 -19 1073 -20 c 1
 1048 -66 l 1
 1145 -99 1186 -159 1186 -225 c 0
 1186 -355 1027 -506 832 -506 c 0xb8
 777 -506 758 -505 572 -451 c 1
 532 -440 l 1
 643 -257 l 1x78
 683 -269 l 2
 776 -297 844 -317 892 -317 c 0xb8
EndSplineSet
Validated: 1
EndChar

StartChar: dieresis
Encoding: 168 168 128
Width: 1200
VWidth: 0
Flags: HW
LayerCount: 2
Fore
SplineSet
661 1462 m 1
 928 1462 l 1
 851 1194 l 1
 584 1194 l 1
 661 1462 l 1
1110 1462 m 1
 1377 1462 l 1
 1300 1194 l 1
 1033 1194 l 1
 1110 1462 l 1
EndSplineSet
Validated: 1
EndChar

StartChar: Adieresis
Encoding: 196 196 129
Width: 1547
VWidth: 0
Flags: HW
LayerCount: 2
Fore
SplineSet
1100 1421 m 1
 1376 1421 l 1
 1531 0 l 1
 1272 0 l 1
 1220 372 l 1
 640 372 l 1
 374 0 l 1
 130 0 l 1
 1100 1421 l 1
1198 603 m 1
 1147 1130 l 1
 793 603 l 1
 1198 603 l 1
983 1897 m 1
 1277 1897 l 1
 1200 1630 l 1
 906 1630 l 1
 983 1897 l 1
1476 1897 m 1
 1770 1897 l 1
 1693 1630 l 1
 1399 1630 l 1
 1476 1897 l 1
EndSplineSet
Validated: 1
EndChar

StartChar: Edieresis
Encoding: 203 203 130
Width: 1447
VWidth: 2097
Flags: HW
LayerCount: 2
Fore
SplineSet
697 1421 m 1xfa
 1694 1421 l 1
 1628 1189 l 1
 884 1189 l 1
 786 848 l 1
 1475 848 l 1
 1409 616 l 1
 720 616 l 1
 610 232 l 1
 1354 232 l 1
 1287 0 l 1
 290 0 l 1
 697 1421 l 1xfa
934 1898 m 1xf6
 1224 1898 l 1
 1148 1631 l 1
 858 1631 l 1
 934 1898 l 1xf6
1441 1898 m 1
 1731 1898 l 1
 1655 1631 l 1
 1365 1631 l 1
 1441 1898 l 1
EndSplineSet
Validated: 1
EndChar

StartChar: Idieresis
Encoding: 207 207 131
Width: 752
VWidth: 0
Flags: HW
LayerCount: 2
Fore
SplineSet
697 1421 m 1xe8
 949 1421 l 1
 542 0 l 1
 290 0 l 1
 697 1421 l 1xe8
611 1824 m 1xf0
 878 1824 l 1
 801 1557 l 1
 534 1557 l 1
 611 1824 l 1xf0
1000 1824 m 1xe4
 1267 1824 l 1
 1190 1557 l 1
 923 1557 l 1
 1000 1824 l 1xe4
EndSplineSet
Validated: 1
EndChar

StartChar: Odieresis
Encoding: 214 214 132
Width: 1850
VWidth: 0
Flags: HW
LayerCount: 2
Fore
SplineSet
1378 1436 m 0
 1733 1436 1957 1254 1957 947 c 0
 1957 879 1946 805 1923 726 c 0
 1797 285 1404 -15 954 -15 c 0
 635 -15 383 148 383 477 c 0
 383 546 394 623 418 707 c 0
 546 1152 938 1436 1378 1436 c 0
1660 709 m 0
 1677 768 1685 821 1685 869 c 0
 1685 1105 1496 1205 1299 1205 c 0
 1073 1205 777 1063 681 727 c 0
 664 668 656 614 656 564 c 0
 656 346 809 216 1035 216 c 0
 1264 216 1560 361 1660 709 c 0
1130 1898 m 1
 1421 1898 l 1
 1345 1631 l 1
 1054 1631 l 1
 1130 1898 l 1
1619 1898 m 1
 1910 1898 l 1
 1834 1631 l 1
 1543 1631 l 1
 1619 1898 l 1
EndSplineSet
Validated: 1
EndChar

StartChar: Udieresis
Encoding: 220 220 133
Width: 1744
VWidth: 0
Flags: HW
LayerCount: 2
Fore
SplineSet
697 1421 m 1xf2
 949 1421 l 1
 691 520 l 2
 680 480 672 440 672 402 c 0
 672 295 737 209 972 209 c 0
 1268 209 1381 345 1431 520 c 2
 1689 1421 l 1
 1941 1421 l 1
 1676 495 l 2
 1634 348 1522 -20 898 -20 c 0
 486 -20 399 150 399 305 c 0
 399 378 418 448 432 495 c 2
 697 1421 l 1xf2
1057 1898 m 1xe8
 1354 1898 l 1
 1278 1631 l 1
 981 1631 l 1
 1057 1898 l 1xe8
1558 1898 m 1xe4
 1855 1898 l 1
 1779 1631 l 1
 1482 1631 l 1
 1558 1898 l 1xe4
EndSplineSet
Validated: 1
EndChar

StartChar: adieresis
Encoding: 228 228 134
Width: 1227
VWidth: 0
Flags: HW
LayerCount: 2
Fore
SplineSet
1184 1421 m 1x39
 1456 1421 l 1
 1379 1153 l 1
 1107 1153 l 1
 1184 1421 l 1x39
663 1421 m 1x3a
 966 1421 l 1
 890 1153 l 1
 587 1153 l 1
 663 1421 l 1x3a
868 251 m 1xbc80
 906 384 l 1
 882 384 l 2
 616 384 469 358 448 285 c 0
 447 282 447 278 447 275 c 0
 447 234 516 191 630 191 c 0
 652 191 757 192 868 251 c 1xbc80
865 981 m 0
 1157 981 1244 883 1244 752 c 0
 1244 713 1236 671 1224 628 c 2
 1044 0 l 1
 860 0 l 1x7c80
 851 65 l 1
 757 15 637 -20 515 -20 c 0
 304 -20 188 85 188 209 c 0
 188 228 190 247 196 267 c 0
 267 515 591 565 959 569 c 1
 969 602 l 1
 975 622 980 643 980 662 c 0
 980 717 940 764 770 764 c 0
 709 764 609 755 473 723 c 2
 430 713 l 1
 435 906 l 1
 473 918 l 1
 612 965 753 981 865 981 c 0
EndSplineSet
Validated: 1
EndChar

StartChar: edieresis
Encoding: 235 235 135
Width: 1255
VWidth: 0
Flags: HW
LayerCount: 2
Fore
SplineSet
969 982 m 0xbe
 1233 982 1302 860 1302 718 c 0
 1302 637 1279 549 1258 475 c 2
 1227 365 l 1
 479 365 l 1
 480 282 579 193 812 193 c 0xbe
 905 193 994 211 1053 227 c 2
 1096 238 l 1
 1091 49 l 1
 1052 37 l 2x7e
 956 7 828 -20 679 -20 c 0
 335 -20 232 127 232 297 c 0
 232 348 241 401 256 452 c 0
 362 822 673 982 969 982 c 0xbe
863 758 m 0
 698 758 580 670 536 571 c 1
 1045 571 l 1
 1049 591 1051 610 1051 626 c 0
 1051 724 978 758 863 758 c 0
695 1421 m 1
 997 1421 l 1
 920 1153 l 1
 618 1153 l 1
 695 1421 l 1
1209 1421 m 1
 1488 1421 l 1
 1411 1153 l 1
 1132 1153 l 1
 1209 1421 l 1
EndSplineSet
Validated: 1
EndChar

StartChar: idieresis
Encoding: 239 239 136
Width: 606
VWidth: 0
Flags: HW
LayerCount: 2
Fore
SplineSet
463 988 m 1xe8
 709 988 l 1
 426 0 l 1
 180 0 l 1
 463 988 l 1xe8
392 1421 m 1xf0
 659 1421 l 1
 583 1154 l 1
 316 1154 l 1
 392 1421 l 1xf0
761 1421 m 1xe4
 1028 1421 l 1
 952 1154 l 1
 685 1154 l 1
 761 1421 l 1xe4
EndSplineSet
Validated: 1
EndChar

StartChar: odieresis
Encoding: 246 246 137
Width: 1369
VWidth: 0
Flags: HW
LayerCount: 2
Fore
SplineSet
970 982 m 0xf2
 1235 982 1403 865 1403 648 c 0
 1403 603 1395 553 1380 499 c 0
 1288 178 1007 -20 663 -20 c 0
 396 -20 238 103 238 317 c 0
 238 364 246 416 262 472 c 0
 352 785 624 982 970 982 c 0xf2
890 760 m 0
 743 760 562 674 511 496 c 0
 503 468 499 440 499 414 c 0
 499 291 589 202 748 202 c 0
 917 202 1082 305 1130 471 c 0
 1138 500 1142 527 1142 552 c 0
 1142 691 1020 760 890 760 c 0
723 1421 m 1xe8
 1022 1421 l 1
 945 1153 l 1
 646 1153 l 1
 723 1421 l 1xe8
1226 1421 m 1xe4
 1516 1421 l 1
 1439 1153 l 1
 1149 1153 l 1
 1226 1421 l 1xe4
EndSplineSet
Validated: 1
EndChar

StartChar: udieresis
Encoding: 252 252 138
Width: 1335
VWidth: 0
Flags: HW
LayerCount: 2
Fore
SplineSet
1188 988 m 1xb9
 1434 988 l 1
 1151 0 l 1
 968 0 l 1x79
 958 67 l 1
 777 -3 638 -20 549 -20 c 0
 323 -20 258 83 258 212 c 0
 258 273 272 340 291 404 c 2
 459 988 l 1
 705 988 l 1
 538 406 l 2
 532 385 525 358 525 330 c 0
 525 270 557 209 700 209 c 0
 800 209 913 241 981 264 c 1
 1188 988 l 1xb9
679 1421 m 1x34
 970 1421 l 1
 893 1153 l 1
 602 1153 l 1
 679 1421 l 1x34
1182 1421 m 1x32
 1471 1421 l 1
 1394 1153 l 1
 1105 1153 l 1
 1182 1421 l 1x32
EndSplineSet
Validated: 1
EndChar

StartChar: ydieresis
Encoding: 255 255 139
Width: 1208
VWidth: 0
Flags: HW
LayerCount: 2
Fore
SplineSet
332 988 m 1xe4
 591 988 l 1
 700 229 l 1
 1220 988 l 1
 1479 988 l 1
 396 -531 l 1
 100 -531 l 1
 499 3 l 1
 332 988 l 1xe4
646 1421 m 1xd0
 943 1421 l 1
 866 1153 l 1
 569 1153 l 1
 646 1421 l 1xd0
1147 1421 m 1xc8
 1439 1421 l 1
 1362 1153 l 1
 1070 1153 l 1
 1147 1421 l 1xc8
EndSplineSet
Validated: 1
EndChar

StartChar: dotlessi
Encoding: 305 305 140
Width: 606
VWidth: 2097
Flags: HW
LayerCount: 2
Fore
SplineSet
456 963 m 1
 702 963 l 1
 426 0 l 1
 180 0 l 1
 456 963 l 1
EndSplineSet
Validated: 1
EndChar

StartChar: Agrave
Encoding: 192 192 141
Width: 1547
VWidth: 0
Flags: HW
LayerCount: 2
Fore
SplineSet
1100 1421 m 1
 1376 1421 l 1
 1531 0 l 1
 1272 0 l 1
 1220 372 l 1
 640 372 l 1
 374 0 l 1
 130 0 l 1
 1100 1421 l 1
1198 603 m 1
 1147 1130 l 1
 793 603 l 1
 1198 603 l 1
1147 1945 m 1
 1677 1592 l 1
 1513 1414 l 1
 969 1750 l 1
 1147 1945 l 1
EndSplineSet
Validated: 1
EndChar

StartChar: Aacute
Encoding: 193 193 142
Width: 1547
VWidth: 0
Flags: HW
LayerCount: 2
Fore
SplineSet
1100 1421 m 1
 1376 1421 l 1
 1531 0 l 1
 1272 0 l 1
 1220 372 l 1
 640 372 l 1
 374 0 l 1
 130 0 l 1
 1100 1421 l 1
1198 603 m 1
 1147 1130 l 1
 793 603 l 1
 1198 603 l 1
1628 1945 m 1
 1695 1750 l 1
 956 1414 l 1
 895 1592 l 1
 1628 1945 l 1
EndSplineSet
Validated: 1
EndChar

StartChar: Acircumflex
Encoding: 194 194 143
Width: 1547
VWidth: 0
Flags: HW
LayerCount: 2
Fore
SplineSet
1100 1421 m 1
 1376 1421 l 1
 1531 0 l 1
 1272 0 l 1
 1220 372 l 1
 640 372 l 1
 374 0 l 1
 130 0 l 1
 1100 1421 l 1
1198 603 m 1
 1147 1130 l 1
 793 603 l 1
 1198 603 l 1
1411 1943 m 1
 1654 1595 l 1
 1446 1450 l 1
 1309 1644 l 1
 1059 1453 l 1
 932 1586 l 1
 1411 1943 l 1
EndSplineSet
Validated: 1
EndChar

StartChar: Atilde
Encoding: 195 195 144
Width: 1547
VWidth: 0
Flags: HW
LayerCount: 2
Fore
SplineSet
1640 1884 m 1xf7
 1837 1854 l 1
 1816 1812 l 1
 1760 1696 1680 1492 1461 1492 c 1xf7
 1260 1500 1221 1674 1163 1674 c 0
 1123 1674 1089 1597 1053 1525 c 2
 1034 1487 l 1
 834 1513 l 1
 855 1556 l 1
 912 1669 995 1876 1214 1876 c 1xef
 1414 1868 1455 1695 1512 1695 c 0
 1551 1695 1580 1766 1620 1845 c 2
 1640 1884 l 1xf7
1198 603 m 1
 1147 1130 l 1
 793 603 l 1
 1198 603 l 1
1100 1421 m 1
 1376 1421 l 1
 1531 0 l 1
 1272 0 l 1xe680
 1220 372 l 1
 640 372 l 1
 374 0 l 1
 130 0 l 1
 1100 1421 l 1
EndSplineSet
Validated: 1
EndChar

StartChar: Aring
Encoding: 197 197 145
Width: 1547
VWidth: 0
Flags: HW
LayerCount: 2
Fore
SplineSet
1370 1873 m 0
 1541 1873 1631 1769 1631 1647 c 0
 1631 1535 1554 1408 1391 1335 c 1
 1531 0 l 1
 1272 0 l 1
 1220 372 l 1
 640 372 l 1
 374 0 l 1
 130 0 l 1
 1038 1337 l 1
 970 1380 940 1441 940 1507 c 0
 940 1675 1134 1873 1370 1873 c 0
1319 1687 m 0
 1220 1687 1157 1609 1157 1545 c 0
 1157 1501 1187 1465 1255 1465 c 0
 1326 1465 1392 1519 1409 1577 c 0
 1412 1586 1413 1595 1413 1604 c 0
 1413 1650 1379 1687 1319 1687 c 0
1198 603 m 1
 1147 1130 l 1
 793 603 l 1
 1198 603 l 1
EndSplineSet
Validated: 1
EndChar

StartChar: uni00B2
Encoding: 178 178 146
Width: 800
VWidth: 0
Flags: HW
LayerCount: 2
Fore
SplineSet
359 827 m 1
 540 1131 825 1226 849 1311 c 0
 850 1316 851 1321 851 1326 c 0
 851 1360 819 1396 754 1396 c 0
 720 1396 673 1387 562 1347 c 2
 537 1338 l 1
 520 1473 l 1
 544 1483 l 1
 612 1513 707 1549 814 1549 c 0
 942 1549 1029 1484 1029 1382 c 0
 1029 1364 1027 1345 1021 1325 c 0
 967 1137 729 1074 580 888 c 1
 909 888 l 1
 864 733 l 1
 332 733 l 1
 359 827 l 1
EndSplineSet
Validated: 1
EndChar

StartChar: uni00B3
Encoding: 179 179 147
Width: 800
VWidth: 2097
Flags: HW
LayerCount: 2
Fore
SplineSet
802 1546 m 0xf0
 938 1546 1004 1473 1004 1386 c 0
 1004 1318 965 1242 889 1184 c 1
 925 1157 942 1116 942 1069 c 0
 942 924 783 725 535 725 c 0
 450 725 389 747 337 771 c 2
 318 780 l 1
 406 920 l 1
 427 914 l 1
 510 889 543 884 583 884 c 0
 661 884 743 926 761 988 c 0xe8
 764 998 765 1006 765 1014 c 0
 765 1079 675 1089 589 1089 c 2
 564 1089 l 1
 608 1242 l 1
 633 1242 l 2
 714 1242 809 1258 828 1324 c 0
 829 1328 830 1332 830 1336 c 0
 830 1362 807 1389 746 1389 c 0
 682 1389 616 1362 574 1345 c 2
 548 1334 l 1
 530 1474 l 1
 554 1485 l 1
 616 1511 704 1546 802 1546 c 0xf0
EndSplineSet
Validated: 1
EndChar

StartChar: acute
Encoding: 180 180 148
Width: 1122
VWidth: 2097
Flags: HW
LayerCount: 2
Fore
SplineSet
1264 1642 m 1
 1319 1447 l 1
 640 1111 l 1
 589 1289 l 1
 1264 1642 l 1
EndSplineSet
Validated: 1
EndChar

StartChar: uni00B9
Encoding: 185 185 149
Width: 543
VWidth: 0
Flags: HW
LayerCount: 2
Fore
SplineSet
688 1536 m 1
 808 1536 l 1
 579 735 l 1
 416 735 l 1
 598 1370 l 1
 449 1331 l 1
 454 1477 l 1
 688 1536 l 1
EndSplineSet
Validated: 1
EndChar

StartChar: ordmasculine
Encoding: 186 186 150
Width: 753
VWidth: 2097
Flags: HW
LayerCount: 2
Fore
SplineSet
773 1391 m 0
 705 1391 593 1355 534 1149 c 0
 518 1092 511 1047 511 1011 c 0
 511 899 577 877 628 877 c 0
 696 877 809 915 874 1142 c 0
 888 1191 894 1231 894 1263 c 0
 894 1372 826 1391 773 1391 c 0
1039 1145 m 0
 964 882 771 727 583 727 c 0
 453 727 341 787 341 965 c 0
 341 1016 350 1075 370 1146 c 0
 447 1413 651 1544 819 1544 c 0
 926 1544 1065 1500 1065 1309 c 0
 1065 1263 1057 1209 1039 1145 c 0
EndSplineSet
Validated: 1
EndChar

StartChar: Egrave
Encoding: 200 200 151
Width: 1447
VWidth: 0
Flags: HW
LayerCount: 2
Fore
SplineSet
697 1421 m 1
 1694 1421 l 1
 1628 1189 l 1
 884 1189 l 1
 786 848 l 1
 1475 848 l 1
 1409 616 l 1
 720 616 l 1
 610 232 l 1
 1354 232 l 1
 1287 0 l 1
 290 0 l 1
 697 1421 l 1
1069 1965 m 1
 1624 1612 l 1
 1469 1434 l 1
 901 1770 l 1
 1069 1965 l 1
EndSplineSet
Validated: 1
EndChar

StartChar: Eacute
Encoding: 201 201 152
Width: 1447
VWidth: 0
Flags: HW
LayerCount: 2
Fore
SplineSet
697 1421 m 1
 1694 1421 l 1
 1628 1189 l 1
 884 1189 l 1
 786 848 l 1
 1475 848 l 1
 1409 616 l 1
 720 616 l 1
 610 232 l 1
 1354 232 l 1
 1287 0 l 1
 290 0 l 1
 697 1421 l 1
1653 1965 m 1
 1709 1770 l 1
 947 1434 l 1
 896 1612 l 1
 1653 1965 l 1
EndSplineSet
Validated: 1
EndChar

StartChar: Ecircumflex
Encoding: 202 202 153
Width: 1447
VWidth: 0
Flags: HW
LayerCount: 2
Fore
SplineSet
697 1421 m 1
 1694 1421 l 1
 1628 1189 l 1
 884 1189 l 1
 786 848 l 1
 1475 848 l 1
 1409 616 l 1
 720 616 l 1
 610 232 l 1
 1354 232 l 1
 1287 0 l 1
 290 0 l 1
 697 1421 l 1
1365 1951 m 1
 1615 1602 l 1
 1413 1458 l 1
 1262 1652 l 1
 995 1461 l 1
 877 1594 l 1
 1365 1951 l 1
EndSplineSet
Validated: 1
EndChar

StartChar: Icircumflex
Encoding: 206 206 154
Width: 812
VWidth: 0
Flags: HW
LayerCount: 2
Fore
SplineSet
745 1421 m 1
 997 1421 l 1
 590 0 l 1
 338 0 l 1
 745 1421 l 1
1039 1943 m 5
 1251 1594 l 5
 1056 1450 l 5
 938 1644 l 5
 707 1453 l 5
 595 1586 l 5
 1039 1943 l 5
EndSplineSet
Validated: 1
EndChar

StartChar: Igrave
Encoding: 204 204 155
Width: 812
VWidth: 0
Flags: HW
LayerCount: 2
Fore
SplineSet
742 1421 m 1
 994 1421 l 1
 587 0 l 1
 335 0 l 1
 742 1421 l 1
806 1943 m 1
 1279 1590 l 1
 1124 1414 l 1
 637 1748 l 1
 806 1943 l 1
EndSplineSet
Validated: 1
EndChar

StartChar: Iacute
Encoding: 205 205 156
Width: 894
VWidth: 0
Flags: HW
LayerCount: 2
Fore
SplineSet
823 1421 m 1
 1075 1421 l 1
 668 0 l 1
 416 0 l 1
 823 1421 l 1
1341 1946 m 5
 1396 1751 l 5
 634 1414 l 5
 584 1593 l 5
 1341 1946 l 5
EndSplineSet
Validated: 1
EndChar

StartChar: Ntilde
Encoding: 209 209 157
Width: 1823
VWidth: 0
Flags: HW
LayerCount: 2
Fore
SplineSet
1770 1884 m 1xe6
 1967 1854 l 1
 1946 1812 l 1
 1890 1696 1810 1492 1591 1492 c 1xe6
 1390 1500 1351 1674 1293 1674 c 0
 1253 1674 1219 1597 1183 1525 c 2
 1164 1487 l 1
 964 1513 l 1
 985 1556 l 1
 1042 1669 1125 1876 1344 1876 c 1xd6
 1544 1868 1585 1695 1642 1695 c 0
 1681 1695 1710 1766 1750 1845 c 2
 1770 1884 l 1xe6
697 1421 m 1xc9
 975 1421 l 1
 1455 329 l 1
 1768 1421 l 1
 2020 1421 l 1
 1613 0 l 1
 1332 0 l 1
 856 1094 l 1
 542 0 l 1
 290 0 l 1
 697 1421 l 1xc9
EndSplineSet
Validated: 1
EndChar

StartChar: Ograve
Encoding: 210 210 158
Width: 1850
VWidth: 0
Flags: HW
LayerCount: 2
Fore
SplineSet
1378 1436 m 0
 1733 1436 1957 1254 1957 947 c 0
 1957 879 1946 805 1923 726 c 0
 1797 285 1404 -15 954 -15 c 0
 635 -15 383 148 383 477 c 0
 383 546 394 623 418 707 c 0
 546 1152 938 1436 1378 1436 c 0
1660 709 m 0
 1677 768 1685 821 1685 869 c 0
 1685 1105 1496 1205 1299 1205 c 0
 1073 1205 777 1063 681 727 c 0
 664 668 656 614 656 564 c 0
 656 346 809 216 1035 216 c 0
 1264 216 1560 361 1660 709 c 0
1349 1948 m 1
 1872 1595 l 1
 1708 1417 l 1
 1171 1753 l 1
 1349 1948 l 1
EndSplineSet
Validated: 1
EndChar

StartChar: Oacute
Encoding: 211 211 159
Width: 1850
VWidth: 0
Flags: HW
LayerCount: 2
Fore
SplineSet
1378 1436 m 0
 1733 1436 1957 1254 1957 947 c 0
 1957 879 1946 805 1923 726 c 0
 1797 285 1404 -15 954 -15 c 0
 635 -15 383 148 383 477 c 0
 383 546 394 623 418 707 c 0
 546 1152 938 1436 1378 1436 c 0
1660 709 m 0
 1677 768 1685 821 1685 869 c 0
 1685 1105 1496 1205 1299 1205 c 0
 1073 1205 777 1063 681 727 c 0
 664 668 656 614 656 564 c 0
 656 346 809 216 1035 216 c 0
 1264 216 1560 361 1660 709 c 0
1783 1946 m 1
 1848 1751 l 1
 1116 1414 l 1
 1057 1593 l 1
 1783 1946 l 1
EndSplineSet
Validated: 1
EndChar

StartChar: Ocircumflex
Encoding: 212 212 160
Width: 1850
VWidth: 0
Flags: HW
LayerCount: 2
Fore
SplineSet
1378 1436 m 0
 1733 1436 1957 1254 1957 947 c 0
 1957 879 1946 805 1923 726 c 0
 1797 285 1404 -15 954 -15 c 0
 635 -15 383 148 383 477 c 0
 383 546 394 623 418 707 c 0
 546 1152 938 1436 1378 1436 c 0
1660 709 m 0
 1677 768 1685 821 1685 869 c 0
 1685 1105 1496 1205 1299 1205 c 0
 1073 1205 777 1063 681 727 c 0
 664 668 656 614 656 564 c 0
 656 346 809 216 1035 216 c 0
 1264 216 1560 361 1660 709 c 0
1555 1943 m 1
 1794 1595 l 1
 1587 1450 l 1
 1453 1644 l 1
 1205 1453 l 1
 1080 1586 l 1
 1555 1943 l 1
EndSplineSet
Validated: 1
EndChar

StartChar: Otilde
Encoding: 213 213 161
Width: 1850
VWidth: 0
Flags: HW
LayerCount: 2
Fore
SplineSet
1782 1884 m 5xef
 1979 1854 l 5
 1958 1812 l 5
 1902 1696 1822 1492 1603 1492 c 5xef
 1402 1500 1363 1674 1305 1674 c 4
 1265 1674 1231 1597 1195 1525 c 6
 1176 1487 l 5
 976 1513 l 5
 997 1556 l 5
 1054 1669 1137 1876 1356 1876 c 5xdf
 1556 1868 1597 1695 1654 1695 c 4
 1693 1695 1722 1766 1762 1845 c 6
 1782 1884 l 5xef
1660 709 m 0
 1677 768 1685 821 1685 869 c 0
 1685 1104 1498 1205 1299 1205 c 0
 1073 1205 777 1063 681 727 c 0
 664 668 656 614 656 564 c 0
 656 346 809 216 1035 216 c 0
 1264 216 1560 361 1660 709 c 0
1378 1436 m 0
 1733 1436 1957 1254 1957 947 c 0
 1957 879 1946 805 1923 726 c 0
 1797 285 1404 -15 954 -15 c 0
 635 -15 383 148 383 477 c 0
 383 546 394 623 418 707 c 0
 546 1152 938 1436 1378 1436 c 0
EndSplineSet
Validated: 1
EndChar

StartChar: Ugrave
Encoding: 217 217 162
Width: 1744
VWidth: 0
Flags: HW
LayerCount: 2
Fore
SplineSet
697 1421 m 1
 949 1421 l 1
 691 520 l 2
 680 480 672 440 672 402 c 0
 672 295 737 209 972 209 c 0
 1268 209 1381 345 1431 520 c 2
 1689 1421 l 1
 1941 1421 l 1
 1676 495 l 2
 1634 348 1522 -20 898 -20 c 0
 486 -20 399 150 399 305 c 0
 399 378 418 448 432 495 c 2
 697 1421 l 1
1230 1973 m 5
 1772 1620 l 5
 1607 1444 l 5
 1048 1778 l 5
 1230 1973 l 5
EndSplineSet
Validated: 1
EndChar

StartChar: Uacute
Encoding: 218 218 163
Width: 1744
VWidth: 0
Flags: HW
LayerCount: 2
Fore
SplineSet
697 1421 m 1
 949 1421 l 1
 691 520 l 2
 680 480 672 440 672 402 c 0
 672 295 737 209 972 209 c 0
 1268 209 1381 345 1431 520 c 2
 1689 1421 l 1
 1941 1421 l 1
 1676 495 l 2
 1634 348 1522 -20 898 -20 c 0
 486 -20 399 150 399 305 c 0
 399 378 418 448 432 495 c 2
 697 1421 l 1
1759 1976 m 5
 1824 1781 l 5
 1075 1444 l 5
 1011 1623 l 5
 1759 1976 l 5
EndSplineSet
Validated: 1
EndChar

StartChar: Ucircumflex
Encoding: 219 219 164
Width: 1744
VWidth: 0
Flags: HW
LayerCount: 2
Fore
SplineSet
697 1421 m 1
 949 1421 l 1
 691 520 l 2
 680 480 672 440 672 402 c 0
 672 295 737 209 972 209 c 0
 1268 209 1381 345 1431 520 c 2
 1689 1421 l 1
 1941 1421 l 1
 1676 495 l 2
 1634 348 1522 -20 898 -20 c 0
 486 -20 399 150 399 305 c 0
 399 378 418 448 432 495 c 2
 697 1421 l 1
1486 1943 m 1
 1737 1594 l 1
 1523 1450 l 1
 1383 1644 l 1
 1130 1453 l 1
 999 1586 l 1
 1486 1943 l 1
EndSplineSet
Validated: 1
EndChar

StartChar: Yacute
Encoding: 221 221 165
Width: 1427
VWidth: 0
Flags: HW
LayerCount: 2
Fore
SplineSet
507 1421 m 1
 805 1421 l 1
 1027 870 l 1
 1573 1421 l 1
 1861 1421 l 1
 1099 664 l 1
 909 0 l 1
 626 0 l 1
 816 664 l 1
 507 1421 l 1
1594 1976 m 5
 1662 1781 l 5
 913 1444 l 5
 851 1623 l 5
 1594 1976 l 5
EndSplineSet
Validated: 1
EndChar

StartChar: agrave
Encoding: 224 224 166
Width: 1222
VWidth: 0
Flags: HW
LayerCount: 2
Fore
SplineSet
862 981 m 0xbc
 1151 981 1239 882 1239 751 c 0
 1239 712 1231 671 1219 628 c 2
 1039 0 l 1
 855 0 l 1x7c
 846 65 l 1
 754 15 634 -20 513 -20 c 0
 303 -20 188 84 188 208 c 0
 188 227 190 247 196 267 c 0
 267 515 589 565 955 569 c 1
 965 602 l 1
 971 622 975 643 975 662 c 0
 975 718 936 764 767 764 c 0
 706 764 607 755 472 723 c 2
 430 713 l 1
 435 906 l 1
 473 918 l 1
 611 965 750 981 862 981 c 0xbc
864 251 m 1
 902 384 l 1
 878 384 l 2
 616 384 469 358 448 285 c 0
 447 282 447 278 447 275 c 0
 447 234 514 191 628 191 c 0xbc
 649 191 754 192 864 251 c 1
948 1557 m 1
 1307 1162 l 1
 1128 992 l 1
 728 1376 l 1
 948 1557 l 1
EndSplineSet
Validated: 1
EndChar

StartChar: aacute
Encoding: 225 225 167
Width: 1222
VWidth: 0
Flags: HW
LayerCount: 2
Fore
SplineSet
1237 1567 m 1x3c
 1333 1386 l 1
 723 1002 l 1
 630 1172 l 1
 1237 1567 l 1x3c
864 251 m 1
 902 384 l 1
 878 384 l 2
 616 384 469 358 448 285 c 0
 447 282 447 278 447 275 c 0
 447 234 514 191 628 191 c 0xbc
 649 191 754 192 864 251 c 1
862 981 m 0
 1151 981 1239 882 1239 751 c 0
 1239 712 1231 671 1219 628 c 2
 1039 0 l 1
 855 0 l 1x7c
 846 65 l 1
 754 15 634 -20 513 -20 c 0
 303 -20 188 84 188 208 c 0
 188 227 190 247 196 267 c 0
 267 515 589 565 955 569 c 1
 965 602 l 1
 971 622 975 643 975 662 c 0
 975 718 936 764 767 764 c 0
 706 764 607 755 472 723 c 2
 430 713 l 1
 435 906 l 1
 473 918 l 1
 611 965 750 981 862 981 c 0
EndSplineSet
Validated: 1
EndChar

StartChar: acircumflex
Encoding: 226 226 168
Width: 1222
VWidth: 0
Flags: HW
LayerCount: 2
Fore
SplineSet
1059 1509 m 1x3c
 1294 1144 l 1
 1098 992 l 1
 952 1195 l 1
 680 995 l 1
 566 1134 l 1
 1059 1509 l 1x3c
864 251 m 1
 902 384 l 1
 878 384 l 2
 616 384 469 358 448 285 c 0
 447 282 447 278 447 275 c 0
 447 234 514 191 628 191 c 0xbc
 649 191 754 192 864 251 c 1
862 981 m 0
 1151 981 1239 882 1239 751 c 0
 1239 712 1231 671 1219 628 c 2
 1039 0 l 1
 855 0 l 1x7c
 846 65 l 1
 754 15 634 -20 513 -20 c 0
 303 -20 188 84 188 208 c 0
 188 227 190 247 196 267 c 0
 267 515 589 565 955 569 c 1
 965 602 l 1
 971 622 975 643 975 662 c 0
 975 718 936 764 767 764 c 0
 706 764 607 755 472 723 c 2
 430 713 l 1
 435 906 l 1
 473 918 l 1
 611 965 750 981 862 981 c 0
EndSplineSet
Validated: 1
EndChar

StartChar: atilde
Encoding: 227 227 169
Width: 1221
VWidth: 0
Flags: HW
LayerCount: 2
Fore
SplineSet
1294 1450 m 5x3b
 1474 1417 l 5
 1411 1290 l 6
 1393 1253 1307 1055 1119 1055 c 5x3b
 902 1063 857 1236 794 1236 c 4
 752 1236 720 1165 706 1137 c 6
 661 1048 l 5
 479 1076 l 5
 542 1204 l 6
 561 1242 646 1439 845 1439 c 5x37
 1058 1431 1111 1257 1170 1257 c 4
 1210 1257 1244 1344 1251 1357 c 6
 1294 1450 l 5x3b
858 251 m 1
 896 384 l 1
 872 384 l 2
 614 384 469 358 448 285 c 0
 447 282 447 278 447 275 c 0
 447 234 513 191 625 191 c 0xb3
 646 191 749 192 858 251 c 1
859 981 m 0
 1151 981 1239 882 1239 751 c 0
 1239 712 1231 671 1219 628 c 2
 1039 0 l 1
 855 0 l 1x73
 846 65 l 1
 748 15 630 -20 511 -20 c 0
 304 -20 188 85 188 209 c 0
 188 228 190 247 196 267 c 0
 267 515 588 565 949 569 c 1
 959 602 l 1
 965 622 970 643 970 663 c 0
 970 718 931 764 765 764 c 0
 705 764 607 755 472 723 c 2
 430 713 l 1
 435 906 l 1
 473 918 l 1
 611 965 748 981 859 981 c 0
EndSplineSet
Validated: 1
EndChar

StartChar: aring
Encoding: 229 229 170
Width: 1227
VWidth: 0
Flags: HW
LayerCount: 2
Fore
SplineSet
1039 1400 m 0x3d80
 955 1400 900 1325 900 1266 c 0
 900 1227 924 1194 980 1194 c 0
 1038 1194 1097 1244 1113 1298 c 0
 1116 1307 1117 1316 1117 1325 c 0
 1117 1367 1087 1400 1039 1400 c 0x3d80
1087 1573 m 0
 1228 1573 1310 1491 1310 1376 c 0
 1310 1351 1306 1325 1298 1298 c 0
 1254 1145 1102 1021 930 1021 c 0
 784 1021 690 1109 690 1228 c 0
 690 1250 693 1274 700 1298 c 0
 743 1450 913 1573 1087 1573 c 0
870 251 m 1xbe40
 908 384 l 1
 883 384 l 2
 617 384 469 358 448 285 c 0
 447 282 447 278 447 275 c 0
 447 234 516 191 631 191 c 0
 653 191 759 192 870 251 c 1xbe40
865 981 m 0
 1157 981 1245 882 1245 751 c 0
 1245 712 1237 671 1225 628 c 2
 1045 0 l 1
 861 0 l 1x7e40
 851 65 l 1
 758 15 638 -20 516 -20 c 0
 304 -20 188 85 188 209 c 0
 188 228 190 247 196 267 c 0
 267 515 592 565 961 569 c 1
 970 602 l 2
 976 622 980 642 980 661 c 0
 980 717 941 764 770 764 c 0
 709 764 609 755 473 723 c 2
 430 713 l 1
 435 906 l 1
 473 918 l 1
 612 965 753 981 865 981 c 0
EndSplineSet
Validated: 1
EndChar

StartChar: egrave
Encoding: 232 232 171
Width: 1240
VWidth: 0
Flags: HW
LayerCount: 2
Fore
SplineSet
961 982 m 0xb0
 1220 982 1288 860 1288 719 c 0
 1288 637 1265 550 1244 475 c 1
 1212 365 l 1
 475 365 l 1
 477 282 574 193 803 193 c 0xb0
 895 193 982 211 1040 227 c 1
 1083 238 l 1
 1077 49 l 1
 1038 37 l 1x70
 944 7 818 -20 671 -20 c 0
 333 -20 232 127 232 296 c 0
 232 347 241 400 256 452 c 0
 362 822 669 982 961 982 c 0xb0
857 758 m 0
 695 758 580 670 536 571 c 1
 1036 571 l 1
 1040 591 1042 610 1042 627 c 0
 1042 725 970 758 857 758 c 0
956 1567 m 1
 1314 1172 l 1
 1136 1002 l 1
 740 1386 l 1
 956 1567 l 1
EndSplineSet
Validated: 1
EndChar

StartChar: eacute
Encoding: 233 233 172
Width: 1240
VWidth: 0
Flags: HW
LayerCount: 2
Fore
SplineSet
961 982 m 0xb0
 1220 982 1288 860 1288 719 c 0
 1288 637 1265 550 1244 475 c 1
 1212 365 l 1
 475 365 l 1
 477 282 574 193 803 193 c 0xb0
 895 193 982 211 1040 227 c 1
 1083 238 l 1
 1077 49 l 1
 1038 37 l 1x70
 944 7 818 -20 671 -20 c 0
 333 -20 232 127 232 296 c 0
 232 347 241 400 256 452 c 0
 362 822 669 982 961 982 c 0xb0
857 758 m 0
 695 758 580 670 536 571 c 1
 1036 571 l 1
 1040 591 1042 610 1042 627 c 0
 1042 725 970 758 857 758 c 0
1330 1567 m 1
 1420 1386 l 1
 829 1002 l 1
 727 1172 l 1
 1330 1567 l 1
EndSplineSet
Validated: 1
EndChar

StartChar: ecircumflex
Encoding: 234 234 173
Width: 1240
VWidth: 0
Flags: HW
LayerCount: 2
Fore
SplineSet
961 982 m 0xb0
 1220 982 1288 860 1288 719 c 0
 1288 637 1265 550 1244 475 c 1
 1212 365 l 1
 475 365 l 1
 477 282 574 193 803 193 c 0xb0
 895 193 982 211 1040 227 c 1
 1083 238 l 1
 1077 49 l 1
 1038 37 l 1x70
 944 7 818 -20 671 -20 c 0
 333 -20 232 127 232 296 c 0
 232 347 241 400 256 452 c 0
 362 822 669 982 961 982 c 0xb0
857 758 m 0
 695 758 580 670 536 571 c 1
 1036 571 l 1
 1040 591 1042 610 1042 627 c 0
 1042 725 970 758 857 758 c 0
1143 1509 m 1
 1368 1144 l 1
 1177 992 l 1
 1037 1195 l 1
 774 995 l 1
 648 1134 l 1
 1143 1509 l 1
EndSplineSet
Validated: 1
EndChar

StartChar: igrave
Encoding: 236 236 174
Width: 597
VWidth: 0
Flags: HW
LayerCount: 2
Fore
SplineSet
475 988 m 1
 721 988 l 1
 438 0 l 1
 192 0 l 1
 475 988 l 1
592 1567 m 1
 903 1189 l 1
 729 1026 l 1
 400 1394 l 1
 592 1567 l 1
EndSplineSet
Validated: 1
EndChar

StartChar: iacute
Encoding: 237 237 175
Width: 597
VWidth: 0
Flags: HW
LayerCount: 2
Fore
SplineSet
473 988 m 1
 719 988 l 1
 436 0 l 1
 190 0 l 1
 473 988 l 1
978 1567 m 1
 1071 1394 l 1
 531 1026 l 1
 450 1189 l 1
 978 1567 l 1
EndSplineSet
Validated: 1
EndChar

StartChar: icircumflex
Encoding: 238 238 176
Width: 603
VWidth: 0
Flags: HW
LayerCount: 2
Fore
SplineSet
474 988 m 1
 720 988 l 1
 437 0 l 1
 191 0 l 1
 474 988 l 1
755 1514 m 1
 930 1159 l 1
 740 1014 l 1
 649 1195 l 1
 453 1017 l 1
 346 1150 l 1
 755 1514 l 1
EndSplineSet
Validated: 1
EndChar

StartChar: ograve
Encoding: 242 242 177
Width: 1359
VWidth: 0
Flags: HW
LayerCount: 2
Fore
SplineSet
1036 1567 m 1
 1389 1172 l 1
 1203 1002 l 1
 820 1386 l 1
 1036 1567 l 1
885 760 m 0
 741 760 562 674 511 496 c 0
 503 467 499 439 499 413 c 0
 499 291 587 202 743 202 c 0
 909 202 1071 305 1119 471 c 0
 1128 501 1132 529 1132 554 c 0
 1132 692 1012 760 885 760 c 0
964 982 m 0
 1226 982 1392 865 1392 649 c 0
 1392 603 1385 553 1369 499 c 0
 1277 178 999 -20 658 -20 c 0
 394 -20 238 103 238 316 c 0
 238 364 246 416 262 472 c 0
 352 785 621 982 964 982 c 0
EndSplineSet
Validated: 1
EndChar

StartChar: oacute
Encoding: 243 243 178
Width: 1359
VWidth: 0
Flags: HW
LayerCount: 2
Fore
SplineSet
964 982 m 0
 1226 982 1392 865 1392 649 c 0
 1392 603 1385 553 1369 499 c 0
 1277 178 999 -20 658 -20 c 0
 394 -20 238 103 238 316 c 0
 238 364 246 416 262 472 c 0
 352 785 621 982 964 982 c 0
885 760 m 0
 741 760 562 674 511 496 c 0
 503 467 499 439 499 413 c 0
 499 291 587 202 743 202 c 0
 909 202 1071 305 1119 471 c 0
 1128 501 1132 529 1132 554 c 0
 1132 692 1012 760 885 760 c 0
1243 1567 m 1
 1355 1386 l 1
 752 1002 l 1
 660 1172 l 1
 1243 1567 l 1
EndSplineSet
Validated: 1
EndChar

StartChar: ocircumflex
Encoding: 244 244 179
Width: 1359
VWidth: 0
Flags: HW
LayerCount: 2
Fore
SplineSet
964 982 m 0
 1226 982 1392 865 1392 649 c 0
 1392 603 1385 553 1369 499 c 0
 1277 178 999 -20 658 -20 c 0
 394 -20 238 103 238 316 c 0
 238 364 246 416 262 472 c 0
 352 785 621 982 964 982 c 0
885 760 m 0
 741 760 562 674 511 496 c 0
 503 467 499 439 499 413 c 0
 499 291 587 202 743 202 c 0
 909 202 1071 305 1119 471 c 0
 1128 501 1132 529 1132 554 c 0
 1132 692 1012 760 885 760 c 0
1131 1509 m 1
 1369 1144 l 1
 1163 992 l 1
 1025 1195 l 1
 768 995 l 1
 646 1134 l 1
 1131 1509 l 1
EndSplineSet
Validated: 1
EndChar

StartChar: otilde
Encoding: 245 245 180
Width: 1359
VWidth: 0
Flags: HW
LayerCount: 2
Fore
SplineSet
1356 1454 m 1xec
 1535 1421 l 1
 1473 1294 l 2
 1455 1257 1369 1059 1182 1059 c 1xec
 966 1067 921 1240 859 1240 c 0
 817 1240 785 1169 771 1141 c 2
 726 1052 l 1
 545 1080 l 1
 608 1208 l 2
 627 1246 711 1443 909 1443 c 1xdc
 1121 1435 1174 1261 1232 1261 c 0
 1272 1261 1306 1348 1313 1361 c 2
 1356 1454 l 1xec
885 760 m 0
 741 760 562 674 511 496 c 0
 503 467 499 439 499 413 c 0
 499 291 587 202 743 202 c 0
 909 202 1071 305 1119 471 c 0
 1128 501 1132 529 1132 554 c 0
 1132 692 1012 760 885 760 c 0
964 982 m 0
 1226 982 1392 865 1392 649 c 0
 1392 603 1385 553 1369 499 c 0
 1277 178 999 -20 658 -20 c 0
 394 -20 238 103 238 316 c 0
 238 364 246 416 262 472 c 0
 352 785 621 982 964 982 c 0
EndSplineSet
Validated: 1
EndChar

StartChar: ugrave
Encoding: 249 249 181
Width: 1328
VWidth: 0
Flags: HW
LayerCount: 2
Fore
SplineSet
1182 988 m 1xb8
 1428 988 l 1
 1144 0 l 1
 961 0 l 1x78
 951 67 l 1
 772 -3 635 -20 546 -20 c 0
 322 -20 258 82 258 211 c 0
 258 272 272 339 291 404 c 2
 459 988 l 1
 705 988 l 1
 538 406 l 2
 532 385 525 357 525 329 c 0
 525 270 557 209 697 209 c 0
 795 209 907 241 974 264 c 1
 1182 988 l 1xb8
974 1567 m 1
 1344 1189 l 1
 1163 1026 l 1
 763 1394 l 1
 974 1567 l 1
EndSplineSet
Validated: 1
EndChar

StartChar: uacute
Encoding: 250 250 182
Width: 1328
VWidth: 0
Flags: HW
LayerCount: 2
Fore
SplineSet
1182 988 m 1xb8
 1428 988 l 1
 1144 0 l 1
 961 0 l 1x78
 951 67 l 1
 772 -3 635 -20 546 -20 c 0
 322 -20 258 82 258 211 c 0
 258 272 272 339 291 404 c 2
 459 988 l 1
 705 988 l 1
 538 406 l 2
 532 385 525 357 525 329 c 0
 525 270 557 209 697 209 c 0
 795 209 907 241 974 264 c 1
 1182 988 l 1xb8
1322 1567 m 1
 1422 1394 l 1
 823 1026 l 1
 723 1189 l 1
 1322 1567 l 1
EndSplineSet
Validated: 1
EndChar

StartChar: ucircumflex
Encoding: 251 251 183
Width: 1328
VWidth: 0
Flags: HW
LayerCount: 2
Fore
SplineSet
1182 988 m 1xb8
 1428 988 l 1
 1144 0 l 1
 961 0 l 1x78
 951 67 l 1
 772 -3 635 -20 546 -20 c 0
 322 -20 258 82 258 211 c 0
 258 272 272 339 291 404 c 2
 459 988 l 1
 705 988 l 1
 538 406 l 2
 532 385 525 357 525 329 c 0
 525 270 557 209 697 209 c 0
 795 209 907 241 974 264 c 1
 1182 988 l 1xb8
1120 1509 m 1
 1363 1161 l 1
 1166 1016 l 1
 1017 1210 l 1
 755 1019 l 1
 637 1152 l 1
 1120 1509 l 1
EndSplineSet
Validated: 1
EndChar

StartChar: yacute
Encoding: 253 253 184
Width: 1204
VWidth: 0
Flags: HW
LayerCount: 2
Fore
SplineSet
332 988 m 1xd0
 591 988 l 1xd0
 700 229 l 1
 1215 988 l 1
 1474 988 l 1
 396 -531 l 1
 100 -531 l 1xb0
 499 3 l 1
 332 988 l 1xd0
1347 1567 m 1
 1447 1394 l 1
 862 1026 l 1
 761 1189 l 1
 1347 1567 l 1
EndSplineSet
Validated: 1
EndChar

StartChar: ntilde
Encoding: 241 241 185
Width: 1328
VWidth: 0
Flags: HW
LayerCount: 2
Fore
SplineSet
1378 1455 m 1x96
 1558 1421 l 1
 1495 1294 l 2
 1478 1258 1391 1058 1203 1058 c 1x96
 989 1066 945 1239 883 1239 c 0
 843 1239 810 1169 796 1141 c 2
 749 1052 l 1
 565 1081 l 1
 627 1208 l 2
 646 1247 731 1442 934 1442 c 1x8e
 1147 1434 1195 1261 1253 1261 c 0
 1292 1261 1324 1343 1334 1362 c 2
 1378 1455 l 1x96
452 963 m 1xa6
 635 963 l 1xa6
 644 895 l 1
 824 965 961 983 1050 983 c 0
 1275 983 1339 882 1339 755 c 0
 1339 696 1325 631 1307 569 c 2
 1144 0 l 1
 897 0 l 1
 1058 562 l 2
 1064 584 1071 611 1071 638 c 0
 1071 696 1039 753 899 753 c 0xc6
 801 753 689 722 622 700 c 1
 422 0 l 1
 176 0 l 1
 452 963 l 1xa6
EndSplineSet
Validated: 1
EndChar

StartChar: eth
Encoding: 240 240 186
Width: 1400
VWidth: 2097
Flags: HW
LayerCount: 2
Fore
SplineSet
517 522 m 0
 507 487 502 454 502 424 c 0
 502 286 598 196 733 196 c 0
 826 196 1002 240 1106 482 c 0
 1134 548 1154 617 1169 670 c 2
 1180 709 l 1
 1050 791 955 807 890 807 c 0
 725 807 566 694 517 522 c 0
1003 1457 m 2
 1110 1429 1207 1383 1287 1321 c 1
 1520 1433 l 1
 1568 1267 l 1
 1401 1184 l 1
 1442 1114 1458 1038 1458 956 c 0
 1458 871 1440 779 1412 680 c 0
 1311 328 1135 -20 653 -20 c 0
 385 -20 230 98 230 298 c 0
 230 340 237 386 251 435 c 0
 331 714 588 951 905 951 c 0
 974 951 1071 942 1203 883 c 1
 1200 948 1179 1006 1133 1061 c 1
 892 953 l 1
 833 1119 l 1
 986 1188 l 1
 943 1213 897 1233 847 1250 c 2
 802 1265 l 1
 968 1466 l 1
 1003 1457 l 2
EndSplineSet
Validated: 1
EndChar

StartChar: thorn
Encoding: 254 254 187
Width: 1370
VWidth: 2097
Flags: HW
LayerCount: 2
Back
SplineSet
611 862 m 4
 380 862 345 644 345 467 c 4
 345 361 359 117 615 117 c 4
 741 117 931 207 931 481 c 4
 931 732 765 862 611 862 c 4
639 1003 m 4
 884 1003 1091 821 1091 510 c 4
 1091 200 892 -23 630 -23 c 4
 531 -23 429 14 354 84 c 5
 354 -531 l 5
 190 -531 l 5
 190 1421 l 5
 354 1421 l 5
 354 885 l 5
 428 968 535 1003 639 1003 c 4
EndSplineSet
Fore
SplineSet
900 755 m 0
 746 755 628 682 564 458 c 0
 554 425 546 388 546 352 c 0
 546 272 587 199 745 199 c 0
 866 199 1070 263 1129 470 c 0
 1137 499 1141 526 1141 551 c 0
 1141 688 1023 755 900 755 c 0
997 978 m 0
 1242 978 1401 857 1401 645 c 0
 1401 600 1393 550 1378 496 c 0
 1292 197 1018 -23 700 -23 c 0
 609 -23 523 0 456 43 c 1
 291 -531 l 1
 33 -531 l 1
 593 1421 l 1
 851 1421 l 1
 704 908 l 1
 801 957 904 978 997 978 c 0
EndSplineSet
Validated: 1
EndChar

StartChar: Eth
Encoding: 208 208 188
Width: 1769
VWidth: 2097
Flags: HW
LayerCount: 2
Fore
SplineSet
742 1421 m 1
 1218 1421 l 2
 1410 1421 1904 1396 1904 965 c 0
 1904 903 1894 832 1871 752 c 0
 1668 43 1039 0 747 0 c 2
 335 0 l 1
 512 617 l 1
 294 617 l 1
 360 849 l 1
 578 849 l 1
 742 1421 l 1
1165 1189 m 2
 928 1189 l 1
 830 849 l 1
 1091 849 l 1
 1025 617 l 1
 764 617 l 1
 654 232 l 1
 820 232 l 2
 1073 232 1476 263 1607 719 c 0
 1620 764 1628 812 1628 861 c 0
 1628 1026 1529 1189 1165 1189 c 2
EndSplineSet
Validated: 1
EndChar

StartChar: Oslash
Encoding: 216 216 189
Width: 1920
VWidth: 0
Flags: HW
LayerCount: 2
Back
SplineSet
1695.72 1417.23 m 29
 159.038 127.801 l 29
 267.026 -0.894531 l 29
 1803.71 1288.54 l 29
 1695.72 1417.23 l 29
986 1436 m 4
 1420 1436 1735 1165 1735 726 c 4
 1735 285 1428 -15 978 -15 c 4
 592 -15 235 223 235 707 c 4
 235 1152 546 1436 986 1436 c 4
976 1205 m 4
 743 1205 493 1061 493 727 c 4
 493 411 715 216 993 216 c 4
 1222 216 1477 361 1477 709 c 4
 1477 1061 1208 1205 976 1205 c 4
EndSplineSet
Fore
SplineSet
1322 1205 m 0x38
 1089 1205 797 1061 701 727 c 0
 684 668 676 613 676 563 c 0
 676 526 681 492 689 461 c 1
 1622 1093 l 1
 1548 1170 1436 1205 1322 1205 c 0x38
2102 1417 m 1
 2174 1289 l 1
 1944 1134 l 1
 1965 1078 1977 1015 1977 946 c 0
 1977 878 1966 805 1943 726 c 0
 1817 285 1424 -15 974 -15 c 0xb8
 782 -15 613 44 510 163 c 1
 267 -1 l 1x78
 196 128 l 1
 435 289 l 1
 414 343 403 406 403 476 c 0
 403 546 414 623 438 707 c 0
 566 1152 958 1436 1398 1436 c 0
 1607 1436 1770 1373 1869 1259 c 1
 2102 1417 l 1
1693 964 m 1
 758 331 l 1
 825 257 928 216 1055 216 c 0
 1284 216 1580 361 1680 709 c 0
 1697 768 1705 821 1705 869 c 0
 1705 903 1701 935 1693 964 c 1
EndSplineSet
Validated: 1
EndChar

StartChar: logicalnot
Encoding: 172 172 190
Width: 1400
VWidth: 2097
Flags: HW
LayerCount: 2
Fore
SplineSet
306 773 m 1
 1538 773 l 1
 1385 241 l 1
 1155 241 l 1
 1241 542 l 1
 239 542 l 1
 306 773 l 1
EndSplineSet
Validated: 1
EndChar

StartChar: macron
Encoding: 175 175 191
Width: 1400
VWidth: 2097
Flags: HW
LayerCount: 2
Fore
SplineSet
726 1681 m 1
 1638 1681 l 1
 1572 1450 l 1
 660 1450 l 1
 726 1681 l 1
EndSplineSet
Validated: 1
EndChar

StartChar: ordfeminine
Encoding: 170 170 192
Width: 760
VWidth: 2097
Flags: HW
LayerCount: 2
Fore
SplineSet
774 994 m 1xcc
 771 994 l 2
 642 994 573 975 556 917 c 0
 555 913 554 908 554 904 c 0
 554 878 576 847 631 847 c 0
 668 847 711 870 750 910 c 1
 774 994 l 1xcc
812 1127 m 1
 815 1139 819 1153 819 1168 c 0
 819 1201 802 1234 728 1234 c 0xdc
 664 1234 577 1213 560 1208 c 2
 533 1200 l 1
 537 1319 l 1xec
 560 1326 l 1
 632 1350 707 1364 777 1364 c 0xdc
 940 1364 977 1293 977 1222 c 0
 977 1189 969 1157 962 1131 c 2
 848 735 l 1
 736 735 l 1
 732 771 l 1
 684 739 631 717 578 717 c 0
 472 717 400 765 400 855 c 0
 400 873 403 893 409 915 c 0
 458 1087 592 1125 812 1127 c 1
EndSplineSet
Validated: 1
EndChar

StartChar: Thorn
Encoding: 222 222 193
Width: 1490
VWidth: 2097
Flags: HW
LayerCount: 2
Fore
SplineSet
1028 967 m 0
 957 967 887 965 817 960 c 1
 691 521 l 1
 777 516 834 515 868 515 c 2
 900 515 l 2
 1095 515 1297 534 1360 752 c 0
 1367 775 1370 796 1370 814 c 0
 1370 947 1208 967 1028 967 c 0
697 1421 m 1
 949 1421 l 1
 875 1160 l 1
 964 1166 1050 1169 1140 1169 c 0
 1428 1169 1642 1112 1642 898 c 0
 1642 861 1635 820 1622 773 c 0
 1576 613 1447 387 1167 317 c 1
 1088 299 961 285 766 285 c 0
 718 285 671 286 625 288 c 1
 542 0 l 1
 290 0 l 1
 697 1421 l 1
EndSplineSet
Validated: 1
EndChar

StartChar: quotedblleft
Encoding: 8220 8220 194
Width: 830
VWidth: 2097
Flags: HW
LayerCount: 2
Fore
SplineSet
1240 1552 m 1x88
 943 1037 l 1
 662 1037 l 1x90
 959 1552 l 1
 1240 1552 l 1x88
860 1552 m 1xa0
 563 1037 l 1
 282 1037 l 1xc0
 579 1552 l 1
 860 1552 l 1xa0
EndSplineSet
Validated: 1
EndChar

StartChar: quotedblright
Encoding: 8221 8221 195
Width: 830
VWidth: 2097
Flags: HW
LayerCount: 2
Fore
SplineSet
959 1552 m 1x88
 1240 1552 l 1x88
 943 1037 l 1
 662 1037 l 1x90
 959 1552 l 1x88
579 1552 m 1xa0
 860 1552 l 1xa0
 563 1037 l 1
 282 1037 l 1xc0
 579 1552 l 1xa0
EndSplineSet
Validated: 1
EndChar

StartChar: Ydieresis
Encoding: 376 376 196
Width: 1427
VWidth: 0
Flags: HW
LayerCount: 2
Fore
SplineSet
507 1421 m 1xf5
 805 1421 l 1
 1027 870 l 1
 1573 1421 l 1
 1861 1421 l 1
 1099 664 l 1
 909 0 l 1
 626 0 l 1
 816 664 l 1
 507 1421 l 1xf5
1421 1898 m 1xe2
 1719 1898 l 1
 1643 1631 l 1
 1345 1631 l 1
 1421 1898 l 1xe2
920 1898 m 1xe8
 1216 1898 l 1
 1140 1631 l 1
 844 1631 l 1
 920 1898 l 1xe8
EndSplineSet
Validated: 1
EndChar

StartChar: zcaron
Encoding: 382 382 197
Width: 1218
VWidth: 0
Flags: HW
LayerCount: 2
Fore
SplineSet
422 963 m 1
 1317 963 l 1
 1280 836 l 1
 550 211 l 1
 1125 211 l 1
 1065 0 l 1
 146 0 l 1
 183 127 l 1
 905 752 l 1
 362 752 l 1
 422 963 l 1
867 1000 m 1
 632 1364 l 1
 825 1516 l 1
 974 1313 l 1
 1243 1513 l 1
 1353 1377 l 1
 867 1000 l 1
EndSplineSet
Validated: 1
EndChar

StartChar: Zcaron
Encoding: 381 381 198
Width: 1522
VWidth: 0
Flags: HW
LayerCount: 2
Fore
SplineSet
592 1421 m 1
 1842 1421 l 1
 1799 1268 l 1
 584 232 l 1
 1529 232 l 1
 1462 0 l 1
 155 0 l 1
 199 155 l 1
 1393 1189 l 1
 526 1189 l 1
 592 1421 l 1
1215 1457 m 1
 968 1805 l 1
 1178 1950 l 1
 1317 1756 l 1
 1569 1947 l 1
 1697 1814 l 1
 1215 1457 l 1
EndSplineSet
Validated: 1
EndChar

StartChar: Scaron
Encoding: 352 352 199
Width: 1525
VWidth: 0
Flags: HW
LayerCount: 2
Fore
SplineSet
1251 1457 m 1x98
 996 1805 l 1
 1210 1950 l 1
 1353 1756 l 1
 1610 1947 l 1
 1734 1814 l 1
 1251 1457 l 1x98
1338 1434 m 0xb8
 1504 1434 1642 1399 1714 1375 c 1
 1752 1363 l 1
 1603 1131 l 1
 1568 1142 l 1xd8
 1434 1182 1322 1192 1253 1192 c 0
 1063 1192 878 1124 848 1021 c 0
 845 1011 844 1003 844 994 c 0
 844 799 1527 840 1527 498 c 0
 1527 471 1522 441 1513 409 c 0
 1458 217 1224 -20 751 -20 c 0
 550 -20 423 25 300 79 c 1
 267 93 l 1
 421 335 l 1
 456 320 l 1
 628 252 760 230 847 230 c 0
 1052 230 1211 298 1241 401 c 0
 1244 413 1246 424 1246 434 c 0
 1246 647 557 588 557 924 c 0
 557 950 561 979 570 1010 c 0
 637 1242 934 1434 1338 1434 c 0xb8
EndSplineSet
Validated: 1
EndChar

StartChar: scaron
Encoding: 353 353 200
Width: 1169
VWidth: 0
Flags: HW
LayerCount: 2
Fore
SplineSet
877 290 m 1xb8
 877 292 878 295 878 297 c 0
 878 401 348 378 348 625 c 0
 348 643 351 662 357 683 c 0
 391 801 552 982 974 982 c 0xb8
 1126 982 1181 961 1243 940 c 1
 1281 928 l 1
 1155 727 l 1
 1120 736 l 1xd8
 1061 754 996 772 882 772 c 0
 667 772 622 697 615 674 c 0
 614 671 614 668 614 666 c 0
 614 571 1147 573 1147 336 c 0
 1147 320 1144 302 1139 284 c 0
 1103 158 960 -20 536 -20 c 0
 439 -20 310 -3 180 58 c 2
 148 73 l 1
 277 269 l 1
 310 255 l 1
 425 208 510 191 604 191 c 0
 773 191 858 223 877 290 c 1xb8
1387 1377 m 1
 904 999 l 1
 656 1364 l 1
 862 1516 l 1
 1012 1313 l 1
 1275 1513 l 1
 1387 1377 l 1
EndSplineSet
Validated: 1
EndChar

StartChar: Euro
Encoding: 8364 8364 201
Width: 1335
VWidth: 2097
Flags: HW
LayerCount: 2
Fore
SplineSet
373 463 m 1
 142 463 l 1
 203 675 l 1
 405 675 l 1
 414 721 435 777 446 807 c 1
 304 807 l 1
 365 1019 l 1
 552 1019 l 1
 728 1296 1010 1472 1312 1472 c 0
 1458 1472 1572 1433 1653 1393 c 2
 1684 1378 l 1
 1549 1160 l 1
 1513 1176 l 1
 1367 1239 1272 1240 1243 1240 c 0
 1083 1240 929 1153 815 1019 c 1
 1241 1019 l 1
 1180 807 l 1
 683 807 l 1
 672 782 647 716 640 675 c 1
 1079 675 l 1
 1018 463 l 1
 628 463 l 1
 652 299 762 177 969 177 c 0
 1051 177 1143 193 1260 234 c 2
 1303 249 l 1
 1320 49 l 1
 1282 33 l 2
 1171 -14 1020 -61 863 -61 c 0
 549 -61 373 140 373 440 c 0
 373 447 373 455 373 463 c 1
EndSplineSet
Validated: 1
EndChar

StartChar: emdash
Encoding: 8212 8212 202
Width: 1466
VWidth: 2097
Flags: HW
LayerCount: 2
Fore
SplineSet
221 769 m 5
 1687 769 l 5
 1623 548 l 5
 157 548 l 5
 221 769 l 5
EndSplineSet
Validated: 1
EndChar

StartChar: endash
Encoding: 8211 8211 203
Width: 1241
VWidth: 2097
Flags: HW
LayerCount: 2
Fore
SplineSet
221 769 m 5
 1462 769 l 5
 1398 548 l 5
 157 548 l 5
 221 769 l 5
EndSplineSet
Validated: 1
EndChar

StartChar: afii00208
Encoding: 8213 8213 204
Width: 1682
VWidth: 2097
Flags: HW
LayerCount: 2
Fore
SplineSet
221 769 m 5
 1903 769 l 5
 1839 548 l 5
 157 548 l 5
 221 769 l 5
EndSplineSet
Validated: 1
EndChar

StartChar: ellipsis
Encoding: 8230 8230 205
Width: 1720
VWidth: 2097
Flags: HW
CounterMasks: 1 70
LayerCount: 2
Fore
SplineSet
211 251 m 1
 503 251 l 1
 419 -41 l 1
 127 -41 l 1
 211 251 l 1
776 251 m 1
 1068 251 l 1
 984 -41 l 1
 692 -41 l 1
 776 251 l 1
1341 251 m 1
 1633 251 l 1
 1549 -41 l 1
 1257 -41 l 1
 1341 251 l 1
EndSplineSet
Validated: 1
EndChar

StartChar: bullet
Encoding: 8226 8226 206
Width: 640
VWidth: 2097
Flags: HW
LayerCount: 2
Fore
SplineSet
408 904 m 1
 750 904 l 1
 652 562 l 1
 310 562 l 1
 408 904 l 1
EndSplineSet
Validated: 1
EndChar

StartChar: interrobang
Encoding: 8253 8253 207
Width: 1046
VWidth: 2097
Flags: HW
LayerCount: 2
Fore
SplineSet
339 241 m 1xe8
 621 241 l 1
 540 -41 l 1
 258 -41 l 1
 339 241 l 1xe8
1231 1094 m 0
 1114 687 727 699 639 392 c 1
 628 351 l 1
 396 351 l 1
 616 1121 l 1
 848 1121 l 1
 769 843 l 1xd8
 857 903 949 974 977 1071 c 0
 981 1085 983 1100 983 1115 c 0
 983 1181 938 1253 766 1253 c 0
 706 1253 613 1245 514 1209 c 2
 472 1194 l 1
 445 1389 l 1
 485 1406 l 2
 593 1452 714 1478 847 1478 c 0
 1045 1478 1250 1422 1250 1213 c 0
 1250 1178 1244 1138 1231 1094 c 0
EndSplineSet
Validated: 1
EndChar

StartChar: quoteleft
Encoding: 8216 8216 208
Width: 450
VWidth: 2097
Flags: HW
LayerCount: 2
Fore
SplineSet
480 1552 m 1xc0
 761 1552 l 1xc0
 762 1037 l 1
 481 1037 l 1xa0
 480 1552 l 1xc0
EndSplineSet
Validated: 1
EndChar

StartChar: quoteright
Encoding: 8217 8217 209
Width: 450
VWidth: 2097
Flags: HW
LayerCount: 2
Fore
SplineSet
579 1552 m 1xa0
 860 1552 l 1xa0
 563 1037 l 1
 282 1037 l 1xc0
 579 1552 l 1xa0
EndSplineSet
Validated: 1
EndChar

StartChar: fraction
Encoding: 8260 8260 210
Width: 1036
VWidth: 0
Flags: HW
LayerCount: 2
Fore
SplineSet
1236 1462 m 1
 1506 1462 l 1
 208 -41 l 1
 -63 -41 l 1
 1236 1462 l 1
EndSplineSet
Validated: 1
EndChar

StartChar: florin
Encoding: 402 402 211
Width: 963
VWidth: 2097
Flags: HW
LayerCount: 2
Fore
SplineSet
388 963 m 1
 576 963 l 1
 596 1033 l 2
 615 1101 642 1181 710 1256 c 0
 812 1370 965 1429 1128 1429 c 0
 1226 1429 1311 1407 1367 1388 c 2
 1399 1377 l 1
 1301 1173 l 1
 1263 1184 l 1
 1198 1205 1155 1210 1126 1210 c 0
 937 1210 895 1089 876 1022 c 2
 860 963 l 1
 1206 963 l 1
 1145 752 l 1
 799 752 l 1
 531 -183 l 2
 498 -297 401 -541 14 -541 c 0
 -34 -541 -116 -536 -224 -500 c 1
 -256 -489 l 1
 -159 -290 l 1
 -121 -300 l 2
 -95 -307 -41 -322 17 -322 c 0
 201 -322 235 -227 253 -162 c 2
 515 752 l 1
 328 752 l 1
 388 963 l 1
EndSplineSet
Validated: 1
EndChar

StartChar: guilsinglleft
Encoding: 8249 8249 212
Width: 607
VWidth: 2097
Flags: HW
LayerCount: 2
Fore
SplineSet
603 1029 m 1
 892 1029 l 1
 471 623 l 1
 659 217 l 1
 371 217 l 1
 204 623 l 1
 603 1029 l 1
EndSplineSet
Validated: 1
EndChar

StartChar: guilsinglright
Encoding: 8250 8250 213
Width: 607
VWidth: 2097
Flags: HW
LayerCount: 2
Fore
SplineSet
305 1029 m 5
 593 1029 l 5
 761 623 l 5
 361 217 l 5
 72 217 l 5
 494 623 l 5
 305 1029 l 5
EndSplineSet
Validated: 1
EndChar

StartChar: dagger
Encoding: 8224 8224 214
Width: 942
VWidth: 2097
Flags: HW
LayerCount: 2
Fore
SplineSet
683 1133 m 1
 451 1123 l 1
 507 1319 l 1
 733 1309 l 1
 803 1552 l 1
 1028 1552 l 1
 958 1309 l 1
 1191 1319 l 1
 1135 1123 l 1
 908 1133 l 1
 614 107 l 1
 389 107 l 1
 683 1133 l 1
EndSplineSet
Validated: 1
EndChar

StartChar: daggerdbl
Encoding: 8225 8225 215
Width: 942
VWidth: 2097
Flags: HW
LayerCount: 2
Fore
SplineSet
683 1133 m 1
 451 1123 l 1
 507 1319 l 1
 733 1309 l 1
 803 1552 l 1
 1028 1552 l 1
 958 1309 l 1
 1191 1319 l 1
 1135 1123 l 1
 908 1133 l 1
 623 138 l 1
 855 148 l 1
 799 -48 l 1
 572 -38 l 1
 502 -281 l 1
 277 -281 l 1
 347 -38 l 1
 115 -48 l 1
 171 148 l 1
 398 138 l 1
 683 1133 l 1
EndSplineSet
Validated: 1
EndChar

StartChar: quotesinglbase
Encoding: 8218 8218 216
Width: 450
VWidth: 2097
Flags: HW
LayerCount: 2
Fore
SplineSet
208 258 m 1xa0
 489 258 l 1xa0
 192 -257 l 1
 -89 -257 l 1xc0
 208 258 l 1xa0
EndSplineSet
Validated: 1
EndChar

StartChar: quotedblbase
Encoding: 8222 8222 217
Width: 830
VWidth: 2097
Flags: HW
LayerCount: 2
Fore
SplineSet
587 255 m 1x88
 868 255 l 1x88
 571 -260 l 1
 290 -260 l 1x90
 587 255 l 1x88
207 255 m 1xa0
 488 255 l 1xa0
 191 -260 l 1
 -90 -260 l 1xc0
 207 255 l 1xa0
EndSplineSet
Validated: 1
EndChar

StartChar: perthousand
Encoding: 8240 8240 218
Width: 1920
VWidth: 2097
Flags: HW
LayerCount: 2
Fore
SplineSet
1451 1462 m 1xfbb0
 1721 1462 l 1
 265 -41 l 1
 -5 -41 l 1
 1451 1462 l 1xfbb0
1952 351 m 0
 1894 148 1740 25 1588 25 c 0
 1484 25 1392 73 1392 215 c 0
 1392 253 1399 299 1414 352 c 0
 1474 560 1636 664 1772 664 c 0
 1865 664 1972 623 1972 476 c 0
 1972 441 1966 399 1952 351 c 0
1720 486 m 0
 1649 486 1612 420 1593 353 c 0
 1585 324 1579 295 1579 270 c 0
 1579 229 1594 200 1639 200 c 0
 1710 200 1749 273 1771 348 c 0
 1780 378 1783 402 1783 420 c 0
 1783 478 1747 486 1720 486 c 0
1345 351 m 0xf370
 1287 148 1133 25 981 25 c 0
 877 25 785 73 785 215 c 0
 785 253 792 299 807 352 c 0
 867 560 1029 664 1165 664 c 0
 1258 664 1365 623 1365 476 c 0
 1365 441 1359 399 1345 351 c 0xf370
1113 486 m 0
 1042 486 1005 420 986 353 c 0
 978 324 972 295 972 270 c 0
 972 229 987 200 1032 200 c 0
 1103 200 1142 273 1164 348 c 0
 1173 378 1176 402 1176 420 c 0
 1176 478 1140 486 1113 486 c 0
908 1092 m 0
 850 890 697 765 545 765 c 0
 441 765 348 815 348 957 c 0
 348 995 355 1040 370 1093 c 0xf730
 430 1301 595 1404 730 1404 c 0
 819 1404 928 1366 928 1217 c 0
 928 1182 922 1141 908 1092 c 0
678 1227 m 0
 607 1227 570 1161 551 1094 c 0
 543 1065 537 1036 537 1011 c 0
 537 970 552 941 597 941 c 0
 668 941 706 1014 728 1089 c 0
 737 1119 740 1142 740 1161 c 0
 740 1219 705 1227 678 1227 c 0
EndSplineSet
Validated: 1
EndChar

StartChar: circumflex
Encoding: 710 710 219
Width: 1479
VWidth: 2097
Flags: HW
LayerCount: 2
Fore
SplineSet
1185 1601 m 1
 1397 1253 l 1
 1204 1108 l 1
 1084 1302 l 1
 853 1111 l 1
 741 1244 l 1
 1185 1601 l 1
EndSplineSet
Validated: 1
EndChar

StartChar: tilde
Encoding: 732 732 220
Width: 1400
VWidth: 2097
Flags: HW
LayerCount: 2
Fore
SplineSet
1282 1402 m 0x80
 1324 1402 1374 1478 1440 1561 c 2
 1468 1596 l 1
 1624 1516 l 1
 1595 1478 l 2
 1519 1379 1399 1198 1224 1198 c 1x80
 1040 1207 1020 1380 956 1380 c 0
 914 1380 867 1306 798 1219 c 2
 770 1184 l 1
 613 1264 l 1
 642 1302 l 2
 718 1401 839 1584 1014 1584 c 1x40
 1198 1575 1217 1402 1282 1402 c 0x80
EndSplineSet
Validated: 1
EndChar

StartChar: ring
Encoding: 730 730 221
Width: 1084
VWidth: 0
Flags: HW
LayerCount: 2
Fore
SplineSet
994 1441 m 0
 923 1441 876 1373 876 1319 c 0
 876 1284 895 1256 941 1256 c 0
 989 1256 1040 1300 1054 1349 c 0
 1057 1358 1058 1368 1058 1376 c 0
 1058 1413 1034 1441 994 1441 c 0
1228 1349 m 0
 1186 1202 1035 1083 892 1083 c 0
 775 1083 696 1164 696 1275 c 0
 696 1298 700 1323 707 1349 c 0
 749 1495 900 1614 1043 1614 c 0
 1160 1614 1239 1534 1239 1423 c 0
 1239 1400 1235 1375 1228 1349 c 0
EndSplineSet
Validated: 1
EndChar

StartChar: breve
Encoding: 728 728 222
Width: 1078
VWidth: 0
Flags: HW
LayerCount: 2
Fore
SplineSet
498 1401 m 5
 719 1504 l 5
 727 1466 l 6
 734 1430 766 1302 895 1302 c 4
 1000 1302 1128 1397 1207 1473 c 5
 1240 1504 l 5
 1385 1381 l 5
 1349 1346 l 5
 1203 1206 999 1082 816 1082 c 4
 607 1082 511 1230 500 1368 c 5
 498 1401 l 5
EndSplineSet
Validated: 1
EndChar

StartChar: caron
Encoding: 711 711 223
Width: 1078
VWidth: 0
Flags: HW
LayerCount: 2
Fore
SplineSet
823 1064 m 1
 611 1412 l 1
 804 1557 l 1
 924 1363 l 1
 1156 1554 l 1
 1268 1424 l 1
 823 1064 l 1
EndSplineSet
Validated: 1
EndChar

StartChar: dotaccent
Encoding: 729 729 224
Width: 1200
VWidth: 0
Flags: HW
LayerCount: 2
Fore
SplineSet
869 1483 m 1
 1161 1483 l 1
 1078 1191 l 1
 786 1191 l 1
 869 1483 l 1
EndSplineSet
Validated: 1
EndChar

StartChar: trademark
Encoding: 8482 8482 225
Width: 1424
VWidth: 2097
Flags: HW
LayerCount: 2
Fore
SplineSet
671 918 m 1xb8
 523 918 l 1xb8
 663 1406 l 1
 488 1406 l 1
 525 1536 l 1
 1023 1536 l 1
 986 1406 l 1
 811 1406 l 1x78
 671 918 l 1xb8
1105 1536 m 1
 1261 1536 l 1
 1336 1247 l 1
 1569 1536 l 1x78
 1729 1536 l 1
 1552 918 l 1
 1404 918 l 1
 1511 1291 l 1
 1328 1070 l 1
 1230 1070 l 1
 1182 1288 l 1
 1076 918 l 1
 928 918 l 1
 1105 1536 l 1
EndSplineSet
Validated: 1
EndChar

StartChar: Amacron
Encoding: 256 256 226
Width: 1547
VWidth: 0
Flags: HW
LayerCount: 2
Fore
SplineSet
1100 1421 m 1
 1376 1421 l 1
 1531 0 l 1
 1272 0 l 1
 1220 372 l 1
 640 372 l 1
 374 0 l 1
 130 0 l 1
 1100 1421 l 1
1198 603 m 1
 1147 1130 l 1
 793 603 l 1
 1198 603 l 1
869 1697 m 1
 1772 1697 l 1
 1711 1486 l 1
 808 1486 l 1
 869 1697 l 1
EndSplineSet
Validated: 1
EndChar

StartChar: amacron
Encoding: 257 257 227
Width: 1222
VWidth: 0
Flags: HW
LayerCount: 2
Fore
SplineSet
644 1333 m 1x3e
 1329 1333 l 1
 1269 1122 l 1
 584 1122 l 1
 644 1333 l 1x3e
864 251 m 1
 902 384 l 1
 878 384 l 2
 616 384 468 358 447 285 c 0
 446 282 446 279 446 276 c 0
 446 236 514 191 628 191 c 0xbe
 649 191 754 192 864 251 c 1
862 982 m 0
 1142 982 1239 892 1239 753 c 0
 1239 715 1232 673 1219 629 c 2
 1039 0 l 1
 855 0 l 1x7e
 846 65 l 1
 754 15 634 -20 513 -20 c 0
 303 -20 188 84 188 208 c 0
 188 227 190 247 196 267 c 0
 267 515 589 566 955 570 c 1
 965 602 l 1
 971 622 975 643 975 662 c 0
 975 718 936 764 767 764 c 0
 706 764 607 755 472 723 c 2
 430 713 l 1
 435 906 l 1
 473 918 l 1
 602 962 740 982 862 982 c 0
EndSplineSet
Validated: 1
EndChar

StartChar: Abreve
Encoding: 258 258 228
Width: 1547
VWidth: 0
Flags: HW
LayerCount: 2
Fore
SplineSet
879 1794 m 1
 1121 1897 l 1
 1130 1859 l 2
 1139 1823 1178 1695 1320 1695 c 0
 1435 1695 1573 1790 1658 1866 c 2
 1693 1897 l 1
 1850 1774 l 1
 1814 1739 l 1
 1662 1599 1440 1475 1239 1475 c 0
 1009 1475 899 1622 883 1761 c 2
 879 1794 l 1
1198 603 m 1
 1147 1130 l 1
 793 603 l 1
 1198 603 l 1
1100 1421 m 1
 1376 1421 l 1
 1531 0 l 1
 1272 0 l 1
 1220 372 l 1
 640 372 l 1
 374 0 l 1
 130 0 l 1
 1100 1421 l 1
EndSplineSet
Validated: 1
EndChar

StartChar: abreve
Encoding: 259 259 229
Width: 1220
VWidth: 0
Flags: HW
LayerCount: 2
Fore
SplineSet
546 1349 m 1x3e
 770 1463 l 1
 778 1421 l 1
 787 1381 827 1240 977 1240 c 0
 1099 1240 1245 1345 1328 1429 c 2
 1362 1463 l 1
 1502 1327 l 1
 1465 1289 l 1
 1320 1147 1108 1020 894 1020 c 0
 650 1020 558 1173 548 1315 c 1
 546 1349 l 1x3e
852 251 m 1
 890 384 l 1
 867 384 l 2
 612 384 469 358 448 285 c 0
 447 282 447 278 447 275 c 0
 447 234 513 191 623 191 c 0xbe
 644 191 744 192 852 251 c 1
854 981 m 0
 1150 981 1239 883 1239 751 c 0
 1239 712 1231 671 1219 628 c 2
 1039 0 l 1
 855 0 l 1x7e
 841 65 l 1
 743 15 626 -20 508 -20 c 0
 303 -20 188 84 188 208 c 0
 188 227 190 247 196 267 c 0
 267 515 586 565 939 569 c 1
 949 602 l 1
 955 623 960 644 960 664 c 0
 960 719 922 764 761 764 c 0
 702 764 606 755 472 723 c 2
 430 713 l 1
 435 906 l 1
 473 918 l 1
 611 965 746 981 854 981 c 0
EndSplineSet
Validated: 1
EndChar

StartChar: Cacute
Encoding: 262 262 230
Width: 1615
VWidth: 0
Flags: HW
LayerCount: 2
Fore
SplineSet
1769 1992 m 1
 1837 1797 l 1
 1091 1461 l 1
 1029 1639 l 1
 1769 1992 l 1
478 709 m 0
 596 1119 983 1431 1495 1431 c 0
 1618 1431 1765 1411 1898 1352 c 1
 1930 1337 l 1
 1789 1121 l 1
 1755 1134 l 1
 1607 1189 1494 1199 1423 1199 c 0
 1081 1199 805 965 732 710 c 0
 720 667 713 624 713 584 c 0
 713 377 875 218 1183 218 c 0
 1284 218 1406 237 1527 276 c 2
 1568 289 l 1
 1593 89 l 1
 1551 73 l 2
 1384 9 1211 -20 1066 -20 c 0
 651 -20 445 195 445 492 c 0
 445 560 456 634 478 709 c 0
EndSplineSet
Validated: 1
EndChar

StartChar: cacute
Encoding: 263 263 231
Width: 1147
VWidth: 0
Flags: HW
LayerCount: 2
Fore
SplineSet
259 461 m 0
 371 853 686 981 980 981 c 0
 1098 981 1190 959 1269 919 c 2
 1299 904 l 1
 1180 711 l 1
 1146 724 l 2
 1088 746 1024 758 943 758 c 0
 763 758 570 705 509 491 c 0
 499 455 494 424 494 395 c 0
 494 253 614 197 804 197 c 0
 871 197 931 208 991 227 c 1
 1033 239 l 1
 1045 52 l 1
 1004 38 l 1
 883 -5 771 -20 671 -20 c 0
 441 -20 233 53 233 296 c 0
 233 344 241 399 259 461 c 0
1248 1567 m 1
 1339 1386 l 1
 733 1002 l 1
 640 1172 l 1
 1248 1567 l 1
EndSplineSet
Validated: 1
EndChar

StartChar: Ccircumflex
Encoding: 264 264 232
Width: 1615
VWidth: 0
Flags: HW
LayerCount: 2
Fore
SplineSet
478 709 m 0
 596 1119 983 1431 1495 1431 c 0
 1618 1431 1765 1411 1898 1352 c 1
 1930 1337 l 1
 1789 1121 l 1
 1755 1134 l 1
 1607 1189 1494 1199 1423 1199 c 0
 1081 1199 805 965 732 710 c 0
 720 667 713 624 713 584 c 0
 713 377 875 218 1183 218 c 0
 1284 218 1406 237 1527 276 c 2
 1568 289 l 1
 1593 89 l 1
 1551 73 l 2
 1384 9 1211 -20 1066 -20 c 0
 651 -20 445 195 445 492 c 0
 445 560 456 634 478 709 c 0
1539 1951 m 5
 1788 1603 l 5
 1576 1458 l 5
 1438 1652 l 5
 1185 1461 l 5
 1056 1594 l 5
 1539 1951 l 5
EndSplineSet
Validated: 1
EndChar

StartChar: ccircumflex
Encoding: 265 265 233
Width: 1147
VWidth: 0
Flags: HW
LayerCount: 2
Fore
SplineSet
259 461 m 0
 371 853 686 981 980 981 c 0
 1098 981 1190 959 1269 919 c 2
 1299 904 l 1
 1180 711 l 1
 1146 724 l 2
 1088 746 1024 758 943 758 c 0
 763 758 570 705 509 491 c 0
 499 455 494 424 494 395 c 0
 494 253 614 197 804 197 c 0
 871 197 931 208 991 227 c 1
 1033 239 l 1
 1045 52 l 1
 1004 38 l 1
 883 -5 771 -20 671 -20 c 0
 441 -20 233 53 233 296 c 0
 233 344 241 399 259 461 c 0
1087 1517 m 1
 1314 1152 l 1
 1123 1000 l 1
 980 1204 l 1
 709 1003 l 1
 591 1143 l 1
 1087 1517 l 1
EndSplineSet
Validated: 1
EndChar

StartChar: Cdotaccent
Encoding: 266 266 234
Width: 1615
VWidth: 0
Flags: HW
LayerCount: 2
Fore
SplineSet
1305 1829 m 1
 1630 1829 l 1
 1547 1537 l 1
 1222 1537 l 1
 1305 1829 l 1
478 709 m 0
 596 1119 983 1431 1495 1431 c 0
 1618 1431 1765 1411 1898 1352 c 1
 1930 1337 l 1
 1789 1121 l 1
 1755 1134 l 1
 1607 1189 1494 1199 1423 1199 c 0
 1081 1199 805 965 732 710 c 0
 720 667 713 624 713 584 c 0
 713 377 875 218 1183 218 c 0
 1284 218 1406 237 1527 276 c 2
 1568 289 l 1
 1593 89 l 1
 1551 73 l 2
 1384 9 1211 -20 1066 -20 c 0
 651 -20 445 195 445 492 c 0
 445 560 456 634 478 709 c 0
EndSplineSet
Validated: 1
EndChar

StartChar: cdotaccent
Encoding: 267 267 235
Width: 1156
VWidth: 0
Flags: HW
LayerCount: 2
Fore
SplineSet
259 461 m 0
 371 853 689 981 986 981 c 0
 1105 981 1197 959 1277 919 c 2
 1307 904 l 1
 1189 711 l 1
 1154 724 l 2
 1095 746 1030 758 948 758 c 0
 765 758 570 705 509 491 c 0
 499 456 494 424 494 396 c 0
 494 254 616 197 809 197 c 0
 877 197 938 208 999 227 c 1
 1042 239 l 1
 1053 52 l 1
 1013 38 l 2
 891 -5 777 -20 676 -20 c 0
 444 -20 233 54 233 298 c 0
 233 346 241 400 259 461 c 0
906 1421 m 5
 1250 1421 l 5
 1166 1130 l 5
 822 1130 l 5
 906 1421 l 5
EndSplineSet
Validated: 1
EndChar

StartChar: Ccaron
Encoding: 268 268 236
Width: 1615
VWidth: 0
Flags: HW
LayerCount: 2
Fore
SplineSet
478 709 m 0
 596 1119 983 1431 1495 1431 c 0
 1618 1431 1765 1411 1898 1352 c 1
 1930 1337 l 1
 1789 1121 l 1
 1755 1134 l 1
 1607 1189 1494 1199 1423 1199 c 0
 1081 1199 805 965 732 710 c 0
 720 667 713 624 713 584 c 0
 713 377 875 218 1183 218 c 0
 1284 218 1406 237 1527 276 c 2
 1568 289 l 1
 1593 89 l 1
 1551 73 l 2
 1384 9 1211 -20 1066 -20 c 0
 651 -20 445 195 445 492 c 0
 445 560 456 634 478 709 c 0
1395 1457 m 1
 1147 1805 l 1
 1358 1950 l 1
 1497 1756 l 1
 1749 1947 l 1
 1874 1814 l 1
 1395 1457 l 1
EndSplineSet
Validated: 1
EndChar

StartChar: ccaron
Encoding: 269 269 237
Width: 1147
VWidth: 0
Flags: HW
LayerCount: 2
Fore
SplineSet
259 461 m 0
 371 853 686 981 980 981 c 0
 1098 981 1190 959 1269 919 c 2
 1299 904 l 1
 1180 711 l 1
 1146 724 l 2
 1088 746 1024 758 943 758 c 0
 763 758 570 705 509 491 c 0
 499 455 494 424 494 395 c 0
 494 253 614 197 804 197 c 0
 871 197 931 208 991 227 c 1
 1033 239 l 1
 1045 52 l 1
 1004 38 l 1
 883 -5 771 -20 671 -20 c 0
 441 -20 233 53 233 296 c 0
 233 344 241 399 259 461 c 0
905 999 m 1
 657 1364 l 1
 862 1516 l 1
 1011 1313 l 1
 1273 1513 l 1
 1381 1377 l 1
 905 999 l 1
EndSplineSet
Validated: 1
EndChar

StartChar: Dcaron
Encoding: 270 270 238
Width: 1762
VWidth: 0
Flags: HW
LayerCount: 2
Back
SplineSet
772 1421 m 5xb8
 1447 1421 1610 1065 1610 752 c 4
 1610 463 1495 125 1054 31 c 4
 911 0 768 0 647 -0 c 4
 644 0 642 0 639 0 c 6
 290 0 l 5
 290 1421 l 5xb8
 772 1421 l 5xb8
778 1189 m 6xd8
 542 1189 l 5xb8
 542 232 l 5
 708 232 l 6
 883 232 1147 237 1284 452 c 4
 1314 499 1356 586 1356 719 c 4
 1356 1022 1123 1155 924 1182 c 4
 878 1188 829 1189 778 1189 c 6xd8
902 1457 m 5
 572 1805 l 5
 724 1950 l 5
 919 1756 l 5
 1125 1947 l 5
 1299 1814 l 5
 902 1457 l 5
EndSplineSet
Fore
SplineSet
1309 1458 m 1
 1097 1806 l 1
 1290 1951 l 1
 1410 1757 l 1
 1642 1948 l 1
 1754 1818 l 1
 1309 1458 l 1
1142 1189 m 2
 883 1189 l 1
 609 232 l 1
 792 232 l 2
 967 232 1219 237 1411 452 c 0
 1452 499 1517 586 1555 719 c 0
 1570 773 1577 821 1577 864 c 0
 1577 1066 1427 1160 1278 1182 c 0
 1237 1188 1190 1189 1142 1189 c 2
1201 1421 m 2
 1701 1421 1851 1206 1851 964 c 0
 1851 894 1838 822 1818 752 c 0
 1735 463 1524 127 1072 31 c 0
 928 1 791 0 658 0 c 2
 290 0 l 1
 697 1421 l 1
 1201 1421 l 2
EndSplineSet
Validated: 1
EndChar

StartChar: dcaron
Encoding: 271 271 239
Width: 1710
VWidth: 2097
Flags: HW
LayerCount: 2
Fore
SplineSet
1805 1511 m 1x3d
 2105 1511 l 1x3d
 1749 1016 l 1
 1450 1016 l 1x3e
 1805 1511 l 1x3d
260 466 m 0
 357 804 631 983 952 983 c 0
 1039 983 1110 969 1171 949 c 1
 1332 1511 l 1
 1578 1511 l 1
 1145 0 l 1
 963 0 l 1x7c
 956 46 l 1
 841 -1 727 -20 632 -20 c 0xbc
 428 -20 234 63 234 300 c 0
 234 349 242 404 260 466 c 0
758 197 m 0xbc
 834 197 907 213 965 231 c 1
 1112 744 l 1
 1064 758 997 772 921 772 c 0
 791 772 577 728 509 489 c 0
 499 453 494 421 494 393 c 0
 494 233 644 197 758 197 c 0xbc
EndSplineSet
Validated: 1
EndChar

StartChar: Dcroat
Encoding: 272 272 240
Width: 1769
VWidth: 0
Flags: HW
LayerCount: 2
Back
SplineSet
817 1421 m 5xdc
 1492 1421 1655 1065 1655 752 c 4
 1655 463 1540 125 1099 31 c 4
 956 0 813 0 692 -0 c 4
 689 0 687 0 684 0 c 6
 335 0 l 5
 335 617 l 5
 117 617 l 5
 117 849 l 5
 335 849 l 5
 335 1421 l 5xdc
 335 1421 484 1439 627 1439 c 4xec
 698 1439 768 1435 817 1421 c 5xdc
847 617 m 5
 587 617 l 5
 587 232 l 5
 753 232 l 6
 928 232 1192 237 1329 452 c 4
 1359 499 1401 586 1401 719 c 4
 1401 1022 1168 1155 969 1182 c 4
 923 1188 874 1189 823 1189 c 6xec
 587 1189 l 5
 587 849 l 5
 847 849 l 5
 847 617 l 5
EndSplineSet
Fore
SplineSet
1165 1189 m 2
 928 1189 l 1
 830 849 l 1
 1091 849 l 1
 1025 617 l 1
 764 617 l 1
 654 232 l 1
 820 232 l 2
 1073 232 1476 263 1607 719 c 0
 1620 764 1628 812 1628 861 c 0
 1628 1026 1529 1189 1165 1189 c 2
742 1421 m 1
 1218 1421 l 2
 1410 1421 1904 1396 1904 965 c 0
 1904 903 1894 832 1871 752 c 0
 1668 43 1039 0 747 0 c 2
 335 0 l 1
 512 617 l 1
 294 617 l 1
 360 849 l 1
 578 849 l 1
 742 1421 l 1
EndSplineSet
Validated: 1
EndChar

StartChar: Emacron
Encoding: 274 274 241
Width: 1447
VWidth: 0
Flags: HW
LayerCount: 2
Fore
SplineSet
290 0 m 1
 697 1421 l 1
 1694 1421 l 1
 1628 1189 l 1
 884 1189 l 1
 786 848 l 1
 1475 848 l 1
 1409 616 l 1
 720 616 l 1
 610 232 l 1
 1354 232 l 1
 1287 0 l 1
 290 0 l 1
847 1697 m 1
 1744 1697 l 1
 1683 1486 l 1
 786 1486 l 1
 847 1697 l 1
EndSplineSet
Validated: 1
EndChar

StartChar: emacron
Encoding: 275 275 242
Width: 1240
VWidth: 0
Flags: HW
LayerCount: 2
Fore
SplineSet
256 452 m 0xb8
 362 822 669 982 961 982 c 0
 1220 982 1288 860 1288 719 c 0
 1288 637 1265 550 1244 475 c 1
 1212 365 l 1
 475 365 l 1
 477 282 574 193 803 193 c 0xb8
 895 193 982 211 1040 227 c 1
 1083 238 l 1
 1077 49 l 1
 1038 37 l 1x78
 944 7 818 -20 671 -20 c 0
 333 -20 232 127 232 296 c 0
 232 347 241 400 256 452 c 0xb8
857 758 m 0
 695 758 580 670 536 571 c 1
 1036 571 l 1
 1040 591 1042 610 1042 627 c 0
 1042 725 970 758 857 758 c 0
642 1333 m 1
 1379 1333 l 1
 1312 1102 l 1
 575 1102 l 1
 642 1333 l 1
EndSplineSet
Validated: 1
EndChar

StartChar: Ebreve
Encoding: 276 276 243
Width: 1447
VWidth: 0
Flags: HW
LayerCount: 2
Fore
SplineSet
1661 1897 m 1
 1807 1774 l 1
 1771 1739 l 1
 1583 1559 1376 1477 1192 1477 c 0
 982 1477 853 1585 839 1761 c 1
 836 1794 l 1
 1060 1897 l 1
 1067 1859 l 1
 1095 1757 1172 1695 1276 1695 c 0
 1364 1695 1486 1739 1628 1866 c 1
 1661 1897 l 1
290 0 m 1
 697 1421 l 1
 1694 1421 l 1
 1628 1189 l 1
 884 1189 l 1
 786 848 l 1
 1475 848 l 1
 1409 616 l 1
 720 616 l 1
 610 232 l 1
 1354 232 l 1
 1287 0 l 1
 290 0 l 1
EndSplineSet
Validated: 1
EndChar

StartChar: ebreve
Encoding: 277 277 244
Width: 1239
VWidth: 0
Flags: HW
LayerCount: 2
Fore
SplineSet
256 452 m 0xb8
 362 822 669 982 955 982 c 0
 1219 982 1288 859 1288 717 c 0
 1288 636 1265 549 1244 475 c 1
 1212 365 l 1
 475 365 l 1
 476 282 572 193 796 193 c 0xb8
 886 193 982 211 1040 227 c 1
 1083 238 l 1
 1077 49 l 1
 1038 37 l 1x78
 944 7 808 -20 664 -20 c 0
 332 -20 232 126 232 294 c 0
 232 346 241 400 256 452 c 0xb8
851 758 m 0
 692 758 580 670 536 571 c 1
 1026 571 l 1
 1030 591 1032 609 1032 626 c 0
 1032 724 961 758 851 758 c 0
603 1349 m 1
 830 1463 l 1
 838 1421 l 2
 846 1381 885 1240 1031 1240 c 0
 1150 1240 1294 1345 1377 1429 c 1
 1410 1463 l 1
 1548 1327 l 1
 1511 1288 l 1
 1367 1146 1159 1020 951 1020 c 0
 713 1020 614 1173 605 1315 c 2
 603 1349 l 1
EndSplineSet
Validated: 1
EndChar

StartChar: Edotaccent
Encoding: 278 278 245
Width: 1447
VWidth: 0
Flags: HW
LayerCount: 2
Fore
SplineSet
290 0 m 1
 697 1421 l 1
 1694 1421 l 1
 1628 1189 l 1
 884 1189 l 1
 786 848 l 1
 1475 848 l 1
 1409 616 l 1
 720 616 l 1
 610 232 l 1
 1354 232 l 1
 1287 0 l 1
 290 0 l 1
1127 1829 m 1
 1475 1829 l 1
 1392 1537 l 1
 1044 1537 l 1
 1127 1829 l 1
EndSplineSet
Validated: 1
EndChar

StartChar: edotaccent
Encoding: 279 279 246
Width: 1249
VWidth: 0
Flags: HW
LayerCount: 2
Fore
SplineSet
256 452 m 0xbc
 362 822 672 982 966 982 c 0
 1228 982 1296 860 1296 719 c 0
 1296 637 1273 549 1252 475 c 2
 1221 365 l 1
 475 365 l 1
 477 282 576 193 808 193 c 0xbc
 901 193 989 211 1048 227 c 1
 1092 238 l 1
 1086 49 l 1
 1047 37 l 2x7c
 952 7 825 -20 676 -20 c 0
 334 -20 232 128 232 297 c 0
 232 348 241 401 256 452 c 0xbc
862 758 m 0
 697 758 580 670 536 571 c 1
 1044 571 l 1
 1048 591 1050 610 1050 626 c 0
 1050 724 977 758 862 758 c 0
915 1421 m 1
 1263 1421 l 1
 1180 1130 l 1
 832 1130 l 1
 915 1421 l 1
EndSplineSet
Validated: 1
EndChar

StartChar: Ecaron
Encoding: 282 282 247
Width: 1447
VWidth: 0
Flags: HW
LayerCount: 2
Fore
SplineSet
290 0 m 1
 697 1421 l 1
 1694 1421 l 1
 1628 1189 l 1
 884 1189 l 1
 786 848 l 1
 1475 848 l 1
 1409 616 l 1
 720 616 l 1
 610 232 l 1
 1354 232 l 1
 1287 0 l 1
 290 0 l 1
1190 1457 m 1
 940 1805 l 1
 1139 1950 l 1
 1293 1756 l 1
 1560 1947 l 1
 1678 1814 l 1
 1190 1457 l 1
EndSplineSet
Validated: 1
EndChar

StartChar: ecaron
Encoding: 283 283 248
Width: 1240
VWidth: 0
Flags: HW
LayerCount: 2
Fore
SplineSet
256 452 m 0xb0
 362 822 669 982 961 982 c 0
 1220 982 1288 860 1288 719 c 0
 1288 637 1265 550 1244 475 c 1
 1212 365 l 1
 475 365 l 1
 477 282 574 193 803 193 c 0xb0
 895 193 982 211 1040 227 c 1
 1083 238 l 1
 1077 49 l 1
 1038 37 l 1x70
 944 7 818 -20 671 -20 c 0
 333 -20 232 127 232 296 c 0
 232 347 241 400 256 452 c 0xb0
857 758 m 0
 695 758 580 670 536 571 c 1
 1036 571 l 1
 1040 591 1042 610 1042 627 c 0
 1042 725 970 758 857 758 c 0
963 999 m 1
 714 1364 l 1
 926 1516 l 1
 1069 1313 l 1
 1328 1513 l 1
 1435 1377 l 1
 963 999 l 1
EndSplineSet
Validated: 1
EndChar

StartChar: Gcircumflex
Encoding: 284 284 249
Width: 1755
VWidth: 0
Flags: HW
LayerCount: 2
Fore
SplineSet
1664 206 m 1
 1594 148 1384 -20 1007 -20 c 0
 556 -20 387 220 387 495 c 0
 387 565 398 638 418 709 c 0
 524 1080 889 1432 1421 1432 c 0
 1631 1432 1792 1373 1893 1306 c 2
 1923 1286 l 1
 1761 1088 l 1
 1730 1107 l 1
 1662 1147 1523 1200 1364 1200 c 0
 1083 1200 761 1023 674 719 c 0
 660 672 654 627 654 584 c 0
 654 362 833 213 1118 213 c 0
 1252 213 1360 247 1443 296 c 1
 1521 569 l 1
 1076 569 l 1
 1140 791 l 1
 1832 791 l 1
 1664 206 l 1
1521 1951 m 1
 1765 1603 l 1
 1555 1458 l 1
 1421 1652 l 1
 1169 1461 l 1
 1042 1594 l 1
 1521 1951 l 1
EndSplineSet
Validated: 1
EndChar

StartChar: gcircumflex
Encoding: 285 285 250
Width: 1326
VWidth: 0
Flags: HW
LayerCount: 2
Fore
SplineSet
634 1143 m 1xcc
 1120 1517 l 1
 1360 1152 l 1
 1152 1000 l 1
 1013 1203 l 1
 755 1003 l 1
 634 1143 l 1xcc
938 983 m 0xec
 983 983 1070 981 1204 920 c 1
 1235 963 l 1
 1420 963 l 1xdc
 1135 -29 l 2
 1069 -259 884 -541 415 -541 c 0
 313 -541 192 -524 89 -474 c 1
 57 -458 l 1
 188 -265 l 1
 221 -278 l 2
 292 -307 377 -322 453 -322 c 0
 809 -322 874 -45 895 25 c 1
 815 -1 724 -20 632 -20 c 0
 423 -20 235 70 235 308 c 0
 235 358 244 415 262 479 c 0
 372 862 721 983 938 983 c 0xec
509 495 m 0
 500 462 495 431 495 401 c 0
 495 282 573 197 748 197 c 0
 824 197 897 214 954 232 c 1
 1097 732 l 1
 1004 761 935 768 889 768 c 0xec
 708 768 557 663 509 495 c 0
EndSplineSet
Validated: 1
EndChar

StartChar: Gbreve
Encoding: 286 286 251
Width: 1755
VWidth: 0
Flags: HW
LayerCount: 2
Fore
SplineSet
1015 1794 m 1
 1256 1897 l 1
 1266 1859 l 2
 1275 1823 1313 1695 1456 1695 c 0
 1571 1695 1709 1790 1794 1866 c 2
 1829 1897 l 1
 1981 1774 l 1
 1945 1739 l 1
 1805 1606 1584 1475 1376 1475 c 0
 1146 1475 1035 1622 1019 1761 c 2
 1015 1794 l 1
1664 206 m 1
 1594 148 1384 -20 1007 -20 c 0
 566 -20 385 209 385 487 c 0
 385 555 396 626 416 697 c 0
 521 1064 884 1432 1421 1432 c 0
 1631 1432 1792 1373 1893 1306 c 2
 1923 1286 l 1
 1761 1088 l 1
 1730 1107 l 1
 1662 1147 1523 1200 1364 1200 c 0
 1083 1200 761 1023 674 719 c 0
 660 672 654 627 654 584 c 0
 654 362 833 213 1118 213 c 0
 1252 213 1360 247 1443 296 c 1
 1521 569 l 1
 1076 569 l 1
 1140 791 l 1
 1832 791 l 1
 1664 206 l 1
EndSplineSet
Validated: 1
EndChar

StartChar: gbreve
Encoding: 287 287 252
Width: 1325
VWidth: 0
Flags: HW
LayerCount: 2
Fore
SplineSet
415 -541 m 0xde
 313 -541 192 -524 89 -474 c 1
 57 -458 l 1
 188 -265 l 1
 221 -278 l 2
 292 -307 377 -322 453 -322 c 0
 809 -322 874 -45 895 25 c 1
 815 -1 724 -20 632 -20 c 0
 423 -20 235 70 235 308 c 0
 235 358 244 415 262 479 c 0
 372 862 721 983 938 983 c 0xee
 983 983 1070 981 1204 920 c 1
 1235 963 l 1
 1420 963 l 1
 1139 -16 l 2
 1021 -427 698 -541 415 -541 c 0xde
509 495 m 0
 500 462 495 431 495 401 c 0
 495 282 573 197 748 197 c 0
 824 197 897 214 954 232 c 1
 1097 732 l 1
 1004 761 935 768 889 768 c 0
 708 768 557 663 509 495 c 0
619 1315 m 2
 617 1349 l 1
 849 1463 l 1
 857 1421 l 2
 865 1381 903 1240 1049 1240 c 0
 1168 1240 1312 1345 1397 1429 c 2
 1431 1463 l 1
 1571 1327 l 1
 1534 1288 l 1
 1389 1146 1178 1020 969 1020 c 0
 731 1020 628 1172 619 1315 c 2
EndSplineSet
Validated: 1
EndChar

StartChar: Gdotaccent
Encoding: 288 288 253
Width: 1755
VWidth: 0
Flags: HW
LayerCount: 2
Fore
SplineSet
1355 1829 m 1
 1676 1829 l 1
 1593 1537 l 1
 1272 1537 l 1
 1355 1829 l 1
1664 206 m 1
 1594 148 1384 -20 1007 -20 c 0
 556 -20 387 220 387 495 c 0
 387 565 398 638 418 709 c 0
 524 1080 889 1432 1421 1432 c 0
 1631 1432 1792 1373 1893 1306 c 2
 1923 1286 l 1
 1761 1088 l 1
 1730 1107 l 1
 1662 1147 1523 1200 1364 1200 c 0
 1083 1200 761 1023 674 719 c 0
 660 672 654 627 654 584 c 0
 654 362 833 213 1118 213 c 0
 1252 213 1360 247 1443 296 c 1
 1521 569 l 1
 1076 569 l 1
 1140 791 l 1
 1832 791 l 1
 1664 206 l 1
EndSplineSet
Validated: 1
EndChar

StartChar: gdotaccent
Encoding: 289 289 254
Width: 1335
VWidth: 0
Flags: HW
LayerCount: 2
Fore
SplineSet
817 1130 m 1xcf
 900 1421 l 1
 1238 1421 l 1
 1155 1130 l 1
 817 1130 l 1xcf
509 495 m 0
 500 462 495 431 495 402 c 0
 495 283 574 197 753 197 c 0
 830 197 904 214 962 232 c 1
 1106 732 l 1
 1011 761 941 768 894 768 c 0xef
 710 768 557 663 509 495 c 0
944 983 m 0
 990 983 1077 981 1213 920 c 1
 1243 963 l 1
 1428 963 l 1xdf
 1143 -29 l 2
 1077 -259 893 -541 419 -541 c 0
 317 -541 194 -524 90 -474 c 2
 57 -458 l 1
 188 -264 l 1
 222 -279 l 2
 269 -299 354 -322 457 -322 c 0
 818 -322 882 -45 903 25 c 1
 822 -1 731 -20 638 -20 c 0
 427 -20 236 71 236 310 c 0
 236 360 244 416 262 479 c 0
 372 862 724 983 944 983 c 0
EndSplineSet
Validated: 1
EndChar

StartChar: Gcommaaccent
Encoding: 290 290 255
Width: 1755
VWidth: 0
Flags: HW
LayerCount: 2
Fore
SplineSet
1664 206 m 1xf2
 1594 148 1384 -20 1007 -20 c 0
 556 -20 387 220 387 495 c 0
 387 565 398 638 418 709 c 0
 525 1081 890 1432 1421 1432 c 0
 1631 1432 1792 1373 1893 1306 c 2
 1923 1286 l 1
 1761 1088 l 1
 1730 1107 l 1
 1662 1147 1523 1200 1364 1200 c 0
 1083 1200 761 1023 674 719 c 0
 660 672 654 627 654 584 c 0
 654 362 833 213 1118 213 c 0
 1252 213 1360 247 1443 296 c 1
 1521 569 l 1
 1076 569 l 1
 1140 791 l 1
 1832 791 l 1
 1664 206 l 1xf2
926 -59 m 1xf6
 1222 -59 l 1xf6
 876 -531 l 1
 581 -531 l 1xfa
 926 -59 l 1xf6
EndSplineSet
Validated: 1
EndChar

StartChar: Hcircumflex
Encoding: 292 292 256
Width: 1764
VWidth: 0
Flags: HW
LayerCount: 2
Fore
SplineSet
1709 1421 m 1
 1961 1421 l 1
 1554 0 l 1
 1302 0 l 1
 1479 617 l 1
 719 617 l 1
 542 0 l 1
 290 0 l 1
 697 1421 l 1
 949 1421 l 1
 785 849 l 1
 1545 849 l 1
 1709 1421 l 1
1506 1956 m 5
 1756 1608 l 5
 1544 1463 l 5
 1404 1657 l 5
 1150 1466 l 5
 1022 1599 l 5
 1506 1956 l 5
EndSplineSet
Validated: 1
EndChar

StartChar: hcircumflex
Encoding: 293 293 257
Width: 1342
VWidth: 0
Flags: HW
LayerCount: 2
Fore
SplineSet
909 753 m 0
 858 753 766 745 632 700 c 1
 431 0 l 1
 185 0 l 1
 615 1499 l 1
 861 1499 l 1
 693 912 l 1
 789 945 924 981 1052 981 c 0
 1291 981 1349 864 1349 742 c 0
 1349 673 1331 602 1315 548 c 2
 1158 0 l 1
 908 0 l 1
 1068 559 l 2
 1073 576 1081 604 1081 633 c 0
 1081 690 1051 753 909 753 c 0
1290 2006 m 5
 1537 1649 l 5
 1333 1501 l 5
 1187 1700 l 5
 921 1504 l 5
 811 1640 l 5
 1290 2006 l 5
EndSplineSet
Validated: 1
EndChar

StartChar: Itilde
Encoding: 296 296 258
Width: 812
VWidth: 0
Flags: HW
LayerCount: 2
Back
SplineSet
305 1630 m 6
 267 1493 l 5
 84 1542 l 5
 121 1680 l 6
 128 1706 165 1866 339 1866 c 4
 437 1866 483 1799 500 1775 c 6
 548 1712 l 6
 560 1698 573 1681 582 1677 c 5
 590 1685 600 1711 605 1734 c 5
 644 1874 l 5
 826 1823 l 5
 790 1687 l 6
 777 1640 730 1468 568 1468 c 4
 470 1468 422 1545 410 1561 c 6
 362 1625 l 6
 345 1646 328 1661 319 1662 c 5
 314 1658 309 1644 305 1630 c 6
329 0 m 5
 329 1421 l 5
 581 1421 l 5
 581 0 l 5
 329 0 l 5
583 1677 m 5
 583 1677 l 5
EndSplineSet
Fore
SplineSet
989 1468 m 4
 837 1468 845 1660 801 1660 c 4
 787 1660 781 1646 695 1493 c 5
 526 1542 l 5
 608 1690 679 1866 874 1866 c 4
 1032 1866 1021 1681 1063 1681 c 4
 1076 1681 1079 1694 1181 1874 c 5
 1349 1823 l 5
 1270 1679 1177 1468 989 1468 c 4
329 0 m 1
 736 1421 l 1
 988 1421 l 1
 581 0 l 1
 329 0 l 1
EndSplineSet
Validated: 1
EndChar

StartChar: itilde
Encoding: 297 297 259
Width: 602
VWidth: 0
Flags: HW
LayerCount: 2
Back
SplineSet
752 1248 m 4
 823 1248 853 1333 902 1430 c 5
 1006 1383 l 5
 954 1276 896 1126 752 1126 c 4
 594 1126 525 1306 433 1306 c 4
 362 1306 333 1222 284 1124 c 5
 178 1171 l 5
 230 1278 289 1428 433 1428 c 4
 591 1428 660 1248 752 1248 c 4
EndSplineSet
Fore
SplineSet
462 988 m 1
 708 988 l 1
 425 0 l 1
 179 0 l 1
 462 988 l 1
746 1121 m 0
 595 1121 603 1313 559 1313 c 0
 545 1313 540 1299 454 1146 c 1
 285 1195 l 1
 367 1343 437 1519 631 1519 c 0
 788 1519 777 1334 819 1334 c 0
 832 1334 836 1347 937 1527 c 1
 1104 1476 l 1
 1025 1332 933 1121 746 1121 c 0
EndSplineSet
Validated: 1
EndChar

StartChar: Imacron
Encoding: 298 298 260
Width: 812
VWidth: 0
Flags: HW
LayerCount: 2
Fore
SplineSet
687 1697 m 1
 1179 1697 l 1
 1118 1486 l 1
 626 1486 l 1
 687 1697 l 1
727 1421 m 1
 979 1421 l 1
 572 0 l 1
 320 0 l 1
 727 1421 l 1
EndSplineSet
Validated: 1
EndChar

StartChar: imacron
Encoding: 299 299 261
Width: 600
VWidth: 0
Flags: HW
LayerCount: 2
Fore
SplineSet
459 988 m 1
 705 988 l 1
 422 0 l 1
 176 0 l 1
 459 988 l 1
460 1333 m 1
 901 1333 l 1
 841 1122 l 1
 400 1122 l 1
 460 1333 l 1
EndSplineSet
Validated: 1
EndChar

StartChar: Ibreve
Encoding: 300 300 262
Width: 894
VWidth: 0
Flags: HW
LayerCount: 2
Back
SplineSet
83 1787 m 5
 277 1891 l 5
 294 1847 l 6
 327 1760 387 1705 450 1705 c 4
 518 1705 577 1758 731 1855 c 5
 757 1890 l 5
 910 1763 l 5
 893 1733 l 6
 807 1588 614 1475 419 1475 c 4
 225 1475 131 1632 93 1755 c 6
 83 1787 l 5
EndSplineSet
Fore
SplineSet
600 1791 m 5
 821 1894 l 5
 829 1856 l 6
 836 1820 818 1692 947 1692 c 4
 1052 1692 1140 1787 1219 1863 c 5
 1252 1894 l 5
 1397 1771 l 5
 1361 1736 l 5
 1215 1596 1051 1472 868 1472 c 4
 659 1472 613 1620 602 1758 c 5
 600 1791 l 5
735 1421 m 1
 987 1421 l 1
 580 0 l 1
 328 0 l 1
 735 1421 l 1
EndSplineSet
Validated: 1
EndChar

StartChar: ibreve
Encoding: 301 301 263
Width: 674
VWidth: 0
Flags: HW
LayerCount: 2
Fore
SplineSet
367 1431 m 5
 584 1534 l 5
 592 1496 l 5
 598 1460 580 1332 708 1332 c 4
 812 1332 900 1427 978 1503 c 5
 1011 1534 l 5
 1151 1411 l 5
 1115 1376 l 6
 971 1236 810 1112 630 1112 c 4
 425 1112 381 1260 370 1398 c 5
 367 1431 l 5
467 988 m 1
 713 988 l 1
 429 0 l 1
 183 0 l 1
 467 988 l 1
EndSplineSet
Validated: 1
EndChar

StartChar: Idotaccent
Encoding: 304 304 264
Width: 812
VWidth: 0
Flags: HW
LayerCount: 2
Fore
SplineSet
822 1829 m 1xf0
 1114 1829 l 1
 1031 1537 l 1
 739 1537 l 1
 822 1829 l 1xf0
727 1421 m 1xe8
 979 1421 l 1
 572 0 l 1
 320 0 l 1
 727 1421 l 1xe8
EndSplineSet
Validated: 1
EndChar

StartChar: IJ
Encoding: 306 306 265
Width: 1929
VWidth: 0
Flags: HW
LayerCount: 2
Fore
SplineSet
727 1421 m 1x5c
 979 1421 l 1
 572 0 l 1
 320 0 l 1
 727 1421 l 1x5c
1881 1421 m 1
 2133 1421 l 1
 1873 511 l 2
 1809 288 1663 -17 1161 -17 c 0x9c
 1092 -17 1024 -9 962 8 c 2
 927 18 l 1
 1033 240 l 1x3c
 1072 230 l 2
 1111 220 1156 215 1200 215 c 0x9c
 1522 215 1595 424 1621 513 c 2
 1881 1421 l 1
EndSplineSet
Validated: 1
EndChar

StartChar: ij
Encoding: 307 307 266
Width: 1203
VWidth: 0
Flags: HW
LayerCount: 2
Fore
SplineSet
1053 988 m 1xe2
 1299 988 l 1
 988 -96 l 2
 955 -210 891 -427 562 -532 c 1
 516 -544 l 1
 448 -350 l 1
 502 -332 l 2
 666 -277 714 -195 737 -116 c 2
 1053 988 l 1xe2
1163 1421 m 1xe4
 1442 1421 l 1
 1365 1150 l 1
 1086 1150 l 1
 1163 1421 l 1xe4
459 988 m 1xe8
 705 988 l 1
 422 0 l 1
 176 0 l 1
 459 988 l 1xe8
568 1421 m 1xf0
 848 1421 l 1
 771 1150 l 1
 491 1150 l 1
 568 1421 l 1xf0
EndSplineSet
Validated: 1
EndChar

StartChar: Jcircumflex
Encoding: 308 308 267
Width: 1117
VWidth: 2097
Flags: HW
LayerCount: 2
Back
SplineSet
795 1951 m 5x20
 1107 1603 l 5
 954 1458 l 5
 780 1652 l 5
 581 1461 l 5
 376 1594 l 5
 795 1951 l 5x20
662 1421 m 5xa8
 914 1421 l 5xa8
 914 441 l 6
 914 309 897 203 793 111 c 5
 737 64 609 -17 354 -17 c 4xb0
 285 -17 215 -9 148 8 c 6
 110 18 l 5
 152 240 l 5x70
 194 230 l 6
 236 220 282 215 326 215 c 4
 611 215 623 354 623 443 c 5xb0
 662 1421 l 5xa8
EndSplineSet
Fore
SplineSet
1069 1421 m 1xb0
 1321 1421 l 1
 1061 511 l 2
 997 288 851 -17 349 -17 c 0xb0
 280 -17 212 -9 150 8 c 2
 115 18 l 1
 221 240 l 1x70
 260 230 l 2
 299 220 344 215 388 215 c 0
 710 215 783 424 809 513 c 2
 1069 1421 l 1xb0
1352 1951 m 1
 1565 1603 l 1
 1371 1458 l 1
 1252 1652 l 1
 1020 1461 l 1
 908 1594 l 1
 1352 1951 l 1
EndSplineSet
Validated: 1
EndChar

StartChar: jcircumflex
Encoding: 309 309 268
Width: 597
VWidth: 0
Flags: HW
LayerCount: 2
Fore
SplineSet
755 1514 m 1
 930 1159 l 1
 740 1014 l 1
 649 1195 l 1
 453 1017 l 1
 346 1150 l 1
 755 1514 l 1
474 988 m 1
 720 988 l 1
 410 -96 l 2
 374 -223 304 -430 -5 -532 c 1
 -42 -544 l 1
 -81 -350 l 1
 -39 -332 l 2
 109 -269 144 -166 159 -113 c 2
 474 988 l 1
EndSplineSet
Validated: 1
EndChar

StartChar: Kcommaaccent
Encoding: 310 310 269
Width: 1581
VWidth: 0
Flags: HW
LayerCount: 2
Fore
SplineSet
290 0 m 1xe2
 697 1421 l 1
 949 1421 l 1
 763 770 l 1
 1597 1421 l 1
 1920 1421 l 1xe4
 1042 741 l 1
 1549 0 l 1
 1222 0 l 1
 739 688 l 1
 542 0 l 1
 290 0 l 1xe2
323 -512 m 5xd0
 667 -40 l 5
 972 -40 l 5xc8
 619 -512 l 5
 323 -512 l 5xd0
EndSplineSet
Validated: 1
EndChar

StartChar: kcommaaccent
Encoding: 311 311 270
Width: 1235
VWidth: 0
Flags: HW
LayerCount: 2
Fore
SplineSet
159 -512 m 5xe8
 502 -40 l 5
 807 -40 l 5xe4
 455 -512 l 5
 159 -512 l 5xe8
176 0 m 1xf1
 609 1511 l 1
 855 1511 l 1
 591 591 l 1
 1183 1008 l 1
 1480 1008 l 1xf2
 842 556 l 1
 1206 0 l 1
 904 0 l 1
 563 492 l 1
 422 0 l 1
 176 0 l 1xf1
EndSplineSet
Validated: 1
EndChar

StartChar: Lacute
Encoding: 313 313 271
Width: 1297
VWidth: 0
Flags: HW
LayerCount: 2
Fore
SplineSet
711 1421 m 1
 963 1421 l 1
 628 231 l 1
 1342 231 l 1
 1276 0 l 1
 304 0 l 1
 711 1421 l 1
1491 1992 m 1
 1565 1797 l 1
 804 1461 l 1
 753 1639 l 1
 1491 1992 l 1
EndSplineSet
Validated: 1
EndChar

StartChar: lacute
Encoding: 314 314 272
Width: 715
VWidth: 0
Flags: HW
LayerCount: 2
Fore
SplineSet
642 1511 m 1xe0
 911 1511 l 1xe0
 455 0 l 1
 209 0 l 1xd0
 642 1511 l 1xe0
1395 2067 m 1
 1447 1872 l 1
 697 1536 l 1
 647 1714 l 1
 1395 2067 l 1
EndSplineSet
Validated: 1
EndChar

StartChar: Lcommaaccent
Encoding: 315 315 273
Width: 1297
VWidth: 0
Flags: HW
LayerCount: 2
Fore
SplineSet
717 1421 m 1
 969 1421 l 1
 633 231 l 1
 1348 231 l 1
 1282 0 l 1
 310 0 l 1
 717 1421 l 1
468 -40 m 1
 778 -40 l 1
 414 -512 l 1
 141 -512 l 1
 468 -40 l 1
EndSplineSet
Validated: 1
EndChar

StartChar: lcommaaccent
Encoding: 316 316 274
Width: 646
VWidth: 0
Flags: HW
LayerCount: 2
Fore
SplineSet
653 1511 m 1xd0
 899 1511 l 1
 466 0 l 1
 220 0 l 1
 653 1511 l 1xd0
250 -40 m 5xc8
 519 -40 l 5xc8
 191 -512 l 5
 -77 -512 l 5xe0
 250 -40 l 5xc8
EndSplineSet
Validated: 1
EndChar

StartChar: Lcaron
Encoding: 317 317 275
Width: 1297
VWidth: 0
Flags: HW
LayerCount: 2
Fore
SplineSet
1336 1421 m 1xe8
 1605 1421 l 1xe8
 1278 949 l 1
 1010 949 l 1xf0
 1336 1421 l 1xe8
697 1421 m 1
 949 1421 l 1
 608 231 l 1
 1328 231 l 1
 1262 0 l 1
 290 0 l 1
 697 1421 l 1
EndSplineSet
Validated: 1
EndChar

StartChar: lcaron
Encoding: 318 318 276
Width: 886
VWidth: 0
Flags: HW
LayerCount: 2
Fore
SplineSet
628 1511 m 1xe0
 874 1511 l 1
 441 0 l 1
 195 0 l 1
 628 1511 l 1xe0
1029 1511 m 1xe8
 1279 1511 l 1xe8
 1001 1039 l 1
 751 1039 l 1xf0
 1029 1511 l 1xe8
EndSplineSet
Validated: 1
EndChar

StartChar: Ldot
Encoding: 319 319 277
Width: 1297
VWidth: 0
Flags: HW
LayerCount: 2
Fore
SplineSet
697 1421 m 1
 949 1421 l 1
 608 231 l 1
 1328 231 l 1
 1262 0 l 1
 290 0 l 1
 697 1421 l 1
956 864 m 1
 1301 864 l 1
 1217 572 l 1
 872 572 l 1
 956 864 l 1
EndSplineSet
Validated: 1
EndChar

StartChar: ldot
Encoding: 320 320 278
Width: 903
VWidth: 0
Flags: HW
LayerCount: 2
Fore
SplineSet
628 1511 m 1
 874 1511 l 1
 441 0 l 1
 195 0 l 1
 628 1511 l 1
779 879 m 1
 1071 879 l 1
 987 587 l 1
 695 587 l 1
 779 879 l 1
EndSplineSet
Validated: 1
EndChar

StartChar: Nacute
Encoding: 323 323 279
Width: 1823
VWidth: 0
Flags: HW
LayerCount: 2
Fore
SplineSet
697 1421 m 1
 975 1421 l 1
 1455 329 l 1
 1768 1421 l 1
 2020 1421 l 1
 1613 0 l 1
 1332 0 l 1
 856 1094 l 1
 542 0 l 1
 290 0 l 1
 697 1421 l 1
1785 1992 m 1
 1853 1797 l 1
 1107 1461 l 1
 1044 1639 l 1
 1785 1992 l 1
EndSplineSet
Validated: 1
EndChar

StartChar: nacute
Encoding: 324 324 280
Width: 1328
VWidth: 0
Flags: HW
LayerCount: 2
Fore
SplineSet
452 963 m 1xb8
 635 963 l 1xb8
 644 895 l 1
 824 965 961 983 1050 983 c 0
 1275 983 1339 882 1339 755 c 0
 1339 696 1325 631 1307 569 c 2
 1144 0 l 1
 897 0 l 1
 1058 562 l 2
 1064 584 1071 611 1071 638 c 0
 1071 696 1039 753 899 753 c 0xd8
 801 753 689 722 622 700 c 1
 422 0 l 1
 176 0 l 1
 452 963 l 1xb8
1422 1562 m 1
 1474 1356 l 1
 723 1007 l 1
 673 1193 l 1
 1422 1562 l 1
EndSplineSet
Validated: 1
EndChar

StartChar: Ncommaaccent
Encoding: 325 325 281
Width: 1823
VWidth: 0
Flags: HW
LayerCount: 2
Fore
SplineSet
787 -40 m 1xec
 1087 -40 l 1xec
 737 -512 l 1
 438 -512 l 1xf4
 787 -40 l 1xec
697 1421 m 1
 975 1421 l 1
 1455 329 l 1
 1768 1421 l 1
 2020 1421 l 1
 1613 0 l 1
 1332 0 l 1
 856 1094 l 1
 542 0 l 1
 290 0 l 1
 697 1421 l 1
EndSplineSet
Validated: 1
EndChar

StartChar: ncommaaccent
Encoding: 326 326 282
Width: 1339
VWidth: 0
Flags: HW
LayerCount: 2
Fore
SplineSet
452 963 m 1xb2
 635 963 l 1xb2
 644 895 l 1
 826 965 966 983 1056 983 c 0
 1284 983 1349 880 1349 752 c 0
 1349 693 1335 628 1317 565 c 2
 1152 -10 l 1
 905 -10 l 1
 1068 559 l 2
 1074 581 1081 609 1081 636 c 0
 1081 695 1049 753 905 753 c 0xd2
 804 753 690 722 622 699 c 1
 419 -10 l 1
 173 -10 l 1
 452 963 l 1xb2
512 -49 m 1x86
 835 -49 l 1x86
 473 -512 l 1
 171 -512 l 1x8a
 512 -49 l 1x86
EndSplineSet
Validated: 1
EndChar

StartChar: Ncaron
Encoding: 327 327 283
Width: 1823
VWidth: 0
Flags: HW
LayerCount: 2
Fore
SplineSet
697 1421 m 1
 975 1421 l 1
 1455 329 l 1
 1768 1421 l 1
 2020 1421 l 1
 1613 0 l 1
 1332 0 l 1
 856 1094 l 1
 542 0 l 1
 290 0 l 1
 697 1421 l 1
1408 1457 m 1
 1159 1806 l 1
 1372 1950 l 1
 1510 1756 l 1
 1762 1947 l 1
 1890 1814 l 1
 1408 1457 l 1
EndSplineSet
Validated: 1
EndChar

StartChar: ncaron
Encoding: 328 328 284
Width: 1328
VWidth: 0
Flags: HW
LayerCount: 2
Fore
SplineSet
452 963 m 1xb8
 635 963 l 1xb8
 644 895 l 1
 824 965 961 983 1050 983 c 0
 1275 983 1339 882 1339 755 c 0
 1339 696 1325 631 1307 569 c 2
 1144 0 l 1
 897 0 l 1
 1058 562 l 2
 1064 584 1071 611 1071 638 c 0
 1071 696 1039 753 899 753 c 0xd8
 801 753 689 722 622 700 c 1
 422 0 l 1
 176 0 l 1
 452 963 l 1xb8
958 1003 m 1
 714 1368 l 1
 919 1520 l 1
 1064 1318 l 1
 1330 1517 l 1
 1440 1375 l 1
 958 1003 l 1
EndSplineSet
Validated: 1
EndChar

StartChar: Omacron
Encoding: 332 332 285
Width: 1850
VWidth: 0
Flags: HW
LayerCount: 2
Fore
SplineSet
1660 709 m 0
 1677 768 1685 821 1685 869 c 0
 1685 1104 1498 1205 1299 1205 c 0
 1073 1205 777 1063 681 727 c 0
 664 668 656 614 656 564 c 0
 656 346 809 216 1035 216 c 0
 1264 216 1560 361 1660 709 c 0
1378 1436 m 0
 1733 1436 1957 1254 1957 947 c 0
 1957 879 1946 805 1923 726 c 0
 1797 285 1404 -15 954 -15 c 0
 635 -15 383 148 383 477 c 0
 383 546 394 623 418 707 c 0
 546 1152 938 1436 1378 1436 c 0
1025 1697 m 1
 1920 1697 l 1
 1859 1486 l 1
 964 1486 l 1
 1025 1697 l 1
EndSplineSet
Validated: 1
EndChar

StartChar: omacron
Encoding: 333 333 286
Width: 1359
VWidth: 0
Flags: HW
LayerCount: 2
Fore
SplineSet
964 982 m 0
 1226 982 1392 865 1392 649 c 0
 1392 603 1385 553 1369 499 c 0
 1277 178 999 -20 658 -20 c 0
 394 -20 238 103 238 316 c 0
 238 364 246 416 262 472 c 0
 352 785 621 982 964 982 c 0
885 760 m 0
 741 760 562 674 511 496 c 0
 503 467 499 439 499 413 c 0
 499 291 587 202 743 202 c 0
 909 202 1071 305 1119 471 c 0
 1128 501 1132 529 1132 554 c 0
 1132 692 1012 760 885 760 c 0
613 1273 m 5
 1501 1273 l 5
 1440 1062 l 5
 552 1062 l 5
 613 1273 l 5
EndSplineSet
Validated: 1
EndChar

StartChar: Obreve
Encoding: 334 334 287
Width: 1850
VWidth: 0
Flags: HW
LayerCount: 2
Fore
SplineSet
1032 1794 m 1
 1271 1897 l 1
 1280 1859 l 2
 1289 1823 1327 1695 1467 1695 c 0
 1581 1695 1718 1790 1802 1866 c 2
 1836 1897 l 1
 1997 1774 l 1
 1960 1739 l 1
 1805 1599 1586 1475 1387 1475 c 0
 1159 1475 1051 1623 1036 1761 c 1
 1032 1794 l 1
1660 709 m 0
 1677 768 1685 821 1685 869 c 0
 1685 1104 1498 1205 1299 1205 c 0
 1073 1205 777 1063 681 727 c 0
 664 668 656 614 656 564 c 0
 656 346 809 216 1035 216 c 0
 1264 216 1560 361 1660 709 c 0
1378 1436 m 0
 1733 1436 1957 1254 1957 947 c 0
 1957 879 1946 805 1923 726 c 0
 1797 285 1404 -15 954 -15 c 0
 635 -15 383 148 383 477 c 0
 383 546 394 623 418 707 c 0
 546 1152 938 1436 1378 1436 c 0
EndSplineSet
Validated: 1
EndChar

StartChar: obreve
Encoding: 335 335 288
Width: 1359
VWidth: 0
Flags: HW
LayerCount: 2
Fore
SplineSet
641 1349 m 5
 875 1463 l 5
 883 1421 l 6
 891 1381 929 1240 1074 1240 c 4
 1192 1240 1335 1345 1419 1429 c 5
 1452 1463 l 5
 1594 1327 l 5
 1556 1288 l 5
 1411 1146 1200 1020 993 1020 c 0
 756 1020 652 1173 643 1315 c 6
 641 1349 l 5
885 760 m 0
 741 760 562 674 511 496 c 0
 503 467 499 439 499 413 c 0
 499 291 587 202 743 202 c 0
 909 202 1071 305 1119 471 c 0
 1128 501 1132 529 1132 554 c 0
 1132 692 1012 760 885 760 c 0
964 982 m 0
 1226 982 1392 865 1392 649 c 0
 1392 603 1385 553 1369 499 c 0
 1277 178 999 -20 658 -20 c 0
 394 -20 238 103 238 316 c 0
 238 364 246 416 262 472 c 0
 352 785 621 982 964 982 c 0
EndSplineSet
Validated: 1
EndChar

StartChar: Racute
Encoding: 340 340 289
Width: 1602
VWidth: 0
Flags: HW
LayerCount: 2
Fore
SplineSet
1683 1014 m 0xf8
 1633 840 1502 664 1251 594 c 1
 1510 0 l 1
 1182 0 l 5xf4
 942 552 l 1
 926 552 910 551 893 551 c 2
 701 551 l 1
 543 0 l 1
 290 0 l 1
 697 1421 l 1
 1303 1421 l 2
 1426 1421 1578 1415 1658 1310 c 1
 1688 1267 1704 1212 1704 1150 c 0
 1704 1108 1697 1062 1683 1014 c 0xf8
884 1190 m 1
 768 783 l 1
 1000 783 l 2
 1153 783 1277 796 1363 897 c 0
 1397 937 1421 991 1421 1042 c 0
 1421 1105 1383 1163 1279 1182 c 0
 1235 1190 1185 1190 1132 1190 c 2
 884 1190 l 1
1622 1992 m 1
 1692 1797 l 1
 937 1461 l 1
 886 1639 l 1
 1622 1992 l 1
EndSplineSet
Validated: 1
EndChar

StartChar: racute
Encoding: 341 341 290
Width: 951
VWidth: 0
Flags: HW
LayerCount: 2
Fore
SplineSet
649 910 m 1xb0
 750 952 871 982 995 982 c 0
 1063 982 1128 968 1183 938 c 2
 1213 922 l 1
 1078 720 l 1
 1045 734 l 2
 1005 751 960 760 906 760 c 2
 904 760 l 2xd0
 819 760 728 744 645 715 c 1
 440 0 l 1
 176 0 l 1
 452 963 l 1
 635 963 l 1
 649 910 l 1xb0
1171 1567 m 1
 1261 1386 l 1
 640 1002 l 1
 559 1172 l 1
 1171 1567 l 1
EndSplineSet
Validated: 1
EndChar

StartChar: Rcommaaccent
Encoding: 342 342 291
Width: 1602
VWidth: 0
Flags: HW
LayerCount: 2
Fore
SplineSet
470 -40 m 1xe8
 767 -40 l 1
 413 -512 l 1
 143 -512 l 1
 470 -40 l 1xe8
888 1190 m 1xf4
 772 783 l 1
 1004 783 l 2
 1157 783 1280 796 1366 897 c 0
 1400 938 1425 992 1425 1043 c 0
 1425 1106 1387 1163 1283 1182 c 0
 1239 1190 1189 1190 1136 1190 c 2
 888 1190 l 1xf4
1687 1014 m 0
 1637 840 1506 664 1255 594 c 1
 1514 0 l 1
 1186 0 l 5xe2
 946 552 l 1
 930 552 914 551 897 551 c 2
 705 551 l 1
 547 0 l 1
 294 0 l 1
 701 1421 l 1
 1306 1421 l 2
 1429 1421 1582 1415 1662 1310 c 1
 1692 1267 1708 1212 1708 1150 c 0
 1708 1108 1701 1062 1687 1014 c 0
EndSplineSet
Validated: 1
EndChar

StartChar: rcommaaccent
Encoding: 343 343 292
Width: 947
VWidth: 0
Flags: HW
LayerCount: 2
Fore
SplineSet
668 910 m 1xb0
 769 952 890 982 1014 982 c 0
 1082 982 1148 968 1203 938 c 2
 1232 922 l 1
 1097 719 l 1
 1064 734 l 2
 1024 752 980 760 926 760 c 2
 923 760 l 2xd0
 838 760 749 743 665 714 c 1
 457 -10 l 1
 192 -10 l 1
 471 963 l 1
 654 963 l 1
 668 910 l 1xb0
198 -49 m 1
 496 -49 l 1
 142 -512 l 1
 -121 -512 l 1
 198 -49 l 1
EndSplineSet
Validated: 1
EndChar

StartChar: Rcaron
Encoding: 344 344 293
Width: 1602
VWidth: 0
Flags: HW
LayerCount: 2
Fore
SplineSet
1683 1014 m 0xf8
 1633 840 1502 664 1251 594 c 1
 1510 0 l 1
 1182 0 l 5xf4
 942 552 l 1
 926 552 910 551 893 551 c 2
 701 551 l 1
 543 0 l 1
 290 0 l 1
 697 1421 l 1
 1303 1421 l 2
 1426 1421 1578 1415 1658 1310 c 1
 1688 1267 1704 1212 1704 1150 c 0
 1704 1108 1697 1062 1683 1014 c 0xf8
884 1190 m 1
 768 783 l 1
 1000 783 l 2
 1153 783 1277 796 1363 897 c 0
 1397 937 1421 991 1421 1042 c 0
 1421 1105 1383 1163 1279 1182 c 0
 1235 1190 1185 1190 1132 1190 c 2
 884 1190 l 1
1184 1457 m 1
 945 1805 l 1
 1143 1950 l 1
 1286 1756 l 1
 1543 1947 l 1
 1675 1814 l 1
 1184 1457 l 1
EndSplineSet
Validated: 1
EndChar

StartChar: rcaron
Encoding: 345 345 294
Width: 951
VWidth: 0
Flags: HW
LayerCount: 2
Fore
SplineSet
649 910 m 1xb0
 750 952 871 982 995 982 c 0
 1063 982 1128 968 1183 938 c 2
 1213 922 l 1
 1078 720 l 1
 1045 734 l 2
 1005 751 960 760 906 760 c 2
 904 760 l 2xd0
 819 760 728 744 645 715 c 1
 440 0 l 1
 176 0 l 1
 452 963 l 1
 635 963 l 1
 649 910 l 1xb0
861 999 m 1
 607 1365 l 1
 807 1516 l 1
 969 1313 l 1
 1226 1513 l 1
 1333 1377 l 1
 861 999 l 1
EndSplineSet
Validated: 1
EndChar

StartChar: Sacute
Encoding: 346 346 295
Width: 1525
VWidth: 0
Flags: HW
LayerCount: 2
Fore
SplineSet
1644 1992 m 1x98
 1709 1797 l 1
 954 1461 l 1
 896 1639 l 1
 1644 1992 l 1x98
1338 1434 m 0xb8
 1504 1434 1642 1399 1714 1375 c 1
 1752 1363 l 1
 1603 1131 l 1
 1568 1142 l 1xd8
 1434 1182 1322 1192 1253 1192 c 0
 1063 1192 878 1124 848 1021 c 0
 845 1011 844 1003 844 994 c 0
 844 799 1527 840 1527 498 c 0
 1527 471 1522 441 1513 409 c 0
 1458 217 1224 -20 751 -20 c 0
 550 -20 423 25 300 79 c 1
 267 93 l 1
 421 335 l 1
 456 320 l 1
 628 252 760 230 847 230 c 0
 1052 230 1211 298 1241 401 c 0
 1244 413 1246 424 1246 434 c 0
 1246 647 557 588 557 924 c 0
 557 950 561 979 570 1010 c 0
 637 1242 934 1434 1338 1434 c 0xb8
EndSplineSet
Validated: 1
EndChar

StartChar: sacute
Encoding: 347 347 296
Width: 1169
VWidth: 0
Flags: HW
LayerCount: 2
Fore
SplineSet
640 1172 m 1x98
 1248 1567 l 1
 1344 1386 l 1
 735 1002 l 1
 640 1172 l 1x98
877 290 m 1
 877 292 878 295 878 297 c 0
 878 401 348 378 348 625 c 0
 348 643 351 662 357 683 c 0
 391 801 552 982 974 982 c 0xb8
 1126 982 1181 961 1243 940 c 1
 1281 928 l 1
 1155 727 l 1
 1120 736 l 1xd8
 1061 754 996 772 882 772 c 0xb8
 667 772 622 697 615 674 c 0
 614 671 614 668 614 666 c 0
 614 571 1147 573 1147 336 c 0
 1147 320 1144 302 1139 284 c 0
 1103 158 960 -20 536 -20 c 0
 439 -20 310 -3 180 58 c 2
 148 73 l 1
 277 269 l 1
 310 255 l 1
 425 208 510 191 604 191 c 0
 773 191 858 223 877 290 c 1
EndSplineSet
Validated: 1
EndChar

StartChar: Scircumflex
Encoding: 348 348 297
Width: 1525
VWidth: 0
Flags: HW
LayerCount: 2
Fore
SplineSet
1338 1434 m 0xb8
 1504 1434 1642 1399 1714 1375 c 1
 1752 1363 l 1
 1603 1131 l 1
 1568 1142 l 1xd8
 1434 1182 1322 1192 1253 1192 c 0
 1063 1192 878 1124 848 1021 c 0
 845 1011 844 1003 844 994 c 0
 844 799 1527 840 1527 498 c 0
 1527 471 1522 441 1513 409 c 0
 1458 217 1224 -20 751 -20 c 0
 550 -20 423 25 300 79 c 1
 267 93 l 1
 421 335 l 1
 456 320 l 1
 628 252 760 230 847 230 c 0
 1052 230 1211 298 1241 401 c 0
 1244 413 1246 424 1246 434 c 0
 1246 647 557 588 557 924 c 0
 557 950 561 979 570 1010 c 0
 637 1242 934 1434 1338 1434 c 0xb8
1366 1951 m 1
 1622 1603 l 1
 1408 1458 l 1
 1265 1652 l 1
 1007 1461 l 1
 883 1594 l 1
 1366 1951 l 1
EndSplineSet
Validated: 1
EndChar

StartChar: scircumflex
Encoding: 349 349 298
Width: 1169
VWidth: 0
Flags: HW
LayerCount: 2
Fore
SplineSet
591 1143 m 1x98
 1086 1517 l 1
 1320 1152 l 1
 1124 1000 l 1
 980 1204 l 1
 710 1003 l 1
 591 1143 l 1x98
877 290 m 1
 877 292 878 295 878 297 c 0
 878 401 348 378 348 625 c 0
 348 643 351 662 357 683 c 0
 391 801 552 982 974 982 c 0xb8
 1126 982 1181 961 1243 940 c 1
 1281 928 l 1
 1155 727 l 1
 1120 736 l 1xd8
 1061 754 996 772 882 772 c 0xb8
 667 772 622 697 615 674 c 0
 614 671 614 668 614 666 c 0
 614 571 1147 573 1147 336 c 0
 1147 320 1144 302 1139 284 c 0
 1103 158 960 -20 536 -20 c 0
 439 -20 310 -3 180 58 c 2
 148 73 l 1
 277 269 l 1
 310 255 l 1
 425 208 510 191 604 191 c 0
 773 191 858 223 877 290 c 1
EndSplineSet
Validated: 1
EndChar

StartChar: Scedilla
Encoding: 350 350 299
Width: 1525
VWidth: 0
Flags: HW
LayerCount: 2
Back
SplineSet
947 -317 m 4x2f
 947 -414 866 -507 735 -507 c 4xaf
 681 -507 647 -498 532 -464 c 6
 498 -454 l 5
 528 -350 l 5x4f
 558 -359 l 6
 667 -391 705 -400 742 -400 c 4
 802 -400 834 -366 834 -330 c 4
 834 -265 750 -248 736 -243 c 6
 600 -202 l 5
 650 -20 l 5xaf
 492 -20 371 24 240 76 c 5
 298 241 l 5x1f
 481 173 609 148 693 148 c 4
 893 148 1036 235 1036 372 c 4
 1036 709 269 570 269 1022 c 4
 269 1242 484 1434 821 1434 c 4
 949 1434 1078 1406 1174 1377 c 5
 1119 1222 l 5
 1074 1235 932 1274 807 1274 c 4
 614 1274 454 1184 454 1050 c 4
 454 741 1221 856 1221 397 c 4
 1221 235 1104 32 798 -11 c 5
 767 -136 l 5
 787 -142 947 -172 947 -317 c 4x2f
EndSplineSet
Fore
SplineSet
747 -317 m 0xa6
 798 -317 814 -297 817 -286 c 0
 817 -284 818 -283 818 -281 c 0
 818 -253 741 -236 606 -199 c 2
 565 -188 l 1
 667 -18 l 1
 508 -9 404 33 300 79 c 1
 267 93 l 1
 421 335 l 1
 456 320 l 1
 629 252 762 230 849 230 c 0
 1055 230 1214 298 1244 401 c 0
 1247 413 1249 424 1249 434 c 0
 1249 647 557 588 557 924 c 0
 557 950 561 979 570 1010 c 0
 637 1242 938 1434 1340 1434 c 0xae
 1505 1434 1642 1399 1714 1375 c 1
 1752 1363 l 1
 1602 1131 l 1
 1568 1142 l 1x36
 1435 1182 1323 1192 1255 1192 c 0
 1066 1192 882 1124 852 1021 c 0
 849 1011 848 1003 848 994 c 0
 848 799 1528 840 1528 499 c 0
 1528 472 1523 442 1514 410 c 0
 1467 245 1286 44 940 -7 c 1
 906 -66 l 1
 1009 -100 1051 -161 1051 -227 c 0
 1051 -357 888 -506 687 -506 c 0xae
 630 -506 611 -504 417 -451 c 1
 375 -440 l 1
 488 -257 l 1x66
 530 -269 l 2
 627 -297 697 -317 747 -317 c 0xa6
EndSplineSet
Validated: 1
EndChar

StartChar: scedilla
Encoding: 351 351 300
Width: 1169
VWidth: 2097
Flags: HW
LayerCount: 2
Back
SplineSet
706 -315 m 4
 706 -392 668 -486 501 -486 c 4
 443 -486 368 -475 274 -447 c 5
 300 -356 l 5
 420 -392 466 -403 507 -403 c 4
 571 -403 607 -366 607 -326 c 4
 607 -254 529 -242 378 -196 c 5
 425 -20 l 5
 352 -20 250 6 130 55 c 5
 176 179 l 5
 308 130 387 109 473 109 c 4
 592 109 717 135 717 264 c 4
 717 453 154 378 154 709 c 4
 154 820 245 1007 590 1007 c 4
 718 1007 770 988 841 967 c 5
 799 842 l 5
 734 860 663 879 563 879 c 4
 355 879 324 770 324 726 c 4
 324 549 896 591 896 283 c 4
 896 170 830 -16 553 -16 c 5
 523 -136 l 5
 569 -150 706 -179 706 -315 c 4
EndSplineSet
Fore
SplineSet
525 -321 m 0xb8
 580 -321 605 -300 609 -285 c 0
 610 -283 610 -281 610 -279 c 0
 610 -248 535 -236 391 -197 c 1
 348 -186 l 1
 450 -23 l 1
 362 -15 274 5 178 49 c 2
 145 64 l 1
 274 259 l 1
 307 245 l 2
 422 197 507 179 603 179 c 0
 774 179 857 213 877 281 c 1
 878 284 878 286 878 288 c 0
 878 394 347 370 347 619 c 0
 347 637 350 658 356 679 c 0
 390 798 551 982 976 982 c 0xb8
 1126 982 1182 961 1244 940 c 2
 1281 928 l 1
 1155 727 l 1
 1120 736 l 1xd8
 1061 754 996 772 885 772 c 0
 721 772 636 716 624 676 c 0
 623 673 623 671 623 668 c 0
 623 570 1146 569 1146 332 c 0
 1146 315 1143 298 1138 279 c 0
 1107 171 998 22 711 -17 c 1
 676 -73 l 1
 738 -91 817 -129 817 -221 c 0
 817 -238 814 -256 808 -277 c 0
 777 -384 657 -498 470 -498 c 0
 377 -498 292 -471 203 -445 c 1
 167 -434 l 1
 264 -265 l 1
 302 -277 l 1
 413 -305 478 -321 525 -321 c 0xb8
EndSplineSet
Validated: 1
EndChar

StartChar: Tcommaaccent
Encoding: 354 354 301
Width: 1456
VWidth: 0
Flags: HW
LayerCount: 2
Back
SplineSet
85 1421 m 5
 1369 1421 l 5
 1369 1189 l 5
 853 1189 l 5
 853 0 l 5
 601 0 l 5
 601 1189 l 5
 85 1189 l 5
 85 1421 l 5
EndSplineSet
Fore
SplineSet
639 -316 m 1
 674 -315 695 -303 699 -289 c 0
 699 -287 700 -286 700 -284 c 0
 700 -251 602 -228 507 -199 c 1
 458 -187 l 1
 484 -149 l 2
 601 22 604 11 650 171 c 2
 942 1189 l 1
 426 1189 l 1
 492 1421 l 1
 1776 1421 l 1
 1710 1189 l 1
 1194 1189 l 1
 906 184 l 2
 876 81 855 19 796 -71 c 1
 864 -95 955 -140 955 -230 c 0
 955 -244 953 -259 948 -275 c 0
 916 -387 763 -506 574 -506 c 0
 499 -506 451 -487 296 -451 c 1
 245 -440 l 1
 371 -257 l 1
 422 -269 l 1
 543 -300 594 -316 639 -316 c 1
EndSplineSet
Validated: 1
EndChar

StartChar: tcommaaccent
Encoding: 355 355 302
Width: 910
VWidth: 0
Flags: HW
LayerCount: 2
Back
SplineSet
528 1055 m 5xd0
 736 1527 l 5
 1041 1527 l 5xc8
 824 1055 l 5
 528 1055 l 5xd0
203 1271 m 5
 480 1271 l 5
 480 988 l 5
 832 988 l 5
 832 777 l 5
 480 777 l 5
 480 334 l 6
 480 274 487 190 628 190 c 4
 661 190 676 192 798 210 c 5
 837 217 l 5
 876 28 l 5
 838 18 l 5
 715 -12 625 -20 567 -20 c 4
 267 -20 203 142 203 317 c 6
 203 777 l 5
 70 777 l 5
 70 988 l 5
 203 988 l 5
 203 1271 l 5
EndSplineSet
Fore
SplineSet
562 1271 m 1xb8
 839 1271 l 1
 751 963 l 1
 1099 963 l 1
 1038 752 l 1
 691 752 l 1
 563 308 l 2
 559 293 556 276 556 260 c 0
 556 211 583 164 692 164 c 0
 718 164 731 165 841 181 c 2
 881 187 l 1
 872 21 l 1
 831 11 l 2
 796 2 730 -13 664 -22 c 1
 637 -73 l 1
 686 -91 761 -126 761 -217 c 0
 761 -234 758 -254 752 -276 c 0
 721 -383 601 -498 434 -498 c 0xb8
 320 -498 169 -455 142 -446 c 2
 106 -435 l 1
 204 -265 l 1x78
 243 -277 l 1
 295 -289 409 -321 488 -321 c 0
 529 -321 561 -312 568 -287 c 0
 569 -283 570 -279 570 -276 c 0
 570 -248 523 -242 337 -197 c 1
 289 -186 l 1
 408 -5 l 1
 291 31 263 111 263 182 c 0
 263 226 274 267 281 291 c 2
 414 752 l 1
 284 752 l 1
 344 963 l 1
 474 963 l 1
 562 1271 l 1xb8
EndSplineSet
Validated: 1
EndChar

StartChar: Tcaron
Encoding: 356 356 303
Width: 1374
VWidth: 0
Flags: HW
LayerCount: 2
Fore
SplineSet
492 1421 m 5
 1776 1421 l 5
 1710 1189 l 5
 1194 1189 l 5
 853 0 l 5
 601 0 l 5
 942 1189 l 5
 426 1189 l 5
 492 1421 l 5
1158 1457 m 1
 910 1805 l 1
 1121 1950 l 1
 1261 1756 l 1
 1513 1947 l 1
 1642 1814 l 1
 1158 1457 l 1
EndSplineSet
Validated: 1
EndChar

StartChar: tcaron
Encoding: 357 357 304
Width: 914
VWidth: 0
Flags: HW
LayerCount: 2
Fore
SplineSet
818 1033 m 5xf0
 1168 1527 l 5
 1473 1527 l 5xe8
 1114 1033 l 5
 818 1033 l 5xf0
559 1259 m 5
 836 1259 l 5
 751 963 l 5
 1102 963 l 5
 1041 752 l 5
 691 752 l 5
 569 328 l 6
 564 310 559 289 559 269 c 0
 559 227 582 190 677 190 c 4
 710 190 725 192 852 209 c 5
 893 216 l 5
 878 28 l 5
 837 18 l 5
 706 -12 614 -20 556 -20 c 4
 333 -20 265 67 265 182 c 0
 265 221 273 264 286 307 c 6
 414 752 l 5
 284 752 l 5
 344 963 l 5
 474 963 l 5
 559 1259 l 5
EndSplineSet
Validated: 1
EndChar

StartChar: Utilde
Encoding: 360 360 305
Width: 1744
VWidth: 0
Flags: HW
LayerCount: 2
Fore
SplineSet
906 -20 m 0xcc
 485 -20 397 150 397 305 c 0
 397 379 417 450 431 498 c 0
 445 546 460 591 469 624 c 2
 697 1421 l 1
 949 1421 l 1
 691 520 l 2
 678 476 669 437 669 401 c 0
 669 365 678 332 702 302 c 0
 723 276 787 209 972 209 c 0
 1384 209 1426 502 1431 520 c 2
 1689 1421 l 1
 1941 1421 l 1
 1713 624 l 1
 1666 462 1614 -20 906 -20 c 0xcc
1244 1862 m 1xdc
 1452 1853 1479 1681 1551 1681 c 0
 1598 1681 1656 1763 1724 1842 c 1
 1754 1876 l 1
 1917 1796 l 1
 1888 1758 l 2
 1812 1659 1689 1478 1493 1478 c 1xec
 1284 1487 1259 1659 1186 1659 c 0
 1139 1659 1079 1577 1013 1499 c 2
 983 1464 l 1
 825 1544 l 1
 854 1582 l 2
 930 1681 1051 1862 1244 1862 c 1xdc
EndSplineSet
Validated: 1
EndChar

StartChar: utilde
Encoding: 361 361 306
Width: 1331
VWidth: 0
Flags: HW
LayerCount: 2
Fore
SplineSet
901 1428 m 1x2e
 1121 1419 1148 1247 1224 1247 c 0
 1273 1247 1317 1314 1390 1407 c 2
 1418 1443 l 1
 1572 1362 l 1
 1542 1324 l 1
 1466 1225 1346 1044 1164 1044 c 1x36
 946 1053 918 1225 842 1225 c 0
 792 1225 749 1160 676 1065 c 2
 649 1030 l 1
 492 1110 l 1
 521 1148 l 2
 596 1245 718 1428 901 1428 c 1x2e
1195 988 m 1
 1441 988 l 1
 1158 0 l 1
 975 0 l 1x66
 966 67 l 1
 786 -3 648 -20 559 -20 c 0
 336 -20 272 83 272 211 c 0
 272 272 286 339 305 404 c 2
 472 988 l 1
 718 988 l 1
 552 406 l 2
 546 385 539 358 539 330 c 0
 539 270 571 209 712 209 c 0xa6
 810 209 921 241 988 264 c 1
 1195 988 l 1
EndSplineSet
Validated: 1
EndChar

StartChar: Umacron
Encoding: 362 362 307
Width: 1744
VWidth: 0
Flags: HW
LayerCount: 2
Fore
SplineSet
906 -20 m 0
 485 -20 397 150 397 305 c 0
 397 379 417 450 431 498 c 0
 445 546 460 591 469 624 c 2
 697 1421 l 1
 949 1421 l 1
 691 520 l 2
 678 476 669 437 669 401 c 0
 669 365 678 332 702 302 c 0
 723 276 787 209 972 209 c 0
 1384 209 1426 502 1431 520 c 2
 1689 1421 l 1
 1941 1421 l 1
 1713 624 l 1
 1666 462 1614 -20 906 -20 c 0
882 1697 m 1
 1876 1697 l 1
 1815 1486 l 1
 821 1486 l 1
 882 1697 l 1
EndSplineSet
Validated: 1
EndChar

StartChar: umacron
Encoding: 363 363 308
Width: 1328
VWidth: 0
Flags: HW
LayerCount: 2
Fore
SplineSet
1182 988 m 1xbc
 1428 988 l 1
 1144 0 l 1
 961 0 l 1x7c
 951 67 l 1
 772 -3 635 -20 546 -20 c 0
 322 -20 258 82 258 211 c 0
 258 272 272 339 291 404 c 2
 459 988 l 1
 705 988 l 1
 538 406 l 2
 532 385 525 357 525 329 c 0
 525 270 557 209 697 209 c 0
 795 209 907 241 974 264 c 1
 1182 988 l 1xbc
671 1333 m 1
 1421 1333 l 1
 1360 1122 l 1
 610 1122 l 1
 671 1333 l 1
EndSplineSet
Validated: 1
EndChar

StartChar: Ubreve
Encoding: 364 364 309
Width: 1744
VWidth: 0
Flags: HW
LayerCount: 2
Fore
SplineSet
880 1794 m 1
 1104 1897 l 1
 1114 1859 l 2
 1124 1823 1164 1695 1309 1695 c 0
 1427 1695 1567 1790 1653 1866 c 1
 1689 1897 l 1
 1850 1774 l 1
 1814 1739 l 1
 1659 1599 1433 1475 1228 1475 c 0
 993 1475 894 1623 883 1761 c 1
 880 1794 l 1
906 -20 m 0
 485 -20 397 151 397 306 c 0
 397 380 417 450 431 497 c 2
 697 1421 l 1
 949 1421 l 1
 691 520 l 2
 678 476 669 437 669 401 c 0
 669 365 678 332 702 302 c 0
 723 276 787 209 972 209 c 0
 1384 209 1426 502 1431 520 c 2
 1689 1421 l 1
 1941 1421 l 1
 1713 624 l 1
 1666 462 1614 -20 906 -20 c 0
EndSplineSet
Validated: 1
EndChar

StartChar: ubreve
Encoding: 365 365 310
Width: 1328
VWidth: 0
Flags: HW
LayerCount: 2
Fore
SplineSet
1182 988 m 1xbc
 1428 988 l 1
 1144 0 l 1
 961 0 l 1x7c
 951 67 l 1
 772 -3 635 -20 546 -20 c 0
 322 -20 258 82 258 211 c 0
 258 272 272 339 291 404 c 2
 459 988 l 1
 705 988 l 1
 538 406 l 2
 532 385 525 357 525 329 c 0
 525 270 557 209 697 209 c 0
 795 209 907 241 974 264 c 1
 1182 988 l 1xbc
583 1360 m 1
 806 1463 l 1
 814 1425 l 2
 821 1389 865 1261 1017 1261 c 0
 1140 1261 1284 1356 1363 1432 c 1
 1396 1463 l 1
 1541 1340 l 1
 1505 1305 l 2
 1360 1165 1151 1041 934 1041 c 0
 691 1041 596 1188 586 1327 c 1
 583 1360 l 1
EndSplineSet
Validated: 1
EndChar

StartChar: Uring
Encoding: 366 366 311
Width: 1744
VWidth: 0
Flags: HW
LayerCount: 2
Fore
SplineSet
1465 2007 m 0
 1600 2007 1693 1923 1693 1808 c 0
 1693 1787 1690 1765 1683 1742 c 0
 1641 1595 1474 1476 1313 1476 c 0
 1178 1476 1086 1560 1086 1675 c 0
 1086 1696 1089 1719 1096 1742 c 0
 1138 1888 1304 2007 1465 2007 c 0
1416 1834 m 0
 1337 1834 1286 1768 1286 1715 c 0
 1286 1679 1310 1649 1363 1649 c 0
 1426 1649 1475 1701 1487 1742 c 0
 1489 1750 1490 1757 1490 1765 c 0
 1490 1803 1462 1834 1416 1834 c 0
906 -20 m 0
 485 -20 397 151 397 306 c 0
 397 380 417 450 431 497 c 2
 697 1421 l 1
 949 1421 l 1
 691 520 l 2
 678 476 669 437 669 401 c 0
 669 365 678 332 702 302 c 0
 723 276 787 209 972 209 c 0
 1384 209 1426 502 1431 520 c 2
 1689 1421 l 1
 1941 1421 l 1
 1713 624 l 1
 1666 462 1614 -20 906 -20 c 0
EndSplineSet
Validated: 1
EndChar

StartChar: uring
Encoding: 367 367 312
Width: 1335
VWidth: 0
Flags: HW
LayerCount: 2
Fore
SplineSet
1189 988 m 1xbc80
 1435 988 l 1
 1151 0 l 1
 968 0 l 1x7c80
 958 67 l 1
 777 -3 638 -20 549 -20 c 0
 323 -20 258 83 258 212 c 0
 258 273 272 340 291 404 c 2
 459 988 l 1
 705 988 l 1
 538 406 l 2
 532 385 525 358 525 330 c 0
 525 270 557 209 700 209 c 0
 800 209 913 241 981 264 c 1
 1189 988 l 1xbc80
1119 1573 m 0
 1262 1573 1351 1490 1351 1376 c 0
 1351 1354 1348 1332 1341 1308 c 0
 1299 1161 1139 1042 968 1042 c 0
 825 1042 734 1125 734 1240 c 0
 734 1262 737 1285 744 1308 c 0x3b
 786 1454 948 1573 1119 1573 c 0
1070 1400 m 0
 989 1400 937 1334 937 1281 c 0
 937 1245 961 1215 1017 1215 c 0
 1074 1215 1130 1259 1144 1308 c 0
 1146 1316 1147 1324 1147 1331 c 0
 1147 1370 1118 1400 1070 1400 c 0
EndSplineSet
Validated: 1
EndChar

StartChar: Wcircumflex
Encoding: 372 372 313
Width: 2401
VWidth: 0
Flags: HW
LayerCount: 2
Fore
SplineSet
547 1421 m 1
 815 1421 l 1
 829 329 l 1
 1553 1421 l 1
 1785 1421 l 1
 1811 329 l 1
 2523 1421 l 1
 2777 1421 l 1
 1837 0 l 1
 1596 0 l 1
 1566 1087 l 1
 852 0 l 1
 611 0 l 1
 547 1421 l 1
1830 1955 m 1
 2067 1607 l 1
 1855 1462 l 1
 1730 1656 l 1
 1488 1465 l 1
 1357 1598 l 1
 1830 1955 l 1
EndSplineSet
Validated: 1
EndChar

StartChar: wcircumflex
Encoding: 373 373 314
Width: 1891
VWidth: 0
Flags: HW
LayerCount: 2
Fore
SplineSet
342 988 m 1
 598 988 l 1
 619 255 l 1
 1129 988 l 1
 1344 988 l 1
 1361 253 l 1
 1884 988 l 1
 2148 988 l 1
 1397 0 l 1
 1179 0 l 1
 1155 710 l 1
 647 0 l 1
 429 0 l 1
 342 988 l 1
1396 1522 m 1
 1635 1174 l 1
 1421 1029 l 1
 1296 1223 l 1
 1054 1032 l 1
 921 1165 l 1
 1396 1522 l 1
EndSplineSet
Validated: 1
EndChar

StartChar: Ycircumflex
Encoding: 374 374 315
Width: 1427
VWidth: 0
Flags: HW
LayerCount: 2
Fore
SplineSet
507 1421 m 1
 805 1421 l 1
 1027 870 l 1
 1573 1421 l 1
 1861 1421 l 1
 1099 664 l 1
 909 0 l 1
 626 0 l 1
 816 664 l 1
 507 1421 l 1
1355 1951 m 1
 1605 1603 l 1
 1393 1458 l 1
 1254 1652 l 1
 999 1461 l 1
 870 1594 l 1
 1355 1951 l 1
EndSplineSet
Validated: 1
EndChar

StartChar: ycircumflex
Encoding: 375 375 316
Width: 1204
VWidth: 0
Flags: HW
LayerCount: 2
Fore
SplineSet
332 988 m 1xd0
 591 988 l 1xd0
 700 229 l 1
 1215 988 l 1
 1474 988 l 1
 396 -531 l 1
 100 -531 l 1xb0
 499 3 l 1
 332 988 l 1xd0
1078 1517 m 1
 1322 1169 l 1
 1115 1024 l 1
 976 1218 l 1
 719 1027 l 1
 592 1160 l 1
 1078 1517 l 1
EndSplineSet
Validated: 1
EndChar

StartChar: Zacute
Encoding: 377 377 317
Width: 1522
VWidth: 0
Flags: HW
LayerCount: 2
Fore
SplineSet
592 1421 m 1
 1842 1421 l 1
 1799 1268 l 1
 584 232 l 1
 1529 232 l 1
 1462 0 l 1
 155 0 l 1
 199 155 l 1
 1393 1189 l 1
 526 1189 l 1
 592 1421 l 1
1657 1992 m 1
 1724 1797 l 1
 980 1461 l 1
 917 1639 l 1
 1657 1992 l 1
EndSplineSet
Validated: 1
EndChar

StartChar: zacute
Encoding: 378 378 318
Width: 1218
VWidth: 0
Flags: HW
LayerCount: 2
Fore
SplineSet
422 963 m 1
 1317 963 l 1
 1280 836 l 1
 550 211 l 1
 1125 211 l 1
 1065 0 l 1
 146 0 l 1
 183 127 l 1
 905 752 l 1
 362 752 l 1
 422 963 l 1
1235 1567 m 1
 1333 1387 l 1
 722 1003 l 1
 636 1173 l 1
 1235 1567 l 1
EndSplineSet
Validated: 1
EndChar

StartChar: Zdotaccent
Encoding: 379 379 319
Width: 1522
VWidth: 0
Flags: HW
LayerCount: 2
Fore
SplineSet
592 1421 m 1
 1842 1421 l 1
 1799 1268 l 1
 584 232 l 1
 1529 232 l 1
 1462 0 l 1
 155 0 l 1
 199 155 l 1
 1393 1189 l 1
 526 1189 l 1
 592 1421 l 1
1153 1829 m 1
 1478 1829 l 1
 1395 1537 l 1
 1070 1537 l 1
 1153 1829 l 1
EndSplineSet
Validated: 1
EndChar

StartChar: zdotaccent
Encoding: 380 380 320
Width: 1226
VWidth: 0
Flags: HW
LayerCount: 2
Fore
SplineSet
422 963 m 1
 1325 963 l 1
 1289 836 l 1
 551 211 l 1
 1134 211 l 1
 1073 0 l 1
 146 0 l 1
 183 127 l 1
 912 752 l 1
 362 752 l 1
 422 963 l 1
837 1421 m 1
 1175 1421 l 1
 1098 1150 l 1
 760 1150 l 1
 837 1421 l 1
EndSplineSet
Validated: 1
EndChar

StartChar: gcommaaccent
Encoding: 291 291 321
Width: 1338
VWidth: 2097
Flags: HW
LayerCount: 2
Fore
SplineSet
733 1053 m 1xcc
 1096 1547 l 1
 1407 1547 l 1xca
 1043 1053 l 1
 733 1053 l 1xcc
508 493 m 0
 499 461 494 430 494 401 c 0
 494 281 575 195 755 195 c 0
 833 195 907 212 965 230 c 1
 1108 730 l 1
 1013 759 943 766 896 766 c 0xe9
 711 766 556 661 508 493 c 0
945 981 m 0
 991 981 1079 979 1215 918 c 1
 1246 963 l 1
 1431 963 l 1xd9
 1146 -31 l 2
 1080 -261 894 -543 419 -543 c 0
 316 -543 193 -526 89 -476 c 1
 57 -460 l 1
 188 -266 l 1
 221 -281 l 1
 268 -301 354 -324 458 -324 c 0
 819 -324 883 -53 906 23 c 1
 825 -2 734 -20 640 -20 c 0
 428 -20 236 69 236 308 c 0
 236 358 244 414 262 477 c 0
 372 860 724 981 945 981 c 0
EndSplineSet
Validated: 1
EndChar

StartChar: eng
Encoding: 331 331 322
Width: 1328
VWidth: 2097
Flags: HW
LayerCount: 2
Fore
SplineSet
904 753 m 0xec
 855 753 765 745 633 700 c 1
 432 -3 l 1
 175 -3 l 1
 452 963 l 1
 635 963 l 1xdc
 649 896 l 1
 831 966 967 982 1048 982 c 0
 1284 982 1338 860 1338 745 c 0
 1338 681 1321 619 1310 580 c 2
 1149 18 l 2
 1094 -174 982 -347 721 -347 c 0
 667 -347 583 -339 458 -309 c 1
 418 -299 l 1
 522 -101 l 1
 564 -108 l 1
 682 -126 696 -127 726 -127 c 0
 839 -127 880 -64 904 21 c 2
 1059 562 l 2
 1065 584 1072 611 1072 638 c 0
 1072 696 1041 753 904 753 c 0xec
EndSplineSet
Validated: 1
EndChar

StartChar: uni0237
Encoding: 567 567 323
Width: 601
VWidth: 2097
Flags: HW
LayerCount: 2
Fore
SplineSet
465 963 m 1
 711 963 l 1
 406 -103 l 2
 370 -228 302 -432 -7 -532 c 2
 -44 -544 l 1
 -84 -353 l 1
 -42 -335 l 2
 105 -273 140 -172 155 -120 c 2
 465 963 l 1
EndSplineSet
Validated: 1
EndChar

StartChar: Eng
Encoding: 330 330 324
Width: 1812
VWidth: 2097
Flags: HW
LayerCount: 2
Fore
SplineSet
1357 29 m 2xec
 1591 845 l 2
 1604 891 1623 958 1623 1023 c 0
 1623 1130 1572 1232 1360 1232 c 0xec
 1272 1232 1130 1211 871 1119 c 1
 550 0 l 1
 290 0 l 1
 697 1421 l 1
 875 1421 l 1xdc
 896 1341 l 1
 1213 1455 1385 1483 1507 1483 c 0
 1782 1483 1908 1346 1908 1150 c 0
 1908 1125 1906 1099 1902 1072 c 0
 1894 1019 1880 967 1865 916 c 2
 1604 6 l 2
 1522 -280 1310 -365 1124 -365 c 0
 1070 -365 989 -359 874 -329 c 2
 835 -319 l 1
 937 -119 l 1
 979 -127 l 2
 1057 -142 1107 -146 1136 -146 c 0
 1306 -146 1341 -28 1357 29 c 2xec
EndSplineSet
Validated: 1
EndChar

StartChar: Lslash
Encoding: 321 321 325
Width: 1297
VWidth: 2097
Flags: HW
LayerCount: 2
Fore
SplineSet
697 1421 m 1xe8
 949 1421 l 1
 799 897 l 1xe8
 1156 1047 l 1
 1080 780 l 1
 749 641 l 1
 631 231 l 1xf0
 1328 231 l 1
 1262 0 l 1
 290 0 l 1xe8
 432 496 l 1xf0
 266 418 l 1
 338 670 l 1
 504 748 l 1
 697 1421 l 1xe8
EndSplineSet
Validated: 1
EndChar

StartChar: lslash
Encoding: 322 322 326
Width: 760
VWidth: 2097
Flags: HW
LayerCount: 2
Fore
SplineSet
658 1511 m 1
 904 1511 l 1
 722 878 l 1
 965 1001 l 1
 895 756 l 1
 655 645 l 1
 470 0 l 1
 224 0 l 1
 377 533 l 1
 217 452 l 1
 287 696 l 1
 446 773 l 1
 658 1511 l 1
EndSplineSet
Validated: 1
EndChar

StartChar: kgreenlandic
Encoding: 312 312 327
Width: 1224
VWidth: 0
Flags: HW
LayerCount: 2
Fore
SplineSet
577 542 m 1xe8
 1143 963 l 1
 1422 963 l 1xf0
 823 511 l 1
 1199 0 l 1
 889 0 l 1
 549 445 l 1
 422 0 l 1
 176 0 l 1
 452 963 l 1
 698 963 l 1
 577 542 l 1xe8
EndSplineSet
Validated: 1
EndChar

StartChar: napostrophe
Encoding: 329 329 328
Width: 1496
VWidth: 2097
Flags: HW
LayerCount: 2
Fore
SplineSet
622 963 m 1xbe
 805 963 l 1xbe
 815 895 l 1
 995 965 1132 983 1221 983 c 0
 1446 983 1510 882 1510 755 c 0
 1510 696 1496 631 1478 569 c 2
 1315 0 l 1
 1068 0 l 1
 1229 562 l 2
 1235 583 1242 610 1242 637 c 0
 1242 695 1210 753 1069 753 c 0xde
 971 753 860 722 793 700 c 1
 592 0 l 1
 346 0 l 1
 622 963 l 1xbe
475 1421 m 1
 707 1421 l 1
 552 881 l 1
 320 881 l 1
 475 1421 l 1
EndSplineSet
Validated: 1
EndChar

StartChar: ogonek
Encoding: 731 731 329
Width: 1084
VWidth: 0
Flags: HW
LayerCount: 2
Fore
SplineSet
323 -335 m 0
 382 -128 649 111 940 184 c 1
 983 194 l 1
 978 6 l 1
 939 -7 l 2
 725 -78 581 -223 558 -302 c 0
 556 -310 555 -319 555 -326 c 0
 555 -353 571 -371 605 -371 c 0
 627 -371 671 -363 762 -317 c 2
 805 -295 l 1
 845 -454 l 1
 810 -475 l 2
 758 -506 615 -585 494 -585 c 0
 377 -585 311 -515 311 -414 c 0
 311 -389 315 -363 323 -335 c 0
EndSplineSet
Validated: 1
EndChar

StartChar: hungarumlaut
Encoding: 733 733 330
Width: 1652
VWidth: 2097
Flags: HW
LayerCount: 2
Fore
SplineSet
658 1091 m 5
 584 1275 l 5
 1245 1661 l 5
 1314 1493 l 5
 658 1091 l 5
1765 1661 m 5
 1840 1477 l 5
 1178 1091 l 5
 1109 1259 l 5
 1765 1661 l 5
EndSplineSet
Validated: 1
EndChar

StartChar: uni02EE
Encoding: 750 750 331
Width: 835
VWidth: 2097
Flags: HW
LayerCount: 2
Fore
SplineSet
904 1552 m 1
 1171 1552 l 1
 1025 1042 l 1
 758 1042 l 1
 904 1552 l 1
514 1552 m 1
 781 1552 l 1
 635 1042 l 1
 368 1042 l 1
 514 1552 l 1
EndSplineSet
Validated: 1
EndChar

StartChar: uni0302
Encoding: 770 770 332
Width: 1479
VWidth: 2097
Flags: HW
LayerCount: 2
Fore
SplineSet
1185 1601 m 1
 1397 1253 l 1
 1204 1108 l 1
 1084 1302 l 1
 853 1111 l 1
 741 1244 l 1
 1185 1601 l 1
EndSplineSet
Validated: 1
EndChar

StartChar: Tbar
Encoding: 358 358 333
Width: 1374
VWidth: 2097
Flags: HW
LayerCount: 2
Fore
SplineSet
492 1421 m 1
 1776 1421 l 1
 1710 1189 l 1
 1194 1189 l 1
 1081 794 l 1
 1454 794 l 1
 1387 562 l 1
 1014 562 l 1
 853 0 l 1
 601 0 l 1
 762 562 l 1
 389 562 l 1
 456 794 l 1
 829 794 l 1
 942 1189 l 1
 426 1189 l 1
 492 1421 l 1
EndSplineSet
Validated: 1
EndChar

StartChar: tbar
Encoding: 359 359 334
Width: 905
VWidth: 2097
Flags: HW
LayerCount: 2
Back
SplineSet
528 1055 m 5xd0
 736 1527 l 5
 1041 1527 l 5xc8
 824 1055 l 5
 528 1055 l 5xd0
203 1271 m 5
 480 1271 l 5
 480 988 l 5
 832 988 l 5
 832 777 l 5
 480 777 l 5
 480 334 l 6
 480 274 487 190 628 190 c 4
 661 190 676 192 798 210 c 5
 837 217 l 5
 876 28 l 5
 838 18 l 5
 715 -12 625 -20 567 -20 c 4
 267 -20 203 142 203 317 c 6
 203 777 l 5
 70 777 l 5
 70 988 l 5
 203 988 l 5
 203 1271 l 5
EndSplineSet
Fore
SplineSet
829 18 m 2
 706 -12 631 -20 575 -20 c 0
 373 -20 266 36 266 181 c 0
 266 218 273 260 287 309 c 1
 319 423 l 1
 189 423 l 1
 244 614 l 1
 374 614 l 1
 414 752 l 1
 284 752 l 1
 344 963 l 1
 474 963 l 1
 562 1271 l 1
 839 1271 l 1
 751 963 l 1
 1094 963 l 1
 1034 752 l 1
 691 752 l 1
 651 614 l 1
 994 614 l 1
 939 423 l 1
 596 423 l 1
 567 322 l 2
 563 309 560 295 560 281 c 0
 560 236 588 190 697 190 c 0
 722 190 736 192 845 209 c 2
 885 215 l 1
 869 28 l 1
 829 18 l 2
EndSplineSet
Validated: 1
EndChar

StartChar: Hbar
Encoding: 294 294 335
Width: 1764
VWidth: 2097
Flags: HW
LayerCount: 2
Fore
SplineSet
1709 1421 m 1xde
 1961 1421 l 1
 1921 1279 l 1
 2071 1279 l 1
 2011 1071 l 1
 1861 1071 l 1
 1554 0 l 1
 1302 0 l 1
 1479 617 l 1
 719 617 l 1
 542 0 l 1
 290 0 l 1
 597 1071 l 1
 447 1071 l 1
 507 1279 l 1
 657 1279 l 1xee
 697 1421 l 1
 949 1421 l 1
 906 1271 l 1
 1666 1271 l 1
 1709 1421 l 1xde
1545 849 m 1
 1615 1092 l 1
 855 1092 l 1xde
 785 849 l 1
 1545 849 l 1
EndSplineSet
Validated: 1
EndChar

StartChar: hbar
Encoding: 295 295 336
Width: 1339
VWidth: 2097
Flags: HW
LayerCount: 2
Back
SplineSet
567 115 m 4xbe
 482 115 406 143 354 171 c 5
 354 831 l 5
 403 853 483 879 569 879 c 4
 711 879 898 804 898 503 c 4
 898 188 699 115 567 115 c 4xbe
1058 477 m 4
 1058 826 853 1008 593 1008 c 4
 497 1008 420 984 354 955 c 5
 354 1177 l 5
 622 1177 l 5
 622 1306 l 5
 354 1306 l 5
 354 1511 l 5
 190 1511 l 5
 190 1306 l 5
 55 1306 l 5
 55 1177 l 5
 190 1177 l 5
 190 0 l 5
 304 0 l 5x7e
 331 62 l 5
 431 3 534 -20 621 -20 c 4
 817 -20 1058 102 1058 477 c 4
EndSplineSet
Fore
SplineSet
619 1511 m 1
 865 1511 l 1
 801 1289 l 1
 1171 1289 l 1
 1111 1078 l 1
 740 1078 l 1
 693 912 l 1
 787 945 920 981 1045 981 c 0
 1277 981 1350 879 1350 743 c 0
 1350 690 1339 632 1322 572 c 2
 1158 0 l 1
 898 0 l 1
 1060 563 l 2
 1066 583 1073 610 1073 637 c 0
 1073 694 1042 753 904 753 c 0
 854 753 764 745 632 700 c 1
 431 0 l 1
 185 0 l 1
 494 1078 l 1
 363 1078 l 1
 423 1289 l 1
 555 1289 l 1
 619 1511 l 1
EndSplineSet
Validated: 1
EndChar

StartChar: dcroat
Encoding: 273 273 337
Width: 1385
VWidth: 2097
Flags: HW
LayerCount: 2
Back
SplineSet
621 115 m 0xbe
 706 115 782 143 834 171 c 1
 834 831 l 1
 785 853 705 879 619 879 c 0
 477 879 290 804 290 503 c 0
 290 188 489 115 621 115 c 0xbe
130 477 m 0
 130 826 335 1008 595 1008 c 0
 691 1008 768 984 834 955 c 1
 834 1177 l 1
 566 1177 l 1
 566 1306 l 1
 834 1306 l 1
 834 1511 l 1
 998 1511 l 1
 998 1306 l 1
 1148 1306 l 1
 1148 1177 l 1
 998 1177 l 1
 998 0 l 1
 884 0 l 1x7e
 857 62 l 1
 757 3 654 -20 567 -20 c 0
 371 -20 130 102 130 477 c 0
EndSplineSet
Fore
SplineSet
926 772 m 0xbe
 799 772 589 728 521 489 c 0
 511 452 506 420 506 392 c 0
 506 233 653 197 763 197 c 0
 837 197 910 213 966 231 c 1
 1113 744 l 1
 1066 758 1000 772 926 772 c 0xbe
957 983 m 0
 1043 983 1113 969 1172 949 c 1
 1208 1078 l 1
 908 1078 l 1
 969 1289 l 1
 1269 1289 l 1
 1333 1511 l 1
 1579 1511 l 1
 1515 1289 l 1
 1647 1289 l 1
 1586 1078 l 1
 1454 1078 l 1
 1145 0 l 1
 963 0 l 1x7e
 957 46 l 1
 844 -1 732 -20 639 -20 c 0
 438 -20 235 65 235 306 c 0
 235 353 243 406 260 466 c 0
 357 804 639 983 957 983 c 0
EndSplineSet
Validated: 1
EndChar

StartChar: Ohungarumlaut
Encoding: 336 336 338
Width: 1850
VWidth: 0
Flags: HW
LayerCount: 2
Fore
SplineSet
2153 2011 m 1
 2229 1827 l 1
 1539 1441 l 1
 1458 1609 l 1
 2153 2011 l 1
1597 2011 m 1
 1684 1827 l 1
 973 1441 l 1
 894 1609 l 1
 1597 2011 l 1
1660 709 m 0
 1677 768 1685 821 1685 869 c 0
 1685 1104 1498 1205 1299 1205 c 0
 1073 1205 777 1063 681 727 c 0
 664 668 656 614 656 564 c 0
 656 346 809 216 1035 216 c 0
 1264 216 1560 361 1660 709 c 0
1378 1436 m 0
 1733 1436 1957 1254 1957 947 c 0
 1957 879 1946 805 1923 726 c 0
 1797 285 1404 -15 954 -15 c 0
 635 -15 383 148 383 477 c 0
 383 546 394 623 418 707 c 0
 546 1152 938 1436 1378 1436 c 0
EndSplineSet
Validated: 1
EndChar

StartChar: ohungarumlaut
Encoding: 337 337 339
Width: 1357
VWidth: 0
Flags: HW
LayerCount: 2
Fore
SplineSet
958 982 m 0
 1219 982 1391 863 1391 645 c 0
 1391 600 1384 552 1369 499 c 0
 1277 178 990 -20 653 -20 c 0
 393 -20 238 103 238 316 c 0
 238 364 246 416 262 472 c 0
 352 785 621 982 958 982 c 0
879 760 m 0
 738 760 562 674 511 496 c 0
 503 467 498 439 498 412 c 0
 498 290 584 202 737 202 c 0
 899 202 1059 305 1107 471 c 0
 1116 501 1120 529 1120 555 c 0
 1120 693 1003 760 879 760 c 0
1627 1567 m 1
 1718 1386 l 1
 1148 1002 l 1
 1054 1172 l 1
 1627 1567 l 1
1152 1567 m 1
 1260 1386 l 1
 666 1002 l 1
 584 1172 l 1
 1152 1567 l 1
EndSplineSet
Validated: 1
EndChar

StartChar: Aogonek
Encoding: 260 260 340
Width: 1629
VWidth: 0
Flags: HW
LayerCount: 2
Fore
SplineSet
130 0 m 1
 1153 1421 l 1
 1404 1421 l 1
 1613 0 l 1
 1555 0 l 1
 1189 -8 1084 -255 1080 -264 c 1
 1078 -270 1077 -276 1077 -283 c 0
 1077 -305 1090 -328 1138 -328 c 0
 1208 -328 1304 -284 1320 -276 c 2
 1363 -254 l 1
 1403 -413 l 1
 1368 -434 l 2
 1303 -474 1161 -544 1021 -544 c 0
 879 -544 789 -472 789 -363 c 0
 789 -343 792 -322 798 -300 c 0
 846 -132 1100 48 1326 118 c 1
 1286 372 l 1
 654 372 l 1
 374 0 l 1
 130 0 l 1
1255 603 m 1
 1188 1130 l 1
 815 603 l 1
 1255 603 l 1
EndSplineSet
Validated: 1
EndChar

StartChar: aogonek
Encoding: 261 261 341
Width: 1228
VWidth: 0
Flags: HW
LayerCount: 2
Fore
SplineSet
918 423 m 1
 902 423 874 424 839 424 c 0
 708 424 483 412 453 304 c 1
 451 299 451 293 451 288 c 0
 451 242 508 199 620 199 c 0
 711 199 801 226 871 258 c 1
 918 423 l 1
767 752 m 0
 705 752 605 743 469 711 c 1
 427 700 l 1
 431 894 l 1
 470 906 l 1
 609 953 750 969 862 969 c 0
 1155 969 1243 870 1243 739 c 0
 1243 700 1235 659 1223 616 c 2
 1038 -29 l 1
 1013 -40 l 1
 836 -119 650 -184 623 -279 c 0
 621 -285 620 -290 620 -295 c 0
 620 -323 645 -340 685 -340 c 0
 713 -340 755 -332 846 -289 c 2
 887 -270 l 1
 931 -421 l 1
 892 -442 l 2
 827 -478 693 -543 565 -543 c 0
 420 -543 326 -470 326 -367 c 0
 326 -255 439 -107 723 16 c 1
 652 -4 577 -17 502 -17 c 0
 295 -17 189 88 189 209 c 0
 189 342 317 492 580 541 c 1
 659 554 761 565 960 567 c 1
 966 589 l 2
 972 609 977 629 977 649 c 0
 977 705 937 752 767 752 c 0
EndSplineSet
Validated: 1
EndChar

StartChar: Eogonek
Encoding: 280 280 342
Width: 1447
VWidth: 0
Flags: HW
LayerCount: 2
Fore
SplineSet
697 1421 m 1
 1694 1421 l 1
 1628 1189 l 1
 884 1189 l 1
 786 848 l 1
 1475 848 l 1
 1409 616 l 1
 720 616 l 1
 610 232 l 1
 1354 232 l 1
 1301 48 l 1
 1280 36 l 1
 1073 -86 905 -162 876 -263 c 0
 874 -270 873 -276 873 -282 c 0
 873 -313 899 -328 936 -328 c 0
 987 -328 1058 -295 1095 -275 c 2
 1139 -252 l 1
 1179 -412 l 1
 1144 -433 l 2
 1081 -471 949 -543 816 -543 c 0
 669 -543 585 -468 585 -363 c 0
 585 -256 671 -119 864 0 c 1
 290 0 l 1
 697 1421 l 1
EndSplineSet
Validated: 1
EndChar

StartChar: eogonek
Encoding: 281 281 343
Width: 1247
VWidth: 0
Flags: HW
LayerCount: 2
Fore
SplineSet
250 432 m 0
 365 835 697 972 963 972 c 0
 1223 972 1291 851 1291 709 c 0
 1291 626 1268 537 1246 460 c 2
 1214 348 l 1
 470 348 l 1
 471 254 595 177 804 177 c 0
 866 177 955 186 1042 211 c 2
 1086 224 l 1
 1079 33 l 1
 1040 21 l 1
 833 -41 664 -195 641 -275 c 0
 639 -283 638 -290 638 -296 c 0
 638 -327 663 -341 699 -341 c 0
 726 -341 776 -333 866 -292 c 1
 906 -273 l 1
 948 -422 l 1
 911 -443 l 2
 839 -484 711 -544 579 -544 c 0
 437 -544 354 -475 354 -373 c 0
 354 -277 427 -153 594 -29 c 1
 353 -7 226 94 226 278 c 0
 226 324 234 375 250 432 c 0
858 748 m 0
 694 748 576 656 531 554 c 1
 1037 554 l 1
 1042 576 1044 595 1044 613 c 0
 1044 714 971 748 858 748 c 0
EndSplineSet
Validated: 1
EndChar

StartChar: Iogonek
Encoding: 302 302 344
Width: 812
VWidth: 0
Flags: HW
LayerCount: 2
Fore
SplineSet
118 -544 m 0
 -2 -544 -66 -474 -66 -376 c 0
 -66 -234 66 -34 348 96 c 1
 727 1421 l 1
 979 1421 l 1
 585 46 l 1
 561 35 l 1
 259 -107 195 -217 182 -262 c 0
 180 -269 178 -278 178 -286 c 0
 178 -308 189 -330 229 -330 c 0
 250 -330 295 -322 386 -276 c 2
 429 -254 l 1
 469 -413 l 1
 434 -434 l 2
 363 -477 232 -544 118 -544 c 0
EndSplineSet
Validated: 1
EndChar

StartChar: iogonek
Encoding: 303 303 345
Width: 604
VWidth: 0
Flags: HW
LayerCount: 2
Fore
SplineSet
-210 -304 m 0xf4
 -162 -137 24 29 213 119 c 1
 462 988 l 1
 708 988 l 1
 434 34 l 1
 404 24 l 1
 208 -40 52 -180 26 -270 c 0
 24 -279 22 -286 22 -294 c 0
 22 -321 38 -340 71 -340 c 0
 100 -340 147 -326 229 -286 c 2
 270 -266 l 1
 310 -422 l 1
 276 -443 l 2
 205 -487 74 -555 -40 -555 c 0
 -154 -555 -222 -487 -222 -384 c 0
 -222 -359 -218 -333 -210 -304 c 0xf4
571 1421 m 1xf8
 847 1421 l 1
 769 1150 l 1
 493 1150 l 1
 571 1421 l 1xf8
EndSplineSet
Validated: 1
EndChar

StartChar: Uogonek
Encoding: 370 370 346
Width: 1744
VWidth: 0
Flags: HW
LayerCount: 2
Fore
SplineSet
431 497 m 2
 697 1421 l 1
 949 1421 l 1
 691 520 l 2
 678 476 669 437 669 401 c 0
 669 365 678 332 702 302 c 0
 723 276 787 209 972 209 c 0
 1384 209 1426 502 1431 520 c 2
 1689 1421 l 1
 1941 1421 l 1
 1680 506 l 2
 1589 190 1464 110 1220 16 c 1
 944 -88 864 -218 852 -261 c 0
 850 -269 849 -276 849 -283 c 0
 849 -311 867 -330 907 -330 c 0
 958 -330 1039 -296 1078 -276 c 2
 1128 -251 l 1
 1178 -413 l 1
 1141 -435 l 1
 1067 -477 922 -545 787 -545 c 0
 645 -545 577 -472 577 -370 c 0
 577 -266 649 -131 790 -16 c 1
 473 10 399 163 399 308 c 0
 399 378 416 446 431 497 c 2
EndSplineSet
Validated: 1
EndChar

StartChar: uogonek
Encoding: 371 371 347
Width: 1339
VWidth: 0
Flags: HW
LayerCount: 2
Fore
SplineSet
702 963 m 1
 540 400 l 2
 535 383 528 356 528 329 c 0
 528 272 559 209 704 209 c 0
 804 209 917 240 984 262 c 1
 1185 963 l 1
 1431 963 l 1
 1147 -29 l 1
 1122 -40 l 1
 961 -114 766 -183 739 -277 c 0
 737 -285 736 -292 736 -298 c 0
 736 -322 752 -337 796 -337 c 0
 857 -337 935 -301 958 -290 c 2
 998 -271 l 1
 1043 -421 l 1
 1005 -442 l 2
 881 -511 777 -543 682 -543 c 0
 529 -543 449 -468 449 -370 c 0
 449 -352 452 -333 458 -313 c 0
 502 -160 678 -48 897 40 c 1
 798 8 676 -20 561 -20 c 0
 502 -20 446 -13 400 5 c 0
 290 48 257 125 257 213 c 0
 257 276 274 344 293 410 c 0
 298 427 307 443 309 451 c 2
 456 963 l 1
 702 963 l 1
EndSplineSet
Validated: 1
EndChar

StartChar: Uhungarumlaut
Encoding: 368 368 348
Width: 1744
VWidth: 0
Flags: HW
LayerCount: 2
Fore
SplineSet
970 1451 m 5
 896 1635 l 5
 1558 2021 l 5
 1626 1853 l 5
 970 1451 l 5
2078 2021 m 5
 2152 1837 l 5
 1490 1451 l 5
 1421 1619 l 5
 2078 2021 l 5
906 -20 m 0
 485 -20 397 151 397 306 c 0
 397 380 417 450 431 497 c 2
 697 1421 l 1
 949 1421 l 1
 691 520 l 2
 678 476 669 437 669 401 c 0
 669 365 678 332 702 302 c 0
 723 276 787 209 972 209 c 0
 1384 209 1426 502 1431 520 c 2
 1689 1421 l 1
 1941 1421 l 1
 1713 624 l 1
 1666 462 1614 -20 906 -20 c 0
EndSplineSet
Validated: 1
EndChar

StartChar: uhungarumlaut
Encoding: 369 369 349
Width: 1327
VWidth: 0
Flags: HW
LayerCount: 2
Fore
SplineSet
1104 1567 m 1x38
 1197 1394 l 1
 661 1026 l 1
 550 1189 l 1
 1104 1567 l 1x38
1182 988 m 1
 1428 988 l 1
 1144 0 l 1
 961 0 l 1x78
 951 67 l 1
 772 -3 635 -20 546 -20 c 0
 322 -20 258 82 258 211 c 0
 258 272 272 339 291 404 c 2
 459 988 l 1
 705 988 l 1
 538 406 l 2
 532 385 525 357 525 329 c 0
 525 270 557 209 697 209 c 0xb8
 795 209 907 241 974 264 c 1
 1182 988 l 1
1637 1567 m 1
 1730 1394 l 1
 1190 1026 l 1
 1083 1189 l 1
 1637 1567 l 1
EndSplineSet
Validated: 1
EndChar

StartChar: quotereversed
Encoding: 8219 8219 350
Width: 450
VWidth: 2097
Flags: HW
LayerCount: 2
Fore
SplineSet
761 1552 m 1xc0
 762 1037 l 1
 481 1037 l 1xa0
 480 1552 l 1
 761 1552 l 1xc0
EndSplineSet
Validated: 1
EndChar

StartChar: uni201F
Encoding: 8223 8223 351
Width: 830
VWidth: 2097
Flags: HW
LayerCount: 2
Fore
SplineSet
761 1552 m 1xc0
 762 1037 l 1
 481 1037 l 1xa0
 480 1552 l 1
 761 1552 l 1xc0
1141 1552 m 1x90
 1142 1037 l 1
 861 1037 l 1x88
 860 1552 l 1
 1141 1552 l 1x90
EndSplineSet
Validated: 1
EndChar

StartChar: exclamdbl
Encoding: 8252 8252 352
Width: 1300
VWidth: 0
Flags: HW
LayerCount: 2
Fore
SplineSet
253 241 m 1xc0
 535 241 l 1
 454 -41 l 1
 172 -41 l 1
 253 241 l 1xc0
618 1462 m 1xa0
 870 1462 l 1
 571 417 l 1
 319 417 l 1
 618 1462 l 1xa0
903 241 m 1x90
 1185 241 l 1
 1104 -41 l 1
 822 -41 l 1
 903 241 l 1x90
1268 1462 m 1x88
 1520 1462 l 1
 1221 417 l 1
 969 417 l 1
 1268 1462 l 1x88
EndSplineSet
Validated: 1
EndChar

StartChar: uni204B
Encoding: 8267 8267 353
Width: 1326
VWidth: 2097
Flags: HW
LayerCount: 2
Fore
SplineSet
634 1552 m 1xd0
 1210 1552 l 2
 1345 1552 1625 1545 1625 1281 c 0
 1625 1239 1618 1190 1602 1133 c 0xe0
 1498 770 1216 660 1025 646 c 1
 828 -41 l 1
 581 -41 l 1
 972 1320 l 1
 814 1320 l 1
 423 -41 l 1
 177 -41 l 1
 634 1552 l 1xd0
EndSplineSet
Validated: 1
EndChar

StartChar: minute
Encoding: 8242 8242 354
Width: 405
VWidth: 0
Flags: HW
LayerCount: 2
Fore
SplineSet
514 1552 m 1
 781 1552 l 1
 635 1042 l 1
 368 1042 l 1
 514 1552 l 1
EndSplineSet
Validated: 1
EndChar

StartChar: second
Encoding: 8243 8243 355
Width: 810
VWidth: 0
Flags: HW
LayerCount: 2
Fore
SplineSet
514 1552 m 1
 781 1552 l 1
 635 1042 l 1
 368 1042 l 1
 514 1552 l 1
919 1552 m 1
 1186 1552 l 1
 1040 1042 l 1
 773 1042 l 1
 919 1552 l 1
EndSplineSet
Validated: 1
EndChar

StartChar: uni2034
Encoding: 8244 8244 356
Width: 1215
VWidth: 0
Flags: HW
CounterMasks: 1 70
LayerCount: 2
Fore
SplineSet
514 1552 m 1
 781 1552 l 1
 635 1042 l 1
 368 1042 l 1
 514 1552 l 1
919 1552 m 1
 1186 1552 l 1
 1040 1042 l 1
 773 1042 l 1
 919 1552 l 1
1324 1552 m 1
 1591 1552 l 1
 1445 1042 l 1
 1178 1042 l 1
 1324 1552 l 1
EndSplineSet
Validated: 1
EndChar

StartChar: uni2035
Encoding: 8245 8245 357
Width: 405
VWidth: 2097
Flags: HW
LayerCount: 2
Fore
SplineSet
467 1552 m 1xc0
 745 1552 l 1xc0
 680 1037 l 1
 402 1037 l 1xa0
 467 1552 l 1xc0
EndSplineSet
Validated: 1
EndChar

StartChar: uni0191
Encoding: 401 401 358
Width: 1412
VWidth: 2097
Flags: HW
LayerCount: 2
Fore
SplineSet
-248 -490 m 1x78
 -149 -289 l 1x78
 -110 -300 l 2
 -83 -308 -28 -323 31 -323 c 0
 182 -323 243 -244 269 -154 c 2
 720 1421 l 1
 1691 1421 l 1
 1625 1189 l 1
 931 1189 l 1
 833 848 l 1
 1467 848 l 1
 1401 616 l 1
 767 616 l 1
 544 -160 l 2
 467 -428 257 -541 21 -541 c 0xb8
 -62 -541 -140 -526 -215 -501 c 2
 -248 -490 l 1x78
EndSplineSet
Validated: 1
EndChar

StartChar: uni022C
Encoding: 556 556 359
Width: 1850
VWidth: 0
Flags: HW
LayerCount: 2
Fore
SplineSet
1157 2157 m 5xcf80
 2052 2157 l 5
 1991 1946 l 5
 1096 1946 l 5
 1157 2157 l 5xcf80
1781 1884 m 1
 1979 1854 l 1
 1958 1812 l 2
 1901 1699 1819 1492 1602 1492 c 1xef80
 1404 1500 1364 1673 1307 1673 c 0
 1268 1673 1236 1597 1200 1523 c 2
 1181 1484 l 1
 983 1514 l 1
 1004 1556 l 2
 1061 1669 1142 1876 1359 1876 c 1xdf80
 1557 1868 1597 1695 1654 1695 c 0xef80
 1693 1695 1729 1779 1762 1845 c 2
 1781 1884 l 1
1660 709 m 0
 1677 768 1685 821 1685 869 c 0
 1685 1105 1495 1205 1302 1205 c 2
 1299 1205 l 2
 1073 1205 777 1063 681 727 c 0
 664 668 656 614 656 564 c 0
 656 346 809 216 1035 216 c 0
 1264 216 1560 361 1660 709 c 0
1378 1436 m 0
 1733 1436 1957 1254 1957 947 c 0
 1957 879 1946 805 1923 726 c 0
 1797 285 1404 -15 954 -15 c 0
 635 -15 383 148 383 477 c 0
 383 546 394 623 418 707 c 0
 546 1152 938 1436 1378 1436 c 0
EndSplineSet
Validated: 1
EndChar

StartChar: uni1E6B
Encoding: 7787 7787 360
Width: 907
VWidth: 0
Flags: HW
LayerCount: 2
Fore
SplineSet
831 18 m 6xe8
 708 -12 633 -20 577 -20 c 4
 347 -20 283 60 283 168 c 0
 283 211 293 258 307 307 c 6
 434 752 l 5
 284 752 l 5
 344 963 l 5
 495 963 l 5
 582 1267 l 5
 828 1267 l 5
 741 963 l 5
 1096 963 l 5
 1036 752 l 5
 680 752 l 5
 559 328 l 6
 556 316 553 303 553 290 c 0
 553 241 584 190 698 190 c 4
 723 190 737 192 847 209 c 5
 887 216 l 5
 871 28 l 5
 831 18 l 6xe8
636 1621 m 1xf0
 989 1621 l 1
 906 1329 l 1
 553 1329 l 1
 636 1621 l 1xf0
EndSplineSet
Validated: 1
EndChar

StartChar: uni1E6A
Encoding: 7786 7786 361
Width: 1374
VWidth: 0
Flags: HW
LayerCount: 2
Fore
SplineSet
492 1421 m 1xe8
 1776 1421 l 1
 1710 1189 l 1
 1194 1189 l 1
 853 0 l 1
 601 0 l 1
 942 1189 l 1
 426 1189 l 1
 492 1421 l 1xe8
1107 1898 m 5xf0
 1433 1898 l 5
 1350 1606 l 5
 1024 1606 l 5
 1107 1898 l 5xf0
EndSplineSet
Validated: 1
EndChar

StartChar: uni1E02
Encoding: 7682 7682 362
Width: 1588
VWidth: 0
Flags: HW
LayerCount: 2
Fore
SplineSet
1122 1209 m 2xfe
 889 1209 l 1
 776 815 l 1
 1008 820 1303 820 1363 1030 c 0
 1367 1045 1370 1061 1370 1077 c 0
 1370 1141 1324 1209 1122 1209 c 2xfe
979 655 m 0
 954 655 927 653 727 644 c 1
 609 232 l 1
 833 232 l 2
 969 232 1278 235 1335 434 c 0xfd
 1340 450 1342 465 1342 479 c 0
 1342 590 1206 655 979 655 c 0
697 1421 m 1
 1239 1421 l 2
 1586 1421 1663 1271 1663 1148 c 0
 1663 1115 1657 1084 1650 1059 c 0xfe
 1623 964 1534 864 1446 803 c 1
 1548 756 1606 660 1606 547 c 0
 1606 514 1601 481 1591 446 c 0
 1552 311 1371 0 793 0 c 2
 290 0 l 1
 697 1421 l 1
1224 1898 m 1
 1554 1898 l 1
 1471 1606 l 1
 1141 1606 l 1
 1224 1898 l 1
EndSplineSet
Validated: 1
EndChar

